SplineFontDB: 3.0
FontName: MonofurBold
FullName: monofur bold
FamilyName: monofur
Weight: Bold
Copyright: monofur (c) 2000 tobias b ko:hler (unci@tigerden.com)
Version: 1.0 2000-03-28
ItalicAngle: 0
UnderlinePosition: -300
UnderlineWidth: 150
Ascent: 1920
Descent: 480
InvalidEm: 0
sfntRevision: 0x00010000
LayerCount: 2
Layer: 0 1 "Back" 1
Layer: 1 1 "Fore" 0
XUID: [1021 556 844986517 8687010]
StyleMap: 0x0040
FSType: 0
OS2Version: 0
OS2_WeightWidthSlopeOnly: 0
OS2_UseTypoMetrics: 0
CreationTime: 957547416
ModificationTime: 1553234827
PfmFamily: 49
TTFWeight: 700
TTFWidth: 5
LineGap: 0
VLineGap: 0
Panose: 2 15 4 9 2 2 3 2 2 4
OS2TypoAscent: 1952
OS2TypoAOffset: 0
OS2TypoDescent: -452
OS2TypoDOffset: 0
OS2TypoLinegap: 0
OS2WinAscent: 1952
OS2WinAOffset: 0
OS2WinDescent: 452
OS2WinDOffset: 0
HheadAscent: 1952
HheadAOffset: 0
HheadDescent: -452
HheadDOffset: 0
OS2SubXSize: 1680
OS2SubYSize: 1560
OS2SubXOff: 0
OS2SubYOff: 343
OS2SupXSize: 1680
OS2SupYSize: 1560
OS2SupXOff: 0
OS2SupYOff: 1088
OS2StrikeYSize: 120
OS2StrikeYPos: 621
OS2Vendor: 'unci'
OS2UnicodeRanges: 00000000.00000000.00000000.00000000
MarkAttachClasses: 1
DEI: 91125
TtTable: prep
NPUSHB
 51
 28
 28
 27
 27
 26
 26
 25
 25
 24
 24
 23
 23
 22
 22
 21
 21
 20
 20
 19
 19
 18
 18
 17
 17
 16
 16
 15
 15
 14
 14
 13
 13
 12
 12
 11
 11
 10
 10
 9
 9
 8
 8
 3
 3
 2
 2
 1
 1
 0
 0
 1
SCANTYPE
PUSHW_1
 511
SCANCTRL
RCVT
ROUND[Grey]
WCVTP
RCVT
ROUND[Grey]
WCVTP
RCVT
ROUND[Grey]
WCVTP
RCVT
ROUND[Grey]
WCVTP
RCVT
ROUND[Grey]
WCVTP
RCVT
ROUND[Grey]
WCVTP
RCVT
ROUND[Grey]
WCVTP
RCVT
ROUND[Grey]
WCVTP
RCVT
ROUND[Grey]
WCVTP
RCVT
ROUND[Grey]
WCVTP
RCVT
ROUND[Grey]
WCVTP
RCVT
ROUND[Grey]
WCVTP
RCVT
ROUND[Grey]
WCVTP
RCVT
ROUND[Grey]
WCVTP
RCVT
ROUND[Grey]
WCVTP
RCVT
ROUND[Grey]
WCVTP
RCVT
ROUND[Grey]
WCVTP
RCVT
ROUND[Grey]
WCVTP
RCVT
ROUND[Grey]
WCVTP
RCVT
ROUND[Grey]
WCVTP
RCVT
ROUND[Grey]
WCVTP
RCVT
ROUND[Grey]
WCVTP
RCVT
ROUND[Grey]
WCVTP
RCVT
ROUND[Grey]
WCVTP
RCVT
ROUND[Grey]
WCVTP
PUSHB_4
 5
 4
 70
 0
CALL

StartChar: .notdef
Encoding: 65536 -1 0
Width: 1200
Flags: W
LayerCount: 2
Fore
SplineSet
125 0 m 2,0,-1
 125 1950 l 2,1,2
 125 1961 125 1961 133 1968 c 128,-1,3
 141 1975 141 1975 150 1975 c 2,4,-1
 1050 1975 l 2,5,6
 1061 1975 1061 1975 1068 1967 c 128,-1,7
 1075 1959 1075 1959 1075 1950 c 2,8,-1
 1075 0 l 2,9,10
 1075 -11 1075 -11 1067 -18 c 128,-1,11
 1059 -25 1059 -25 1050 -25 c 2,12,-1
 150 -25 l 2,13,14
 139 -25 139 -25 132 -17 c 128,-1,15
 125 -9 125 -9 125 0 c 2,0,-1
325 175 m 1,16,-1
 875 175 l 1,17,-1
 875 1775 l 1,18,-1
 325 1775 l 1,19,-1
 325 175 l 1,16,-1
EndSplineSet
EndChar

StartChar: exclam
Encoding: 33 33 4
Width: 1200
Flags: W
LayerCount: 2
Fore
SplineSet
700 450 m 2,0,1
 700 404 700 404 673 377 c 128,-1,2
 646 350 646 350 600 350 c 128,-1,3
 554 350 554 350 527 377 c 128,-1,4
 500 404 500 404 500 450 c 2,5,-1
 500 1425 l 2,6,7
 500 1471 500 1471 527 1498 c 128,-1,8
 554 1525 554 1525 600 1525 c 128,-1,9
 646 1525 646 1525 673 1498 c 128,-1,10
 700 1471 700 1471 700 1425 c 2,11,-1
 700 450 l 2,0,1
739 114 m 0,12,13
 739 56.6446609407 739 56.6446609407 698.17766953 15.8223304703 c 128,-1,14
 657.355339059 -25 657.355339059 -25 600 -25 c 128,-1,15
 542.644660941 -25 542.644660941 -25 501.82233047 15.8223304703 c 128,-1,16
 461 56.6446609407 461 56.6446609407 461 114 c 0,17,18
 461 171.692266821 461 171.692266821 502.231690142 211.077761882 c 0,19,20
 542.978408172 250 542.978408172 250 600 250 c 128,-1,21
 657.021591828 250 657.021591828 250 697.768309858 211.077761882 c 0,22,23
 739 171.692266821 739 171.692266821 739 114 c 0,12,13
EndSplineSet
EndChar

StartChar: quotedbl
Encoding: 34 34 5
Width: 1200
Flags: W
LayerCount: 2
Fore
SplineSet
963 1428 m 0,0,1
 963 1408.46663546 963 1408.46663546 955.312826731 1387.96750674 c 2,2,-1
 805.228616439 1012.75698101 l 2,3,4
 793.349594612 982.746820603 793.349594612 982.746820603 769.797274637 965.873410301 c 128,-1,5
 746.244954662 949 746.244954662 949 715 949 c 0,6,7
 674.289283003 949 674.289283003 949 643.624663448 977.054864699 c 0,8,9
 612 1005.98806743 612 1005.98806743 612 1047 c 0,10,11
 612 1053.71853662 612 1053.71853662 612.863031038 1060.36401797 c 128,-1,12
 613.726062076 1067.00949932 613.726062076 1067.00949932 615.418097605 1073.58494278 c 128,-1,13
 617.110133134 1080.16038624 617.110133134 1080.16038624 619.687173269 1087.03249326 c 2,14,-1
 769.771383561 1462.24301899 l 2,15,16
 781.650405388 1492.2531794 781.650405388 1492.2531794 805.202725363 1509.1265897 c 128,-1,17
 828.755045338 1526 828.755045338 1526 860 1526 c 0,18,19
 900.710716997 1526 900.710716997 1526 931.375336552 1497.9451353 c 0,20,21
 963 1469.01193257 963 1469.01193257 963 1428 c 0,0,1
588 1428 m 0,22,23
 588 1417.97254873 588 1417.97254873 586.091727304 1408.1308649 c 128,-1,24
 584.183454608 1398.28918108 584.183454608 1398.28918108 580.312826731 1387.96750674 c 2,25,-1
 430.228616439 1012.75698101 l 2,26,27
 418.349594612 982.746820603 418.349594612 982.746820603 394.797274637 965.873410301 c 128,-1,28
 371.244954662 949 371.244954662 949 340 949 c 0,29,30
 299.289283003 949 299.289283003 949 268.624663448 977.054864699 c 0,31,32
 237 1005.98806743 237 1005.98806743 237 1047 c 0,33,34
 237 1053.71853662 237 1053.71853662 237.863031038 1060.36401797 c 128,-1,35
 238.726062076 1067.00949932 238.726062076 1067.00949932 240.418097605 1073.58494278 c 128,-1,36
 242.110133134 1080.16038624 242.110133134 1080.16038624 244.687173269 1087.03249326 c 2,37,-1
 394.771383561 1462.24301899 l 2,38,39
 406.650405388 1492.2531794 406.650405388 1492.2531794 430.202725363 1509.1265897 c 128,-1,40
 453.755045338 1526 453.755045338 1526 485 1526 c 0,41,42
 525.710716997 1526 525.710716997 1526 556.375336552 1497.9451353 c 0,43,44
 588 1469.01193257 588 1469.01193257 588 1428 c 0,22,23
EndSplineSet
EndChar

StartChar: numbersign
Encoding: 35 35 6
Width: 1200
Flags: W
LayerCount: 2
Fore
SplineSet
1150 375 m 128,-1,1
 1150 329 1150 329 1123 302 c 128,-1,2
 1096 275 1096 275 1050 275 c 2,3,-1
 950 275 l 1,4,-1
 950 75 l 2,5,6
 950 29 950 29 923 2 c 128,-1,7
 896 -25 896 -25 850 -25 c 128,-1,8
 804 -25 804 -25 777 2 c 128,-1,9
 750 29 750 29 750 75 c 2,10,-1
 750 275 l 1,11,-1
 450 275 l 1,12,-1
 450 75 l 2,13,14
 450 29 450 29 423 2 c 128,-1,15
 396 -25 396 -25 350 -25 c 128,-1,16
 304 -25 304 -25 277 2 c 128,-1,17
 250 29 250 29 250 75 c 2,18,-1
 250 275 l 1,19,-1
 150 275 l 2,20,21
 104 275 104 275 77 302 c 128,-1,22
 50 329 50 329 50 375 c 128,-1,23
 50 421 50 421 77 448 c 128,-1,24
 104 475 104 475 150 475 c 2,25,-1
 250 475 l 1,26,-1
 250 1025 l 1,27,-1
 150 1025 l 2,28,29
 104 1025 104 1025 77 1052 c 128,-1,30
 50 1079 50 1079 50 1125 c 128,-1,31
 50 1171 50 1171 77 1198 c 128,-1,32
 104 1225 104 1225 150 1225 c 2,33,-1
 250 1225 l 1,34,-1
 250 1425 l 2,35,36
 250 1471 250 1471 277 1498 c 128,-1,37
 304 1525 304 1525 350 1525 c 128,-1,38
 396 1525 396 1525 423 1498 c 128,-1,39
 450 1471 450 1471 450 1425 c 2,40,-1
 450 1225 l 1,41,-1
 750 1225 l 1,42,-1
 750 1425 l 2,43,44
 750 1471 750 1471 777 1498 c 128,-1,45
 804 1525 804 1525 850 1525 c 128,-1,46
 896 1525 896 1525 923 1498 c 128,-1,47
 950 1471 950 1471 950 1425 c 2,48,-1
 950 1225 l 1,49,-1
 1050 1225 l 2,50,51
 1096 1225 1096 1225 1123 1198 c 128,-1,52
 1150 1171 1150 1171 1150 1125 c 128,-1,53
 1150 1079 1150 1079 1123 1052 c 128,-1,54
 1096 1025 1096 1025 1050 1025 c 2,55,-1
 950 1025 l 1,56,-1
 950 475 l 1,57,-1
 1050 475 l 2,58,59
 1096 475 1096 475 1123 448 c 128,-1,0
 1150 421 1150 421 1150 375 c 128,-1,1
750 475 m 1,60,-1
 750 1025 l 1,61,-1
 450 1025 l 1,62,-1
 450 475 l 1,63,-1
 750 475 l 1,60,-1
EndSplineSet
EndChar

StartChar: dollar
Encoding: 36 36 7
Width: 1200
Flags: W
LayerCount: 2
Fore
SplineSet
1150 450 m 0,0,1
 1150 254.201888904 1150 254.201888904 987.93480623 120.736435211 c 0,2,3
 854.352946485 9.74562527589 854.352946485 9.74562527589 668 -17.8869295798 c 1,4,-1
 668 -225 l 2,5,6
 668 -271 668 -271 641 -298 c 128,-1,7
 614 -325 614 -325 568 -325 c 128,-1,8
 522 -325 522 -325 495 -298 c 128,-1,9
 468 -271 468 -271 468 -225 c 2,10,-1
 468 -17.874861046 l 1,11,12
 357.58027625 -1.33022345911 357.58027625 -1.33022345911 257.019715288 47.5403295314 c 0,13,14
 128.673691418 110.661324877 128.673691418 110.661324877 68.8072985494 204.7370851 c 0,15,16
 49 236.923945242 49 236.923945242 49 264 c 0,17,18
 49 304.67510316 49 304.67510316 80.2107125218 334.557700255 c 0,19,20
 110.961558922 364 110.961558922 364 152 364 c 0,21,22
 190.355339059 364 190.355339059 364 227.045794604 327.309544455 c 0,23,24
 249.893066451 302.475553318 249.893066451 302.475553318 271.946099867 277.449245071 c 0,25,26
 348.335566711 206.825602768 348.335566711 206.825602768 468 184.329484752 c 1,27,-1
 468 733.769565932 l 1,28,29
 393.492340043 747.262912279 393.492340043 747.262912279 329.359402677 776.818911663 c 128,-1,30
 265.226465312 806.374911047 265.226465312 806.374911047 211.738840243 852.01114161 c 0,31,32
 82 963.52221091 82 963.52221091 82 1125 c 128,-1,33
 82 1286.47778909 82 1286.47778909 211.738840243 1397.98885839 c 0,34,35
 318.615026412 1489.17679705 318.615026412 1489.17679705 468 1516.23043407 c 1,36,-1
 468 1725 l 2,37,38
 468 1771 468 1771 495 1798 c 128,-1,39
 522 1825 522 1825 568 1825 c 128,-1,40
 614 1825 614 1825 641 1798 c 128,-1,41
 668 1771 668 1771 668 1725 c 2,42,-1
 668 1516.49346127 l 1,43,44
 776.890817641 1498.34753311 776.890817641 1498.34753311 855.675766507 1453.00522717 c 128,-1,45
 934.460715373 1407.66292122 934.460715373 1407.66292122 981.817650928 1334.84526763 c 0,46,47
 1003 1303.69475429 1003 1303.69475429 1003 1275 c 0,48,49
 1003 1264.91081114 1003 1264.91081114 1000.85854479 1255.17689882 c 128,-1,50
 998.71708958 1245.44298649 998.71708958 1245.44298649 994.618201779 1236.53358674 c 128,-1,51
 990.519313978 1227.62418699 990.519313978 1227.62418699 984.605603355 1219.50226806 c 128,-1,52
 978.691892732 1211.38034912 978.691892732 1211.38034912 971.098528222 1204.2615699 c 0,53,54
 956.006137008 1190.11245313 956.006137008 1190.11245313 937.86979363 1182.55622657 c 128,-1,55
 919.733450252 1175 919.733450252 1175 900 1175 c 0,56,57
 862.876339661 1175 862.876339661 1175 823.509627511 1213.1365024 c 0,58,59
 747.29588362 1288.55635312 747.29588362 1288.55635312 668 1312.41429093 c 1,60,-1
 668 917.88692958 l 1,61,62
 854.352946486 890.254374724 854.352946486 890.254374724 987.93480623 779.263564789 c 0,63,64
 1068.20141261 713.161653649 1068.20141261 713.161653649 1109.10070631 630.289809062 c 128,-1,65
 1150 547.417964475 1150 547.417964475 1150 450 c 0,0,1
468 939.313989419 m 1,66,-1
 468 1310.68601058 l 1,67,68
 399.020239844 1292.23910731 399.020239844 1292.23910731 349.478216237 1253.36767341 c 0,69,70
 282 1199.9109047 282 1199.9109047 282 1125 c 0,71,72
 282 1087.24833945 282 1087.24833945 298.442357748 1055.64295344 c 128,-1,73
 314.884715496 1024.03756744 314.884715496 1024.03756744 349.478216237 996.632326592 c 0,74,75
 374.126128925 977.293195098 374.126128925 977.293195098 403.923909657 962.887028473 c 128,-1,76
 433.721690389 948.480861848 433.721690389 948.480861848 468 939.313989419 c 1,66,-1
950 450 m 128,-1,78
 950 558.613844093 950 558.613844093 850.861954188 634.104282647 c 0,79,80
 774.243966166 692.400577881 774.243966166 692.400577881 668 714.165300971 c 1,81,-1
 668 185.834699029 l 1,82,83
 774.24397022 207.59942295 774.24397022 207.59942295 850.854418066 265.889981093 c 0,84,77
 950 341.386158162 950 341.386158162 950 450 c 128,-1,78
EndSplineSet
EndChar

StartChar: percent
Encoding: 37 37 8
Width: 1200
Flags: W
LayerCount: 2
Fore
SplineSet
650 1125 m 0,0,1
 650 979.930857906 650 979.930857906 579.286259527 864.889101017 c 0,2,3
 492.948454993 725 492.948454993 725 350 725 c 128,-1,4
 207.051545007 725 207.051545007 725 120.713740473 864.889101017 c 0,5,6
 50 979.930857906 50 979.930857906 50 1125 c 128,-1,7
 50 1270.06914209 50 1270.06914209 120.713740473 1385.11089898 c 0,8,9
 207.051545007 1525 207.051545007 1525 350 1525 c 0,10,11
 397.448457997 1525 397.448457997 1525 439.350012818 1508.90784769 c 128,-1,12
 481.251567639 1492.81569539 481.251567639 1492.81569539 516.210111985 1461.74211496 c 128,-1,13
 551.168656331 1430.66853454 551.168656331 1430.66853454 579.286259527 1385.11089898 c 0,14,15
 614.623317571 1327.62225231 614.623317571 1327.62225231 632.311658786 1262.41526885 c 128,-1,16
 650 1197.20828539 650 1197.20828539 650 1125 c 0,0,1
1151 1426 m 0,17,18
 1151 1421.00345858 1151 1421.00345858 1150.45666112 1416.01275456 c 128,-1,19
 1149.91332223 1411.02205053 1149.91332223 1411.02205053 1148.85159943 1406.16693597 c 128,-1,20
 1147.78987662 1401.3118214 1147.78987662 1401.3118214 1146.24054376 1396.53539299 c 128,-1,21
 1144.6912109 1391.75896457 1144.6912109 1391.75896457 1142.66029565 1387.11338871 c 128,-1,22
 1140.62938039 1382.46781284 1140.62938039 1382.46781284 1138.16784573 1377.97894425 c 128,-1,23
 1135.70631107 1373.49007565 1135.70631107 1373.49007565 1132.80125736 1369.13249509 c 2,24,-1
 232.754408214 19.0622213783 l 2,25,26
 225.544781171 8.40451183575 225.544781171 8.40451183575 216.728814054 0.0648103968156 c 128,-1,27
 207.912846936 -8.27489104212 207.912846936 -8.27489104212 197.751820171 -14.0858353039 c 128,-1,28
 187.590793406 -19.8967795657 187.590793406 -19.8967795657 176.001722122 -22.9483897828 c 128,-1,29
 164.412650838 -26 164.412650838 -26 152 -26 c 0,30,31
 112.113813001 -26 112.113813001 -26 80.901471778 3.2615698965 c 0,32,33
 49 33.1691996883 49 33.1691996883 49 74 c 0,34,35
 49 103.569390943 49 103.569390943 67.1987426416 130.867504906 c 2,36,-1
 967.245591786 1480.93777862 l 2,37,38
 997.728859189 1526 997.728859189 1526 1048 1526 c 0,39,40
 1052.96496742 1526 1052.96496742 1526 1057.87426084 1525.50776223 c 128,-1,41
 1062.78355425 1525.01552446 1062.78355425 1525.01552446 1067.53521593 1524.0502279 c 128,-1,42
 1072.2868776 1523.08493134 1072.2868776 1523.08493134 1076.93835019 1521.65890182 c 128,-1,43
 1081.58982279 1520.23287229 1081.58982279 1520.23287229 1086.06619824 1518.3624581 c 128,-1,44
 1090.5425737 1516.4920439 1090.5425737 1516.4920439 1094.8724417 1514.19259026 c 128,-1,45
 1099.20230969 1511.89313661 1099.20230969 1511.89313661 1103.33961515 1509.17797241 c 128,-1,46
 1107.47692062 1506.46280821 1107.47692062 1506.46280821 1111.42140023 1503.35029809 c 128,-1,47
 1115.36587984 1500.23778796 1115.36587984 1500.23778796 1119.09852822 1496.7384301 c 0,48,49
 1134.43313415 1482.36223705 1134.43313415 1482.36223705 1142.71656707 1464.24088601 c 128,-1,50
 1151 1446.11953498 1151 1446.11953498 1151 1426 c 0,17,18
1150 375 m 128,-1,52
 1150 229.930857906 1150 229.930857906 1079.28625953 114.889101017 c 0,53,54
 992.948454993 -25 992.948454993 -25 850 -25 c 128,-1,55
 707.051545007 -25 707.051545007 -25 620.713740473 114.889101017 c 0,56,57
 550 229.930857906 550 229.930857906 550 375 c 128,-1,58
 550 520.069142094 550 520.069142094 620.713740473 635.110898983 c 0,59,60
 707.051545007 775 707.051545007 775 850 775 c 128,-1,61
 992.948454993 775 992.948454993 775 1079.28625953 635.110898983 c 0,62,51
 1150 520.069142094 1150 520.069142094 1150 375 c 128,-1,52
450 1125 m 128,-1,64
 450 1263.00896119 450 1263.00896119 376.772986621 1314.44222059 c 0,65,66
 361.288243481 1325 361.288243481 1325 350 1325 c 0,67,68
 343.712006649 1325 343.712006649 1325 335.335161531 1321.41511339 c 128,-1,69
 326.958316413 1317.83022678 326.958316413 1317.83022678 316.755891774 1309.58980688 c 0,70,71
 295.075212623 1291.90293705 295.075212623 1291.90293705 280.413825499 1266.43769765 c 128,-1,72
 265.752438375 1240.97245825 265.752438375 1240.97245825 257.876219188 1205.34729919 c 128,-1,73
 250 1169.72214013 250 1169.72214013 250 1125 c 0,74,75
 250 994.868946935 250 994.868946935 316.755891774 940.410193119 c 0,76,77
 335.835178493 925 335.835178493 925 350 925 c 0,78,79
 361.288243481 925 361.288243481 925 376.772986621 935.557779413 c 0,80,63
 450 986.991038811 450 986.991038811 450 1125 c 128,-1,64
950 375 m 0,81,82
 950 401.976073158 950 401.976073158 947.143447879 425.641158902 c 128,-1,83
 944.286895759 449.306244647 944.286895759 449.306244647 938.810027619 469.102463904 c 128,-1,84
 933.333159479 488.898683162 933.333159479 488.898683162 925.173134633 505.656207252 c 128,-1,85
 917.013109787 522.413731343 917.013109787 522.413731343 906.593363031 535.727890829 c 128,-1,86
 896.173616274 549.042050315 896.173616274 549.042050315 883.244108226 559.589806881 c 0,87,88
 876.275967229 565.217920763 876.275967229 565.217920763 869.791128677 568.790956473 c 128,-1,89
 863.306290125 572.363992183 863.306290125 572.363992183 858.666695054 573.681996092 c 128,-1,90
 854.027099983 575 854.027099983 575 850 575 c 0,91,92
 848.15998839 575 848.15998839 575 846.088591953 574.678000171 c 128,-1,93
 844.017195516 574.356000342 844.017195516 574.356000342 841.4131945 573.581863791 c 128,-1,94
 838.809193484 572.807727239 838.809193484 572.807727239 836.033863397 571.624503123 c 128,-1,95
 833.258533309 570.441279007 833.258533309 570.441279007 829.951784438 568.606984633 c 128,-1,96
 826.645035566 566.77269026 826.645035566 566.77269026 823.227013379 564.442220587 c 0,97,98
 787.388810287 539.270149367 787.388810287 539.270149367 768.694405144 492.537773847 c 128,-1,99
 750 445.805398326 750 445.805398326 750 375 c 0,100,101
 750 236.991038811 750 236.991038811 823.227013379 185.557779413 c 0,102,103
 838.711756519 175 838.711756519 175 850 175 c 0,104,105
 856.287993351 175 856.287993351 175 864.664838469 178.584886609 c 128,-1,106
 873.041683587 182.169773219 873.041683587 182.169773219 883.244108226 190.410193119 c 0,107,108
 915.995305788 217.128275341 915.995305788 217.128275341 932.997652894 262.758509769 c 128,-1,109
 950 308.388744197 950 308.388744197 950 375 c 0,81,82
EndSplineSet
EndChar

StartChar: ampersand
Encoding: 38 38 9
Width: 1200
Flags: W
LayerCount: 2
Fore
SplineSet
1151 75 m 0,0,1
 1151 34.4868445799 1151 34.4868445799 1119.98657619 4.13328085016 c 0,2,3
 1089.19822402 -26 1089.19822402 -26 1049 -26 c 0,4,5
 1007.05421921 -26 1007.05421921 -26 975.520428528 8.16160656721 c 2,6,-1
 836.40441786 162.830960043 l 1,7,8
 772.611042933 69.1997355036 772.611042933 69.1997355036 685.160103891 22.0998677518 c 128,-1,9
 597.709164849 -25 597.709164849 -25 488 -25 c 0,10,11
 298.609252253 -25 298.609252253 -25 171.150241724 121.577862108 c 0,12,13
 50 260.63727 50 260.63727 50 450 c 0,14,15
 50 696.6966632 50 696.6966632 232.262875952 836.271036956 c 1,16,17
 118 974.347398426 118 974.347398426 118 1125 c 0,18,19
 118 1284.375 118 1284.375 220.190130499 1401.46785786 c 0,20,21
 328.683577071 1525 328.683577071 1525 488 1525 c 0,22,23
 566.650132318 1525 566.650132318 1525 633.852673301 1493.8368267 c 128,-1,24
 701.055214283 1462.67365341 701.055214283 1462.67365341 754.809869501 1401.46785786 c 0,25,26
 788.725755661 1362.60590497 788.725755661 1362.60590497 811.472920874 1318.6823411 c 128,-1,27
 834.220086088 1274.75877723 834.220086088 1274.75877723 845.610043044 1226.26299066 c 128,-1,28
 857 1177.76720409 857 1177.76720409 857 1125 c 0,29,30
 857 982.708669259 857 982.708669259 773.001010032 870.001163733 c 0,31,32
 698.358863866 771.077837488 698.358863866 771.077837488 587.185693517 738.937014597 c 1,33,-1
 1124.72583067 141.564671359 l 2,34,35
 1151 111.349376635 1151 111.349376635 1151 75 c 0,0,1
657 1125 m 128,-1,37
 657 1203.43675201 657 1203.43675201 610.376387548 1263.50948344 c 0,38,39
 561.010761577 1325 561.010761577 1325 488 1325 c 0,40,41
 450.520706904 1325 450.520706904 1325 420.155418606 1309.92862565 c 128,-1,42
 389.790130307 1294.85725129 389.790130307 1294.85725129 364.623612452 1263.50948344 c 0,43,44
 341.247960286 1233.39085469 341.247960286 1233.39085469 329.623980143 1198.95366513 c 128,-1,45
 318 1164.51647557 318 1164.51647557 318 1125 c 0,46,47
 318 1092.53278648 318 1092.53278648 325.874046043 1063.58945274 c 128,-1,48
 333.748092086 1034.64611899 333.748092086 1034.64611899 348.993094694 1009.58962983 c 0,49,50
 353.782148881 1002.64710832 353.782148881 1002.64710832 363.759740409 990.336160492 c 128,-1,51
 373.737331937 978.025212665 373.737331937 978.025212665 389.189235515 960.080406764 c 128,-1,52
 404.641139093 942.135600864 404.641139093 942.135600864 424.358601147 920.029763744 c 1,53,54
 456.153671819 925 456.153671819 925 488 925 c 0,55,56
 561.010761577 925 561.010761577 925 610.376387548 986.49051656 c 0,57,36
 657 1046.56324799 657 1046.56324799 657 1125 c 128,-1,37
696.711570905 319.158111679 m 1,58,-1
 366.314285202 685.852563981 l 1,59,60
 250 609.233815189 250 609.233815189 250 450 c 0,61,62
 250 341.924084454 250 341.924084454 316.435913067 260.72463515 c 0,63,64
 385.015621187 175 385.015621187 175 488 175 c 0,65,66
 631.180135325 175 631.180135325 175 696.711570905 319.158111679 c 1,58,-1
EndSplineSet
EndChar

StartChar: quotesingle
Encoding: 39 39 10
Width: 1200
Flags: W
LayerCount: 2
Fore
SplineSet
776 1428 m 0,0,1
 776 1417.97254873 776 1417.97254873 774.091727304 1408.1308649 c 128,-1,2
 772.183454608 1398.28918108 772.183454608 1398.28918108 768.312826731 1387.96750674 c 2,3,-1
 618.228616439 1012.75698101 l 2,4,5
 606.313283049 982.655086128 606.313283049 982.655086128 582.474375717 965.827543064 c 128,-1,6
 558.635468385 949 558.635468385 949 527 949 c 0,7,8
 517.214178279 949 517.214178279 949 507.694895541 950.839263283 c 128,-1,9
 498.175612803 952.678526567 498.175612803 952.678526567 489.282900363 956.234833542 c 128,-1,10
 480.390187924 959.791140517 480.390187924 959.791140517 472.103984005 964.976206797 c 128,-1,11
 463.817780086 970.161273078 463.817780086 970.161273078 456.31879196 976.879116607 c 0,12,13
 424 1005.83136774 424 1005.83136774 424 1047 c 0,14,15
 424 1057.02745127 424 1057.02745127 425.908272696 1066.8691351 c 128,-1,16
 427.816545392 1076.71081892 427.816545392 1076.71081892 431.687173269 1087.03249326 c 2,17,-1
 581.771383561 1462.24301899 l 2,18,19
 593.686716951 1492.34491387 593.686716951 1492.34491387 617.525624283 1509.17245694 c 128,-1,20
 641.364531615 1526 641.364531615 1526 673 1526 c 0,21,22
 712.560333688 1526 712.560333688 1526 743.68120804 1498.12088339 c 0,23,24
 776 1469.16863226 776 1469.16863226 776 1428 c 0,0,1
EndSplineSet
EndChar

StartChar: parenleft
Encoding: 40 40 11
Width: 1200
Flags: W
LayerCount: 2
Fore
SplineSet
821 1426 m 0,0,1
 821 1413.88171025 821 1413.88171025 817.502447942 1401.49490129 c 128,-1,2
 814.004895885 1389.10809233 814.004895885 1389.10809233 807.332446774 1375.76319411 c 0,3,4
 688.386450278 1140.84485103 688.386450278 1140.84485103 638.051145275 964.177800138 c 0,5,6
 609.043161429 861.91236556 609.043161429 861.91236556 594.521580714 752.13896642 c 128,-1,7
 580 642.36556728 580 642.36556728 580 525 c 0,8,9
 580 290.477022413 580 290.477022413 638.043160799 85.8502860377 c 0,10,11
 688.380592688 -90.8242298087 688.380592688 -90.8242298087 807.322908788 -324.744118138 c 0,12,13
 811.736766214 -333.571832991 811.736766214 -333.571832991 814.712222102 -341.880003866 c 128,-1,14
 817.68767799 -350.188174742 817.68767799 -350.188174742 819.343838995 -358.883410488 c 128,-1,15
 821 -367.578646233 821 -367.578646233 821 -376 c 0,16,17
 821 -416.997542909 821 -416.997542909 788.893115713 -446.428853505 c 0,18,19
 757.724592264 -475 757.724592264 -475 718 -475 c 0,20,21
 687.618439243 -475 687.618439243 -475 662.020291499 -453.666825459 c 128,-1,22
 636.422143754 -432.333650918 636.422143754 -432.333650918 613.399352938 -393.587978569 c 0,23,24
 604.785644836 -378.51398939 604.785644836 -378.51398939 561.340901057 -285.56244456 c 0,25,26
 380 103.459376702 380 103.459376702 380 525 c 128,-1,27
 380 946.540592356 380 946.540592356 561.351714702 1335.58561161 c 0,28,29
 604.630897016 1428.1829319 604.630897016 1428.1829319 612.941176471 1443.76470588 c 0,30,31
 613.250789083 1444.34522953 613.250789083 1444.34522953 613.590507342 1444.90866469 c 0,32,33
 661.880871278 1525 661.880871278 1525 718 1525 c 0,34,35
 757.724592264 1525 757.724592264 1525 788.893115713 1496.42885351 c 0,36,37
 821 1466.99754291 821 1466.99754291 821 1426 c 0,0,1
EndSplineSet
EndChar

StartChar: parenright
Encoding: 41 41 12
Width: 1200
Flags: W
LayerCount: 2
Fore
SplineSet
820 525 m 128,-1,1
 820 103.501607574 820 103.501607574 639.618331421 -285.650528775 c 0,2,3
 595.159258401 -378.610408725 595.159258401 -378.610408725 586.600647062 -393.587978569 c 0,4,5
 538.22538795 -475 538.22538795 -475 482 -475 c 0,6,7
 442.275407736 -475 442.275407736 -475 411.106884287 -446.428853505 c 0,8,9
 379 -416.997542909 379 -416.997542909 379 -376 c 0,10,11
 379 -370.997326072 379 -370.997326072 379.592835073 -365.932401752 c 128,-1,12
 380.185670147 -360.867477431 380.185670147 -360.867477431 381.29223448 -355.938794215 c 128,-1,13
 382.398798813 -351.010110999 382.398798813 -351.010110999 384.086037226 -345.823330443 c 128,-1,14
 385.773275639 -340.636549887 385.773275639 -340.636549887 387.851912257 -335.555544792 c 128,-1,15
 389.930548875 -330.474539698 389.930548875 -330.474539698 392.577698579 -324.939590317 c 0,16,17
 511.619447639 -90.8241504992 511.619447639 -90.8241504992 561.948854725 85.8221998617 c 0,18,19
 590.956838571 188.08763444 590.956838571 188.08763444 605.478419286 297.86103358 c 128,-1,20
 620 407.63443272 620 407.63443272 620 525 c 0,21,22
 620 759.522977587 620 759.522977587 561.956839201 964.149713962 c 0,23,24
 511.613509176 1140.84493111 511.613509176 1140.84493111 392.667553226 1375.76319411 c 0,25,26
 385.995104115 1389.10809233 385.995104115 1389.10809233 382.497552058 1401.49490129 c 128,-1,27
 379 1413.88171025 379 1413.88171025 379 1426 c 0,28,29
 379 1466.99754291 379 1466.99754291 411.106884287 1496.42885351 c 0,30,31
 442.275407736 1525 442.275407736 1525 482 1525 c 0,32,33
 538.119128722 1525 538.119128722 1525 586.409492658 1444.90866469 c 2,34,-1
 587.058823529 1443.76470588 l 2,35,36
 590.091648488 1438.07815908 590.091648488 1438.07815908 596.851849874 1424.10312176 c 128,-1,37
 603.612051259 1410.12808443 603.612051259 1410.12808443 613.735406103 1388.67818421 c 128,-1,38
 623.858760947 1367.22828399 623.858760947 1367.22828399 638.659098943 1335.56244456 c 0,39,0
 820 946.540623298 820 946.540623298 820 525 c 128,-1,1
EndSplineSet
EndChar

StartChar: asterisk
Encoding: 42 42 13
Width: 1200
Flags: W
LayerCount: 2
Fore
SplineSet
1150 975 m 128,-1,1
 1150 929 1150 929 1125.5 902 c 128,-1,2
 1101 875 1101 875 1057 875 c 0,3,4
 1051.85820905 875 1051.85820905 875 806.543876076 889.717706295 c 1,5,-1
 987.538592012 728.747937655 l 2,6,7
 1003.22466921 715.022620107 1003.22466921 715.022620107 1011.6123346 696.494403569 c 128,-1,8
 1020 677.966187031 1020 677.966187031 1020 657 c 0,9,10
 1020 616.644660941 1020 616.644660941 989.17766953 585.82233047 c 128,-1,11
 958.355339059 555 958.355339059 555 918 555 c 0,12,13
 874.655794335 555 874.655794335 555 846.252062345 587.461407988 c 2,14,-1
 685.282293705 768.456123924 l 1,15,16
 686.620122209 746.157234374 686.620122209 746.157234374 689.020523748 706.184722186 c 0,17,18
 700 523.349791751 700 523.349791751 700 518 c 0,19,20
 700 474 700 474 673 449.5 c 128,-1,21
 646 425 646 425 600 425 c 128,-1,22
 554 425 554 425 527 449.5 c 128,-1,23
 500 474 500 474 500 518 c 0,24,25
 500 521.478855257 500 521.478855257 503.142333465 574.686652853 c 128,-1,26
 506.284666931 627.894450448 506.284666931 627.894450448 514.717706295 768.456123924 c 1,27,-1
 353.747937655 587.461407988 l 2,28,29
 325.344205665 555 325.344205665 555 282 555 c 0,30,31
 268.669491716 555 268.669491716 555 255.945737663 558.650617281 c 128,-1,32
 243.221983611 562.301234563 243.221983611 562.301234563 231.936038839 569.147900719 c 128,-1,33
 220.650094066 575.994566875 220.650094066 575.994566875 210.82233047 585.82233047 c 0,34,35
 195.974312058 600.670348883 195.974312058 600.670348883 187.987156029 618.855346672 c 128,-1,36
 180 637.040344462 180 637.040344462 180 657 c 0,37,38
 180 700.344205665 180 700.344205665 212.461407988 728.747937655 c 2,39,-1
 393.456123924 889.717706295 l 1,40,41
 371.157234375 888.379877791 371.157234375 888.379877791 331.184722186 885.979476252 c 0,42,43
 148.349791751 875 148.349791751 875 143 875 c 0,44,45
 99 875 99 875 74.5 902 c 128,-1,46
 50 929 50 929 50 975 c 128,-1,47
 50 1021 50 1021 74.5 1048 c 128,-1,48
 99 1075 99 1075 143 1075 c 0,49,50
 148.141790949 1075 148.141790949 1075 393.456123924 1060.28229371 c 1,51,-1
 212.461407988 1221.25206235 l 2,52,53
 202.043036574 1230.36813733 202.043036574 1230.36813733 194.77330618 1241.72486469 c 128,-1,54
 187.503575787 1253.08159204 187.503575787 1253.08159204 183.751787893 1266.07570275 c 128,-1,55
 180 1279.06981346 180 1279.06981346 180 1293 c 0,56,57
 180 1299.69344284 180 1299.69344284 180.925673864 1306.26707964 c 128,-1,58
 181.851347728 1312.84071643 181.851347728 1312.84071643 183.650518337 1319.0935774 c 128,-1,59
 185.449688947 1325.34643837 185.449688947 1325.34643837 188.084456126 1331.36276232 c 128,-1,60
 190.719223306 1337.37908627 190.719223306 1337.37908627 194.149628851 1343.0349142 c 128,-1,61
 197.580034397 1348.69074213 197.580034397 1348.69074213 201.755144624 1353.98816802 c 128,-1,62
 205.930254852 1359.28559391 205.930254852 1359.28559391 210.82233047 1364.17766953 c 0,63,64
 218.174272828 1371.52961189 218.174272828 1371.52961189 226.415233509 1377.23964685 c 128,-1,65
 234.65619419 1382.94968182 234.65619419 1382.94968182 243.612851231 1386.91040691 c 128,-1,66
 252.569508271 1390.87113199 252.569508271 1390.87113199 262.276639804 1392.935566 c 128,-1,67
 271.983771337 1395 271.983771337 1395 282 1395 c 0,68,69
 325.344205665 1395 325.344205665 1395 353.747937655 1362.53859201 c 2,70,-1
 514.717706295 1181.54387608 l 1,71,72
 513.379877791 1203.84276563 513.379877791 1203.84276563 510.979476252 1243.81527781 c 0,73,74
 504.563715137 1350.65327357 504.563715137 1350.65327357 502.281857569 1389.48688643 c 128,-1,75
 500 1428.3204993 500 1428.3204993 500 1432 c 0,76,77
 500 1476 500 1476 527 1500.5 c 128,-1,78
 554 1525 554 1525 600 1525 c 128,-1,79
 646 1525 646 1525 673 1500.5 c 128,-1,80
 700 1476 700 1476 700 1432 c 2,81,-1
 685.282293705 1181.54387608 l 1,82,-1
 846.252062345 1362.53859201 l 2,83,84
 874.655794335 1395 874.655794335 1395 918 1395 c 0,85,86
 958.355339059 1395 958.355339059 1395 989.17766953 1364.17766953 c 128,-1,87
 1020 1333.35533906 1020 1333.35533906 1020 1293 c 0,88,89
 1020 1249.65579434 1020 1249.65579434 987.538592012 1221.25206235 c 2,90,-1
 806.543876076 1060.28229371 l 1,91,92
 828.842765622 1061.62012221 828.842765622 1061.62012221 868.815277814 1064.02052375 c 0,93,94
 1051.65020825 1075 1051.65020825 1075 1057 1075 c 0,95,96
 1101 1075 1101 1075 1125.5 1048 c 128,-1,0
 1150 1021 1150 1021 1150 975 c 128,-1,1
EndSplineSet
EndChar

StartChar: plus
Encoding: 43 43 14
Width: 1200
Flags: W
LayerCount: 2
Fore
SplineSet
1150 638 m 128,-1,1
 1150 592 1150 592 1123 565 c 128,-1,2
 1096 538 1096 538 1050 538 c 2,3,-1
 700 538 l 1,4,-1
 700 188 l 2,5,6
 700 142 700 142 673 115 c 128,-1,7
 646 88 646 88 600 88 c 128,-1,8
 554 88 554 88 527 115 c 128,-1,9
 500 142 500 142 500 188 c 2,10,-1
 500 538 l 1,11,-1
 150 538 l 2,12,13
 104 538 104 538 77 565 c 128,-1,14
 50 592 50 592 50 638 c 128,-1,15
 50 684 50 684 77 711 c 128,-1,16
 104 738 104 738 150 738 c 2,17,-1
 500 738 l 1,18,-1
 500 1088 l 2,19,20
 500 1134 500 1134 527 1160.5 c 128,-1,21
 554 1187 554 1187 600 1187 c 128,-1,22
 646 1187 646 1187 673 1160.5 c 128,-1,23
 700 1134 700 1134 700 1088 c 2,24,-1
 700 738 l 1,25,-1
 1050 738 l 2,26,27
 1096 738 1096 738 1123 711 c 128,-1,0
 1150 684 1150 684 1150 638 c 128,-1,1
EndSplineSet
EndChar

StartChar: comma
Encoding: 44 44 15
Width: 1200
Flags: W
LayerCount: 2
Fore
SplineSet
766 75 m 0,0,1
 766 -167.006322461 766 -167.006322461 603.724531919 -315.583212067 c 0,2,3
 593.122501178 -324.961931569 593.122501178 -324.961931569 582.088785345 -331.412643802 c 128,-1,4
 571.055069513 -337.863356034 571.055069513 -337.863356034 558.798077815 -341.431678017 c 128,-1,5
 546.541086117 -345 546.541086117 -345 534 -345 c 0,6,7
 493.801775984 -345 493.801775984 -345 463.013423811 -314.86671915 c 0,8,9
 432 -284.51315542 432 -284.51315542 432 -243 c 0,10,11
 432 -208.495016941 432 -208.495016941 462.208039731 -174.510972244 c 0,12,13
 566 -54.678436297 566 -54.678436297 566 75 c 0,14,15
 566 121 566 121 593 148 c 128,-1,16
 620 175 620 175 666 175 c 128,-1,17
 712 175 712 175 739 148 c 128,-1,18
 766 121 766 121 766 75 c 0,0,1
EndSplineSet
EndChar

StartChar: hyphen
Encoding: 45 45 16
AltUni2: 002010.ffffffff.0
Width: 1200
Flags: W
LayerCount: 2
Fore
SplineSet
925 525 m 128,-1,1
 925 479 925 479 898 452 c 128,-1,2
 871 425 871 425 825 425 c 2,3,-1
 375 425 l 2,4,5
 329 425 329 425 302 452 c 128,-1,6
 275 479 275 479 275 525 c 128,-1,7
 275 571 275 571 302 598 c 128,-1,8
 329 625 329 625 375 625 c 2,9,-1
 825 625 l 2,10,11
 871 625 871 625 898 598 c 128,-1,0
 925 571 925 571 925 525 c 128,-1,1
EndSplineSet
EndChar

StartChar: period
Encoding: 46 46 17
Width: 1200
Flags: W
LayerCount: 2
Fore
SplineSet
739 114 m 0,0,1
 739 56.6446609407 739 56.6446609407 698.17766953 15.8223304703 c 128,-1,2
 657.355339059 -25 657.355339059 -25 600 -25 c 128,-1,3
 542.644660941 -25 542.644660941 -25 501.82233047 15.8223304703 c 128,-1,4
 461 56.6446609407 461 56.6446609407 461 114 c 0,5,6
 461 171.692266821 461 171.692266821 502.231690142 211.077761882 c 0,7,8
 542.978408172 250 542.978408172 250 600 250 c 128,-1,9
 657.021591828 250 657.021591828 250 697.768309858 211.077761882 c 0,10,11
 739 171.692266821 739 171.692266821 739 114 c 0,0,1
EndSplineSet
EndChar

StartChar: slash
Encoding: 47 47 18
Width: 1200
Flags: W
LayerCount: 2
Fore
SplineSet
1151 1427 m 0,0,1
 1150.52855687 1402.65127441 1150.52855687 1402.65127441 1139.36316264 1379.82462722 c 2,2,-1
 239.360679775 -421.180339887 l 2,3,4
 226.12239909 -447.656901258 226.12239909 -447.656901258 203.416793085 -462.328450629 c 128,-1,5
 180.71118708 -477 180.71118708 -477 152 -477 c 0,6,7
 132.463410178 -477 132.463410178 -477 114.442991484 -469.825676859 c 128,-1,8
 96.4225727892 -462.651353719 96.4225727892 -462.651353719 81.3187919604 -449.120883393 c 0,9,10
 65.717535747 -435.144758035 65.717535747 -435.144758035 57.3587678735 -416.859334938 c 128,-1,11
 49 -398.57391184 49 -398.57391184 49 -378 c 0,12,13
 49 -354.098301942 49 -354.098301942 60.6368373605 -330.824627221 c 2,14,-1
 960.639320225 1470.18033989 l 2,15,16
 988.549150281 1526 988.549150281 1526 1048 1526 c 0,17,18
 1067.53658982 1526 1067.53658982 1526 1085.55700852 1518.82567686 c 128,-1,19
 1103.57742721 1511.65135372 1103.57742721 1511.65135372 1118.68120804 1498.12088339 c 0,20,21
 1134.28246425 1484.14475804 1134.28246425 1484.14475804 1142.64123213 1465.85933494 c 128,-1,22
 1151 1447.57391184 1151 1447.57391184 1151 1427 c 0,0,1
EndSplineSet
EndChar

StartChar: zero
Encoding: 48 48 19
Width: 1200
Flags: W
LayerCount: 2
Fore
SplineSet
1150 638 m 0,0,1
 1150 612.882067212 1150 612.882067212 1148.56833577 588.304499638 c 128,-1,2
 1147.13667153 563.726932065 1147.13667153 563.726932065 1144.27595935 539.706572108 c 128,-1,3
 1141.41524716 515.686212151 1141.41524716 515.686212151 1137.1227068 492.218917678 c 128,-1,4
 1132.83016643 468.751623205 1132.83016643 468.751623205 1127.11264351 445.858840956 c 128,-1,5
 1121.39512059 422.966058708 1121.39512059 422.966058708 1114.24532359 400.638735258 c 128,-1,6
 1107.09552659 378.311411808 1107.09552659 378.311411808 1098.52481243 356.57590519 c 128,-1,7
 1089.95409828 334.840398573 1089.95409828 334.840398573 1079.95066413 313.682744068 c 128,-1,8
 1069.94722999 292.525089563 1069.94722999 292.525089563 1058.52694409 271.976556498 c 128,-1,9
 1047.10665819 251.428023434 1047.10665819 251.428023434 1034.2532064 231.469735796 c 128,-1,10
 1021.39975461 211.511448158 1021.39975461 211.511448158 1007.13323451 192.179279613 c 0,11,12
 847.658594403 -25 847.658594403 -25 600 -25 c 128,-1,13
 352.341405597 -25 352.341405597 -25 192.866765495 192.179279613 c 0,14,15
 50 385.774099523 50 385.774099523 50 638 c 0,16,17
 50 889.225900477 50 889.225900477 192.866765495 1082.82072039 c 0,18,19
 271.914897125 1190.47179438 271.914897125 1190.47179438 374.302426078 1245.23589719 c 128,-1,20
 476.68995503 1300 476.68995503 1300 600 1300 c 128,-1,21
 723.30997763 1300 723.30997763 1300 825.697537332 1245.23590117 c 128,-1,22
 928.085097034 1190.47180234 928.085097034 1190.47180234 1007.13323451 1082.82072039 c 0,23,24
 1150 889.225900477 1150 889.225900477 1150 638 c 0,0,1
950 638 m 0,25,26
 950 809.430609057 950 809.430609057 858.159569211 947.191255239 c 0,27,28
 757.529420223 1100 757.529420223 1100 600 1100 c 128,-1,29
 442.470579777 1100 442.470579777 1100 341.840430789 947.191255239 c 0,30,31
 250 809.430609057 250 809.430609057 250 638 c 0,32,33
 250 465.569390943 250 465.569390943 341.840430789 327.808744761 c 0,34,35
 442.470579777 175 442.470579777 175 600 175 c 128,-1,36
 757.529420223 175 757.529420223 175 858.159569211 327.808744761 c 0,37,38
 950 465.569390943 950 465.569390943 950 638 c 0,25,26
701 637 m 0,39,40
 701 595.644660941 701 595.644660941 671.17766953 565.82233047 c 128,-1,41
 641.355339059 536 641.355339059 536 600 536 c 128,-1,42
 558.644660941 536 558.644660941 536 528.82233047 565.82233047 c 128,-1,43
 499 595.644660941 499 595.644660941 499 637 c 0,44,45
 499 683 499 683 526 709.5 c 128,-1,46
 553 736 553 736 600 736 c 128,-1,47
 647 736 647 736 674 709.5 c 128,-1,48
 701 683 701 683 701 637 c 0,39,40
EndSplineSet
EndChar

StartChar: one
Encoding: 49 49 20
Width: 1200
Flags: W
LayerCount: 2
Fore
SplineSet
1025 75 m 128,-1,1
 1025 29 1025 29 998 2 c 128,-1,2
 971 -25 971 -25 925 -25 c 2,3,-1
 375 -25 l 2,4,5
 329 -25 329 -25 302 2 c 128,-1,6
 275 29 275 29 275 75 c 128,-1,7
 275 121 275 121 302 148 c 128,-1,8
 329 175 329 175 375 175 c 2,9,-1
 550 175 l 1,10,-1
 550 958.644660941 l 1,11,-1
 345.67766953 754.32233047 l 2,12,13
 315.355339059 724 315.355339059 724 276 724 c 0,14,15
 262.482859156 724 262.482859156 724 249.684141209 727.527146121 c 128,-1,16
 236.885423261 731.054292242 236.885423261 731.054292242 225.477979813 737.814208408 c 128,-1,17
 214.070536366 744.574124575 214.070536366 744.574124575 204.32233047 754.32233047 c 0,18,19
 189.629188214 769.015472727 189.629188214 769.015472727 181.814594107 787.363599955 c 128,-1,20
 174 805.711727183 174 805.711727183 174 826 c 0,21,22
 174 865.355339059 174 865.355339059 204.32233047 895.67766953 c 2,23,-1
 569.32233047 1260.67766953 l 2,24,25
 588.613567238 1279.9689063 588.613567238 1279.9689063 608.347246189 1290.48445315 c 128,-1,26
 628.08092514 1301 628.08092514 1301 649 1301 c 0,27,28
 697 1301 697 1301 723.5 1270 c 128,-1,29
 750 1239 750 1239 750 1186 c 2,30,-1
 750 175 l 1,31,-1
 925 175 l 2,32,33
 971 175 971 175 998 148 c 128,-1,0
 1025 121 1025 121 1025 75 c 128,-1,1
EndSplineSet
EndChar

StartChar: two
Encoding: 50 50 21
Width: 1200
Flags: W
LayerCount: 2
Fore
SplineSet
1075 825 m 0,0,1
 1075 660.334708582 1075 660.334708582 965.647633917 521.541320861 c 0,2,3
 945.551970306 495.965021719 945.551970306 495.965021719 920.285597685 469.766321923 c 128,-1,4
 895.019225064 443.567622126 895.019225064 443.567622126 864.553543978 416.710159367 c 128,-1,5
 834.087862892 389.852696608 834.087862892 389.852696608 798.596424382 362.366206731 c 128,-1,6
 763.104985873 334.879716855 763.104985873 334.879716855 722.145959556 306.386481156 c 0,7,8
 673.948564197 273.76055199 673.948564197 273.76055199 625.323326086 240.705470142 c 128,-1,9
 576.698087976 207.650388293 576.698087976 207.650388293 528.867876236 175 c 1,10,-1
 975 175 l 2,11,12
 1021 175 1021 175 1048 148 c 128,-1,13
 1075 121 1075 121 1075 75 c 128,-1,14
 1075 29 1075 29 1048 2 c 128,-1,15
 1021 -25 1021 -25 975 -25 c 2,16,-1
 225 -25 l 2,17,18
 175 -25 175 -25 144.5 -1.5 c 128,-1,19
 114 22 114 22 114 66 c 0,20,21
 114 89.1863731341 114 89.1863731341 126.816825551 110.716542883 c 128,-1,22
 139.633651101 132.246712631 139.633651101 132.246712631 163.393160096 153.688220749 c 0,23,24
 197.509328531 183.53986813 197.509328531 183.53986813 259.037676357 217.954028778 c 0,25,26
 307.667867838 243.757803849 307.667867838 243.757803849 356.590039145 270.705923952 c 0,27,28
 618.047028795 425.957659708 618.047028795 425.957659708 746.523514398 565.527077493 c 128,-1,29
 875 705.096495278 875 705.096495278 875 825 c 0,30,31
 875 938.644660941 875 938.644660941 794.32233047 1019.32233047 c 128,-1,32
 713.644660941 1100 713.644660941 1100 600 1100 c 0,33,34
 542.656982983 1100 542.656982983 1100 494.528107212 1080.02194619 c 128,-1,35
 446.399231442 1060.04389238 446.399231442 1060.04389238 405.67766953 1019.32233047 c 0,36,37
 325 938.644660941 325 938.644660941 325 825 c 0,38,39
 325 779 325 779 298 752 c 128,-1,40
 271 725 271 725 225 725 c 128,-1,41
 179 725 179 725 152 752 c 128,-1,42
 125 779 125 779 125 825 c 0,43,44
 125 1021.35533906 125 1021.35533906 264.32233047 1160.67766953 c 0,45,46
 298.936664772 1195.29200383 298.936664772 1195.29200383 337.427180159 1221.4085917 c 128,-1,47
 375.917695546 1247.52517958 375.917695546 1247.52517958 417.961680563 1264.97834709 c 128,-1,48
 460.00566558 1282.43151461 460.00566558 1282.43151461 505.603773428 1291.2157573 c 128,-1,49
 551.201881275 1300 551.201881275 1300 600 1300 c 0,50,51
 796.355339059 1300 796.355339059 1300 935.67766953 1160.67766953 c 128,-1,52
 1075 1021.35533906 1075 1021.35533906 1075 825 c 0,0,1
EndSplineSet
EndChar

StartChar: three
Encoding: 51 51 22
Width: 1200
Flags: W
LayerCount: 2
Fore
SplineSet
1095 1211 m 0,0,1
 1095 1187.6241987 1095 1187.6241987 1083.99447515 1166.25894865 c 128,-1,2
 1072.98895031 1144.8936986 1072.98895031 1144.8936986 1052.86851115 1126.54859231 c 2,3,-1
 661.357283055 767.663299892 l 1,4,5
 827.521511106 739.90979178 827.521511106 739.90979178 946.250534966 613.085607202 c 0,6,7
 1085 464.87595137 1085 464.87595137 1085 263 c 0,8,9
 1085 50.6446609407 1085 50.6446609407 934.67766953 -99.6776695297 c 0,10,11
 859.903540683 -174.451798377 859.903540683 -174.451798377 769.034442543 -212.225899188 c 128,-1,12
 678.165344402 -250 678.165344402 -250 573 -250 c 0,13,14
 438.385755695 -250 438.385755695 -250 316.762851897 -180.800761632 c 0,15,16
 189.364542338 -110.257896009 189.364542338 -110.257896009 127.759957328 6.57838590675 c 0,17,18
 124.399495903 13.299308757 124.399495903 13.299308757 121.894974211 19.6290454771 c 128,-1,19
 119.39045252 25.9587821972 119.39045252 25.9587821972 117.599292062 32.3659005897 c 128,-1,20
 115.808131604 38.7730189823 115.808131604 38.7730189823 114.904065802 45.1894918767 c 128,-1,21
 114 51.6059647712 114 51.6059647712 114 58 c 0,22,23
 114 98.9975429085 114 98.9975429085 146.106884287 128.428853505 c 0,24,25
 177.275407736 157 177.275407736 157 218 157 c 0,26,27
 241.838726388 157 241.838726388 157 262.622158362 144.261248917 c 128,-1,28
 283.405590335 131.522497835 283.405590335 131.522497835 300.084663669 108.886612597 c 0,29,30
 418.544505013 -50 418.544505013 -50 573 -50 c 0,31,32
 701.644660941 -50 701.644660941 -50 793.32233047 41.6776695297 c 128,-1,33
 885 133.355339059 885 133.355339059 885 263 c 0,34,35
 885 391.644660941 885 391.644660941 793.32233047 483.32233047 c 128,-1,36
 701.644660941 575 701.644660941 575 573 575 c 0,37,38
 543.969940943 575 543.969940943 575 515.192678603 568.773227376 c 128,-1,39
 486.415416262 562.546454752 486.415416262 562.546454752 457.234345027 549.772627634 c 128,-1,40
 428.053273792 536.998800517 428.053273792 536.998800517 398.789792277 517.647143386 c 0,41,42
 389.317328562 511.383094801 389.317328562 511.383094801 374.272540977 501.28505934 c 128,-1,43
 359.227753391 491.187023879 359.227753391 491.187023879 352.060554853 486.449806338 c 128,-1,44
 344.893356314 481.712588797 344.893356314 481.712588797 333.97441789 474.770893568 c 128,-1,45
 323.055479465 467.829198338 323.055479465 467.829198338 316.969631427 464.686653347 c 128,-1,46
 310.883783388 461.544108356 310.883783388 461.544108356 303.191118291 458.039339989 c 128,-1,47
 295.498453193 454.534571621 295.498453193 454.534571621 289.59437982 453.267285811 c 128,-1,48
 283.690306447 452 283.690306447 452 278 452 c 0,49,50
 258.178807848 452 258.178807848 452 240.212191457 459.699542937 c 128,-1,51
 222.245575066 467.399085874 222.245575066 467.399085874 207.82233047 481.82233047 c 0,52,53
 200.661339261 488.98332168 200.661339261 488.98332168 195.110803102 497.106254826 c 128,-1,54
 189.560266943 505.229187972 189.560266943 505.229187972 185.75544153 514.071840778 c 128,-1,55
 181.950616116 522.914493583 181.950616116 522.914493583 179.975308058 532.497951162 c 128,-1,56
 178 542.081408741 178 542.081408741 178 552 c 0,57,58
 178 573.852022956 178 573.852022956 187.465476248 593.474047752 c 128,-1,59
 196.930952496 613.096072548 196.930952496 613.096072548 214.220756753 628.533397778 c 2,60,-1
 727.798938979 1100 l 1,61,-1
 215 1100 l 2,62,63
 169 1100 169 1100 142 1127 c 128,-1,64
 115 1154 115 1154 115 1200 c 128,-1,65
 115 1246 115 1246 142 1273 c 128,-1,66
 169 1300 169 1300 215 1300 c 2,67,-1
 985 1300 l 2,68,69
 1034 1300 1034 1300 1064.5 1277 c 128,-1,70
 1095 1254 1095 1254 1095 1211 c 0,0,1
EndSplineSet
EndChar

StartChar: four
Encoding: 52 52 23
Width: 1200
Flags: W
LayerCount: 2
Fore
SplineSet
1150 300 m 128,-1,1
 1150 254 1150 254 1123 227 c 128,-1,2
 1096 200 1096 200 1050 200 c 2,3,-1
 850 200 l 1,4,-1
 850 -150 l 2,5,6
 850 -196 850 -196 823 -223 c 128,-1,7
 796 -250 796 -250 750 -250 c 128,-1,8
 704 -250 704 -250 677 -223 c 128,-1,9
 650 -196 650 -196 650 -150 c 2,10,-1
 650 200 l 1,11,-1
 150 200 l 2,12,13
 103 200 103 200 73.5 222.5 c 128,-1,14
 44 245 44 245 44 288 c 0,15,16
 44 299.565932703 44 299.565932703 46.8254475094 311.326501428 c 128,-1,17
 49.6508950188 323.087070154 49.6508950188 323.087070154 54.7523556778 334.065984372 c 128,-1,18
 59.8538163368 345.04489859 59.8538163368 345.04489859 67.2555757235 355.952754529 c 2,19,-1
 667.198742642 1255.86750491 l 2,20,21
 684.884070048 1282.39549602 684.884070048 1282.39549602 707.90571905 1297.19774801 c 128,-1,22
 730.927368051 1312 730.927368051 1312 758 1312 c 0,23,24
 803 1312 803 1312 826.5 1281 c 128,-1,25
 850 1250 850 1250 850 1200 c 2,26,-1
 850 400 l 1,27,-1
 1050 400 l 2,28,29
 1096 400 1096 400 1123 373 c 128,-1,0
 1150 346 1150 346 1150 300 c 128,-1,1
650 400 m 1,30,-1
 650 869.490087609 l 1,31,-1
 336.735383485 400 l 1,32,-1
 650 400 l 1,30,-1
EndSplineSet
EndChar

StartChar: five
Encoding: 53 53 24
Width: 1200
Flags: W
LayerCount: 2
Fore
SplineSet
1120 300 m 0,0,1
 1120 243.45187688 1120 243.45187688 1109.84077971 190.666253509 c 128,-1,2
 1099.68155942 137.880630137 1099.68155942 137.880630137 1079.47842895 89.2117125174 c 128,-1,3
 1059.27529848 40.5427948977 1059.27529848 40.5427948977 1029.03367099 -4.0102503337 c 128,-1,4
 998.792043494 -48.5632955651 998.792043494 -48.5632955651 958.67766953 -88.6776695297 c 0,5,6
 878.399137362 -168.956201697 878.399137362 -168.956201697 780.778160588 -209.478100849 c 128,-1,7
 683.157183814 -250 683.157183814 -250 570 -250 c 0,8,9
 426.441159603 -250 426.441159603 -250 294.707246513 -175.768985481 c 0,10,11
 159.366817293 -99.180990651 159.366817293 -99.180990651 92.7888632306 25.5205741013 c 0,12,13
 79 53.0983005625 79 53.0983005625 79 77 c 0,14,15
 79 117.997542909 79 117.997542909 111.106884287 147.428853505 c 0,16,17
 142.275407736 176 142.275407736 176 182 176 c 0,18,19
 229.632694003 176 229.632694003 176 265.126395934 127.829975951 c 0,20,21
 265.633018153 127.142417225 265.633018153 127.142417225 266.091537193 126.421887305 c 0,22,23
 279.371692541 105.553071759 279.371692541 105.553071759 309.340283211 65.8731403149 c 1,24,25
 412.710360555 -50 412.710360555 -50 570 -50 c 0,26,27
 714.644660941 -50 714.644660941 -50 817.32233047 52.6776695297 c 128,-1,28
 920 155.355339059 920 155.355339059 920 300 c 128,-1,29
 920 444.644660941 920 444.644660941 817.32233047 547.32233047 c 128,-1,30
 714.644660941 650 714.644660941 650 570 650 c 0,31,32
 392.825768427 650 392.825768427 650 265.253752548 472.344155665 c 0,33,34
 222.711139042 414 222.711139042 414 173 414 c 0,35,36
 129 414 129 414 104.5 442.5 c 128,-1,37
 80 471 80 471 80 518 c 0,38,39
 80 528.246890528 80 528.246890528 81.1240702448 539.487592976 c 0,40,41
 81.1920607991 540.167498519 81.1920607991 540.167498519 81.2970882761 540.842675157 c 2,42,-1
 186.249789783 1215.53861342 l 2,43,44
 190.456670657 1247.79136678 190.456670657 1247.79136678 221.297034262 1274.03848474 c 0,45,46
 235.885241442 1286.45398021 235.885241442 1286.45398021 251.970720607 1293.22699011 c 128,-1,47
 268.056199772 1300 268.056199772 1300 285 1300 c 2,48,-1
 1020 1300 l 2,49,50
 1066 1300 1066 1300 1093 1273 c 128,-1,51
 1120 1246 1120 1246 1120 1200 c 128,-1,52
 1120 1154 1120 1154 1093 1127 c 128,-1,53
 1066 1100 1066 1100 1020 1100 c 2,54,-1
 370.426586489 1100 l 1,55,-1
 322.631295728 791.355834244 l 1,56,57
 437.753413118 850 437.753413118 850 570 850 c 0,58,59
 797.355339059 850 797.355339059 850 958.67766953 688.67766953 c 0,60,61
 1038.9562017 608.399137362 1038.9562017 608.399137362 1079.47810085 510.778160588 c 128,-1,62
 1120 413.157183814 1120 413.157183814 1120 300 c 0,0,1
EndSplineSet
EndChar

StartChar: six
Encoding: 54 54 25
Width: 1200
Flags: W
LayerCount: 2
Fore
SplineSet
1150 1425 m 128,-1,1
 1150 1379 1150 1379 1123 1352 c 128,-1,2
 1096 1325 1096 1325 1050 1325 c 0,3,4
 855.106888284 1325 855.106888284 1325 681.526013192 1234.815523 c 0,5,6
 547.753790248 1165.31375353 547.753790248 1165.31375353 450.257872036 1054.34486559 c 1,7,8
 462.325304598 1057.79190985 462.325304598 1057.79190985 474.536335516 1060.6637754 c 128,-1,9
 486.747366433 1063.53564094 486.747366433 1063.53564094 499.090067383 1065.829929 c 128,-1,10
 511.432768333 1068.12421706 511.432768333 1068.12421706 523.91254837 1069.84445294 c 128,-1,11
 536.392328408 1071.56468883 536.392328408 1071.56468883 549.008057223 1072.71003136 c 128,-1,12
 561.623786038 1073.85537389 561.623786038 1073.85537389 574.369354807 1074.42768694 c 128,-1,13
 587.114923576 1075 587.114923576 1075 600 1075 c 0,14,15
 827.355339059 1075 827.355339059 1075 988.67766953 913.67766953 c 0,16,17
 1068.9562017 833.399137362 1068.9562017 833.399137362 1109.47810085 735.778160588 c 128,-1,18
 1150 638.157183814 1150 638.157183814 1150 525 c 0,19,20
 1150 297.644660941 1150 297.644660941 988.67766953 136.32233047 c 128,-1,21
 827.355339059 -25 827.355339059 -25 600 -25 c 128,-1,22
 372.644660941 -25 372.644660941 -25 211.32233047 136.32233047 c 0,23,24
 157.832384816 189.812276124 157.832384816 189.812276124 121.942859665 251.094735534 c 128,-1,25
 86.0533345144 312.377194943 86.0533345144 312.377194943 68.0266672572 380.98793313 c 128,-1,26
 50 449.598671317 50 449.598671317 50 525 c 0,27,28
 50 938.355339059 50 938.355339059 343.32233047 1231.67766953 c 0,29,30
 489.600893899 1377.95623296 489.600893899 1377.95623296 666.721823407 1451.47811648 c 128,-1,31
 843.842752915 1525 843.842752915 1525 1050 1525 c 0,32,33
 1096 1525 1096 1525 1123 1498 c 128,-1,0
 1150 1471 1150 1471 1150 1425 c 128,-1,1
950 525 m 128,-1,35
 950 669.644660941 950 669.644660941 847.32233047 772.32233047 c 128,-1,36
 744.644660941 875 744.644660941 875 600 875 c 128,-1,37
 455.355339059 875 455.355339059 875 352.67766953 772.32233047 c 128,-1,38
 250 669.644660941 250 669.644660941 250 525 c 0,39,40
 250 488.547178542 250 488.547178542 256.340670191 455.083686201 c 128,-1,41
 262.681340382 421.62019386 262.681340382 421.62019386 275.478512322 390.788346468 c 128,-1,42
 288.275684262 359.956499076 288.275684262 359.956499076 307.533547202 331.760213996 c 128,-1,43
 326.791410143 303.563928916 326.791410143 303.563928916 352.67766953 277.67766953 c 0,44,45
 455.355339059 175 455.355339059 175 600 175 c 128,-1,46
 744.644660941 175 744.644660941 175 847.32233047 277.67766953 c 128,-1,34
 950 380.355339059 950 380.355339059 950 525 c 128,-1,35
EndSplineSet
EndChar

StartChar: seven
Encoding: 55 55 26
Width: 1200
Flags: W
LayerCount: 2
Fore
SplineSet
1154 1211 m 0,0,1
 1154 1205.15845151 1154 1205.15845151 1153.30546677 1199.23155955 c 128,-1,2
 1152.61093355 1193.30466759 1152.61093355 1193.30466759 1151.28719381 1187.52418511 c 128,-1,3
 1149.96345407 1181.74370262 1149.96345407 1181.74370262 1148.00457413 1175.91673314 c 128,-1,4
 1146.0456942 1170.08976366 1146.0456942 1170.08976366 1143.55692875 1164.43983246 c 128,-1,5
 1141.06816331 1158.78990125 1141.06816331 1158.78990125 1138.0036507 1153.13233951 c 2,6,-1
 413.029006702 -196.82044262 l 2,7,8
 383.957049083 -251 383.957049083 -251 327 -251 c 0,9,10
 287.275407736 -251 287.275407736 -251 256.106884287 -222.428853505 c 0,11,12
 224 -192.997542909 224 -192.997542909 224 -152 c 0,13,14
 224 -126.521849295 224 -126.521849295 237.059769452 -103.014264282 c 2,15,-1
 883.194850106 1100 l 1,16,-1
 150 1100 l 2,17,18
 104 1100 104 1100 77 1127 c 128,-1,19
 50 1154 50 1154 50 1200 c 128,-1,20
 50 1246 50 1246 77 1273 c 128,-1,21
 104 1300 104 1300 150 1300 c 2,22,-1
 1050 1300 l 2,23,24
 1097 1300 1097 1300 1125.5 1277 c 128,-1,25
 1154 1254 1154 1254 1154 1211 c 0,0,1
EndSplineSet
EndChar

StartChar: eight
Encoding: 56 56 27
Width: 1200
Flags: W
LayerCount: 2
Fore
SplineSet
1075 450 m 0,0,1
 1075 253.644660941 1075 253.644660941 935.67766953 114.32233047 c 128,-1,2
 796.355339059 -25 796.355339059 -25 600 -25 c 128,-1,3
 403.644660941 -25 403.644660941 -25 264.32233047 114.32233047 c 128,-1,4
 125 253.644660941 125 253.644660941 125 450 c 0,5,6
 125 697.204887593 125 697.204887593 322.785044502 835.845292162 c 1,7,8
 200 951.475236948 200 951.475236948 200 1125 c 0,9,10
 200 1179.73472306 200 1179.73472306 213.137785738 1229.67869036 c 128,-1,11
 226.275571476 1279.62265766 226.275571476 1279.62265766 252.38726068 1324.2384733 c 128,-1,12
 278.498949883 1368.85428894 278.498949883 1368.85428894 317.32233047 1407.67766953 c 0,13,14
 375.600838643 1465.9561777 375.600838643 1465.9561777 446.721851578 1495.47808885 c 128,-1,15
 517.842864513 1525 517.842864513 1525 600 1525 c 0,16,17
 765.355339059 1525 765.355339059 1525 882.67766953 1407.67766953 c 128,-1,18
 1000 1290.35533906 1000 1290.35533906 1000 1125 c 0,19,20
 1000 951.475236948 1000 951.475236948 877.214955498 835.845292162 c 1,21,22
 1075 697.204887593 1075 697.204887593 1075 450 c 0,0,1
800 1125 m 0,23,24
 800 1207.64466094 800 1207.64466094 741.32233047 1266.32233047 c 128,-1,25
 682.644660941 1325 682.644660941 1325 600 1325 c 0,26,27
 572.06648712 1325 572.06648712 1325 547.34470582 1318.58196941 c 128,-1,28
 522.622924519 1312.16393883 522.622924519 1312.16393883 500.572459473 1299.1652971 c 128,-1,29
 478.521994427 1286.16665537 478.521994427 1286.16665537 458.67766953 1266.32233047 c 0,30,31
 428.956180219 1236.60084116 428.956180219 1236.60084116 414.478090109 1201.72185082 c 128,-1,32
 400 1166.84286047 400 1166.84286047 400 1125 c 0,33,34
 400 1042.35533906 400 1042.35533906 458.67766953 983.67766953 c 128,-1,35
 517.355339059 925 517.355339059 925 600 925 c 128,-1,36
 682.644660941 925 682.644660941 925 741.32233047 983.67766953 c 0,37,38
 761.166680396 1003.52201946 761.166680396 1003.52201946 774.165329549 1025.57252227 c 128,-1,39
 787.163978701 1047.62302509 787.163978701 1047.62302509 793.581989351 1072.34477698 c 128,-1,40
 800 1097.06652887 800 1097.06652887 800 1125 c 0,23,24
875 450 m 128,-1,42
 875 563.644660941 875 563.644660941 794.32233047 644.32233047 c 128,-1,43
 713.644660941 725 713.644660941 725 600 725 c 128,-1,44
 486.355339059 725 486.355339059 725 405.67766953 644.32233047 c 128,-1,45
 325 563.644660941 325 563.644660941 325 450 c 128,-1,46
 325 336.355339059 325 336.355339059 405.67766953 255.67766953 c 128,-1,47
 486.355339059 175 486.355339059 175 600 175 c 128,-1,48
 713.644660941 175 713.644660941 175 794.32233047 255.67766953 c 128,-1,41
 875 336.355339059 875 336.355339059 875 450 c 128,-1,42
EndSplineSet
EndChar

StartChar: nine
Encoding: 57 57 28
Width: 1200
Flags: W
LayerCount: 2
Fore
SplineSet
1150 750 m 0,0,1
 1150 336.644660941 1150 336.644660941 856.67766953 43.3223304703 c 128,-1,2
 563.355339059 -250 563.355339059 -250 150 -250 c 0,3,4
 104 -250 104 -250 77 -223 c 128,-1,5
 50 -196 50 -196 50 -150 c 128,-1,6
 50 -104 50 -104 77 -77 c 128,-1,7
 104 -50 104 -50 150 -50 c 0,8,9
 344.893111716 -50 344.893111716 -50 518.473986808 40.1844770032 c 0,10,11
 551.859715504 57.530134929 551.859715504 57.530134929 583.255903534 77.6953050604 c 128,-1,12
 614.652091563 97.8604751919 614.652091563 97.8604751919 643.610020467 120.511491881 c 128,-1,13
 672.56794937 143.16250857 672.56794937 143.16250857 699.140105183 168.233543265 c 128,-1,14
 725.712260996 193.30457796 725.712260996 193.30457796 749.742127964 220.655134413 c 1,15,16
 725.614221639 213.763033653 725.614221639 213.763033653 700.910808587 209.170882074 c 128,-1,17
 676.207395535 204.578730495 676.207395535 204.578730495 650.992506542 202.289365247 c 128,-1,18
 625.777617549 200 625.777617549 200 600 200 c 0,19,20
 372.644660941 200 372.644660941 200 211.32233047 361.32233047 c 0,21,22
 157.832384816 414.812276124 157.832384816 414.812276124 121.942859665 476.094735534 c 128,-1,23
 86.0533345144 537.377194943 86.0533345144 537.377194943 68.0266672572 605.98793313 c 128,-1,24
 50 674.598671317 50 674.598671317 50 750 c 0,25,26
 50 977.355339059 50 977.355339059 211.32233047 1138.67766953 c 0,27,28
 291.600862638 1218.9562017 291.600862638 1218.9562017 389.221839412 1259.47810085 c 128,-1,29
 486.842816186 1300 486.842816186 1300 600 1300 c 0,30,31
 827.355339059 1300 827.355339059 1300 988.67766953 1138.67766953 c 0,32,33
 1068.9562017 1058.39913736 1068.9562017 1058.39913736 1109.47810085 960.778160588 c 128,-1,34
 1150 863.157183814 1150 863.157183814 1150 750 c 0,0,1
950 750 m 128,-1,36
 950 894.644660941 950 894.644660941 847.32233047 997.32233047 c 128,-1,37
 744.644660941 1100 744.644660941 1100 600 1100 c 0,38,39
 527.157087486 1100 527.157087486 1100 465.778110488 1074.52189722 c 128,-1,40
 404.39913349 1049.04379443 404.39913349 1049.04379443 352.67766953 997.32233047 c 0,41,42
 250 894.644660941 250 894.644660941 250 750 c 0,43,44
 250 677.157087486 250 677.157087486 275.478102785 615.778110488 c 128,-1,45
 300.956205569 554.39913349 300.956205569 554.39913349 352.67766953 502.67766953 c 0,46,47
 455.355339059 400 455.355339059 400 600 400 c 0,48,49
 672.842912514 400 672.842912514 400 734.221889512 425.478102785 c 128,-1,50
 795.60086651 450.956205569 795.60086651 450.956205569 847.32233047 502.67766953 c 0,51,35
 950 605.355339059 950 605.355339059 950 750 c 128,-1,36
EndSplineSet
EndChar

StartChar: colon
Encoding: 58 58 29
Width: 1200
Flags: W
LayerCount: 2
Fore
SplineSet
739 939 m 0,0,1
 739 881.644660941 739 881.644660941 698.17766953 840.82233047 c 128,-1,2
 657.355339059 800 657.355339059 800 600 800 c 128,-1,3
 542.644660941 800 542.644660941 800 501.82233047 840.82233047 c 128,-1,4
 461 881.644660941 461 881.644660941 461 939 c 0,5,6
 461 996.692266821 461 996.692266821 502.231690142 1036.07776188 c 0,7,8
 542.978408172 1075 542.978408172 1075 600 1075 c 128,-1,9
 657.021591828 1075 657.021591828 1075 697.768309858 1036.07776188 c 0,10,11
 739 996.692266821 739 996.692266821 739 939 c 0,0,1
739 114 m 0,12,13
 739 56.6446609407 739 56.6446609407 698.17766953 15.8223304703 c 128,-1,14
 657.355339059 -25 657.355339059 -25 600 -25 c 128,-1,15
 542.644660941 -25 542.644660941 -25 501.82233047 15.8223304703 c 128,-1,16
 461 56.6446609407 461 56.6446609407 461 114 c 0,17,18
 461 171.692266821 461 171.692266821 502.231690142 211.077761882 c 0,19,20
 542.978408172 250 542.978408172 250 600 250 c 128,-1,21
 657.021591828 250 657.021591828 250 697.768309858 211.077761882 c 0,22,23
 739 171.692266821 739 171.692266821 739 114 c 0,12,13
EndSplineSet
EndChar

StartChar: semicolon
Encoding: 59 59 30
Width: 1200
Flags: W
LayerCount: 2
Fore
SplineSet
786 939 m 0,0,1
 786 881.644660941 786 881.644660941 745.17766953 840.82233047 c 128,-1,2
 704.355339059 800 704.355339059 800 647 800 c 0,3,4
 633.150730726 800 633.150730726 800 619.902800991 802.638145355 c 128,-1,5
 606.654871256 805.276290711 606.654871256 805.276290711 594.38734307 810.422648165 c 128,-1,6
 582.119814883 815.56900562 582.119814883 815.56900562 570.819195261 823.17203644 c 128,-1,7
 559.518575639 830.77506726 559.518575639 830.77506726 549.453757542 840.691873327 c 0,8,9
 535.949309065 853.997726973 535.949309065 853.997726973 526.701130292 869.608380392 c 128,-1,10
 517.452951519 885.219033811 517.452951519 885.219033811 512.72647576 902.713239677 c 128,-1,11
 508 920.207445544 508 920.207445544 508 939 c 0,12,13
 508 996.692266821 508 996.692266821 549.231690142 1036.07776188 c 0,14,15
 589.978408172 1075 589.978408172 1075 647 1075 c 0,16,17
 675.445702391 1075 675.445702391 1075 700.493029728 1065.10444041 c 128,-1,18
 725.540357066 1055.20888083 725.540357066 1055.20888083 745.403645902 1035.94750984 c 128,-1,19
 765.347905159 1016.60762207 765.347905159 1016.60762207 775.67395258 991.888094777 c 128,-1,20
 786 967.168567482 786 967.168567482 786 939 c 0,0,1
747 75 m 0,21,22
 747 -167.006322461 747 -167.006322461 584.724531919 -315.583212067 c 0,23,24
 551.470771647 -345 551.470771647 -345 516 -345 c 0,25,26
 474.644660941 -345 474.644660941 -345 444.32233047 -314.67766953 c 128,-1,27
 414 -284.355339059 414 -284.355339059 414 -243 c 0,28,29
 414 -230.965137599 414 -230.965137599 417.628594752 -218.959693571 c 128,-1,30
 421.257189505 -206.954249542 421.257189505 -206.954249542 427.566344754 -196.208735801 c 128,-1,31
 433.875500004 -185.463222059 433.875500004 -185.463222059 443.035571191 -174.710095013 c 0,32,33
 547 -54.678436297 547 -54.678436297 547 75 c 0,34,35
 547 121 547 121 574 148 c 128,-1,36
 601 175 601 175 647 175 c 128,-1,37
 693 175 693 175 720 148 c 128,-1,38
 747 121 747 121 747 75 c 0,21,22
EndSplineSet
EndChar

StartChar: less
Encoding: 60 60 31
Width: 1200
Flags: W
LayerCount: 2
Fore
SplineSet
1151 190 m 0,0,1
 1151 149.439666312 1151 149.439666312 1123.12088339 118.31879196 c 0,2,3
 1094.16863226 86 1094.16863226 86 1052 86 c 0,4,5
 1045.95824474 86 1045.95824474 86 1039.90288682 86.761966626 c 128,-1,6
 1033.8475289 87.5239332521 1033.8475289 87.5239332521 1027.9322978 89.012249223 c 128,-1,7
 1022.0170667 90.500565194 1022.0170667 90.500565194 1016.24229809 92.6579767891 c 128,-1,8
 1010.46752948 94.8153883842 1010.46752948 94.8153883842 1004.80957979 97.6443632275 c 2,9,-1
 117.733621824 541.682385028 l 2,10,11
 85.4084069898 558.138858034 85.4084069898 558.138858034 67.2042034949 582.620508269 c 128,-1,12
 49 607.102158505 49 607.102158505 49 638 c 0,13,14
 49 698.325952953 49 698.325952953 117.733621824 733.317614972 c 2,15,-1
 1004.81966011 1177.36067977 l 2,16,17
 1016.2091168 1183.05540812 1016.2091168 1183.05540812 1028.09897655 1186.02770406 c 128,-1,18
 1039.98883629 1189 1039.98883629 1189 1052 1189 c 0,19,20
 1094.16863226 1189 1094.16863226 1189 1123.12088339 1156.68120804 c 0,21,22
 1151 1125.56033369 1151 1125.56033369 1151 1085 c 0,23,24
 1151 1026.87316764 1151 1026.87316764 1095.37969942 997.738724479 c 2,25,-1
 373.960174003 637.970762717 l 1,26,-1
 1095.39127093 277.255214256 l 2,27,28
 1151 248.12683236 1151 248.12683236 1151 190 c 0,0,1
EndSplineSet
EndChar

StartChar: equal
Encoding: 61 61 32
Width: 1200
Flags: W
LayerCount: 2
Fore
SplineSet
1150 863 m 128,-1,1
 1150 817 1150 817 1123 790 c 128,-1,2
 1096 763 1096 763 1050 763 c 2,3,-1
 150 763 l 2,4,5
 104 763 104 763 77 790 c 128,-1,6
 50 817 50 817 50 863 c 128,-1,7
 50 909 50 909 77 936 c 128,-1,8
 104 963 104 963 150 963 c 2,9,-1
 1050 963 l 2,10,11
 1096 963 1096 963 1123 936 c 128,-1,0
 1150 909 1150 909 1150 863 c 128,-1,1
1150 413 m 128,-1,13
 1150 367 1150 367 1123 340 c 128,-1,14
 1096 313 1096 313 1050 313 c 2,15,-1
 150 313 l 2,16,17
 104 313 104 313 77 340 c 128,-1,18
 50 367 50 367 50 413 c 128,-1,19
 50 459 50 459 77 486 c 128,-1,20
 104 513 104 513 150 513 c 2,21,-1
 1050 513 l 2,22,23
 1096 513 1096 513 1123 486 c 128,-1,12
 1150 459 1150 459 1150 413 c 128,-1,13
EndSplineSet
EndChar

StartChar: greater
Encoding: 62 62 33
Width: 1200
Flags: W
LayerCount: 2
Fore
SplineSet
1151 638 m 0,0,1
 1151 576.674047047 1151 576.674047047 1082.26637818 541.682385028 c 2,2,-1
 195.180339887 97.639320225 l 2,3,4
 183.790883196 91.944591879 183.790883196 91.944591879 171.901023454 88.9722959395 c 128,-1,5
 160.011163712 86 160.011163712 86 148 86 c 0,6,7
 105.831367738 86 105.831367738 86 76.8791166069 118.31879196 c 0,8,9
 49 149.439666312 49 149.439666312 49 190 c 0,10,11
 49 248.12683236 49 248.12683236 104.608729074 277.255214256 c 2,12,-1
 826.039825997 637.970762717 l 1,13,-1
 104.62030058 997.738724479 l 2,14,15
 49 1026.87316764 49 1026.87316764 49 1085 c 0,16,17
 49 1094.96967061 49 1094.96967061 50.8216193072 1104.63226122 c 128,-1,18
 52.6432386143 1114.29485184 52.6432386143 1114.29485184 56.1794608413 1123.31938176 c 128,-1,19
 59.7156830683 1132.34391168 59.7156830683 1132.34391168 64.9187355427 1140.74102762 c 128,-1,20
 70.1217880171 1149.13814357 70.1217880171 1149.13814357 76.8791166069 1156.68120804 c 0,21,22
 90.8552419647 1172.28246425 90.8552419647 1172.28246425 109.140665062 1180.64123213 c 128,-1,23
 127.42608816 1189 127.42608816 1189 148 1189 c 0,24,25
 160.016966569 1189 160.016966569 1189 171.901742492 1186.02879384 c 128,-1,26
 183.786518415 1183.05758767 183.786518415 1183.05758767 195.190420211 1177.35563677 c 2,27,-1
 1082.26637818 733.317614972 l 2,28,29
 1114.5412785 716.886756624 1114.5412785 716.886756624 1132.77063925 692.703445894 c 128,-1,30
 1151 668.520135163 1151 668.520135163 1151 638 c 0,0,1
EndSplineSet
EndChar

StartChar: question
Encoding: 63 63 34
Width: 1200
Flags: W
LayerCount: 2
Fore
SplineSet
1150 1125 m 0,0,1
 1150 1061.40188977 1150 1061.40188977 1127.90360086 1005.61429422 c 128,-1,2
 1105.80720172 949.826698672 1105.80720172 949.826698672 1062.88233704 903.34402915 c 128,-1,3
 1019.95747236 856.861359628 1019.95747236 856.861359628 956.718232803 819.476836795 c 0,4,5
 796.834355151 725 796.834355151 725 600 725 c 0,6,7
 557.368652213 725 557.368652213 725 523.943203846 717.214202341 c 128,-1,8
 490.51775548 709.428404682 490.51775548 709.428404682 467.204740383 694.997116426 c 128,-1,9
 443.891725286 680.56582817 443.891725286 680.56582817 428.126395934 659.170024049 c 0,10,11
 424.709216206 654.53242299 424.709216206 654.53242299 422.601461639 650.275321735 c 128,-1,12
 420.493707071 646.018220481 420.493707071 646.018220481 419.746853535 642.948054566 c 128,-1,13
 419 639.877888651 419 639.877888651 419 637 c 0,14,15
 419 623.355339059 419 623.355339059 439.751944141 602.603394919 c 0,16,17
 491.478615811 550 491.478615811 550 600 550 c 0,18,19
 609.492592277 550 609.492592277 550 620.876301084 551.293182187 c 128,-1,20
 632.260009891 552.586364374 632.260009891 552.586364374 646.006208514 555.319806429 c 128,-1,21
 659.752407137 558.053248483 659.752407137 558.053248483 675.027450129 562.147589904 c 0,22,23
 702.87389344 569.611585018 702.87389344 569.611585018 718.039519147 572.805792509 c 128,-1,24
 733.205144854 576 733.205144854 576 744 576 c 0,25,26
 750.710357901 576 750.710357901 576 757.269180236 575.056002357 c 128,-1,27
 763.828002571 574.112004714 763.828002571 574.112004714 770.037383862 572.277491534 c 128,-1,28
 776.246765153 570.442978354 776.246765153 570.442978354 782.179331982 567.741050878 c 128,-1,29
 788.11189881 565.039123401 788.11189881 565.039123401 793.621767624 561.527029058 c 128,-1,30
 799.131636437 558.014934714 799.131636437 558.014934714 804.235943763 553.7117584 c 128,-1,31
 809.340251089 549.408582085 809.340251089 549.408582085 813.945135301 544.375336552 c 0,32,33
 823.02793756 534.447622454 823.02793756 534.447622454 829.286366489 523.010101062 c 128,-1,34
 835.544795418 511.57257967 835.544795418 511.57257967 838.772397709 498.935264575 c 128,-1,35
 842 486.29794948 842 486.29794948 842 473 c 0,36,37
 842 350 842 350 600 350 c 0,38,39
 554.22404931 350 554.22404931 350 511.358986195 357.503083571 c 128,-1,40
 468.49392308 365.006167142 468.49392308 365.006167142 428.519279143 380.081332813 c 128,-1,41
 388.544635205 395.156498484 388.544635205 395.156498484 351.863270797 417.729645813 c 0,42,43
 308.614644635 444.5366455 308.614644635 444.5366455 279.096730576 477.960161916 c 128,-1,44
 249.578816517 511.383678332 249.578816517 511.383678332 234.289408259 551.483996138 c 128,-1,45
 219 591.584313944 219 591.584313944 219 637 c 0,46,47
 219 682.716836581 219 682.716836581 234.272526094 723.024955584 c 128,-1,48
 249.545052188 763.333074586 249.545052188 763.333074586 279.069792045 796.891981258 c 128,-1,49
 308.594531902 830.45088793 308.594531902 830.45088793 351.863270797 857.270354187 c 0,50,51
 388.544703453 879.843543514 388.544703453 879.843543514 428.5193248 894.918705357 c 128,-1,52
 468.493946147 909.9938672 468.493946147 909.9938672 511.358967217 917.4969336 c 128,-1,53
 554.223988286 925 554.223988286 925 600 925 c 0,54,55
 833.930502104 925 833.930502104 925 924.484115243 1055.28632094 c 0,56,57
 937.625268022 1074.12197326 937.625268022 1074.12197326 943.812634011 1091.44596943 c 128,-1,58
 950 1108.76996559 950 1108.76996559 950 1125 c 0,59,60
 950 1158.1409109 950 1158.1409109 924.484115243 1194.71367906 c 0,61,62
 833.930502104 1325 833.930502104 1325 600 1325 c 128,-1,63
 366.069497896 1325 366.069497896 1325 275.515884757 1194.71367906 c 0,64,65
 262.374731978 1175.87802674 262.374731978 1175.87802674 256.187365989 1158.55403057 c 128,-1,66
 250 1141.23003441 250 1141.23003441 250 1125 c 0,67,68
 250 1079 250 1079 223 1052 c 128,-1,69
 196 1025 196 1025 150 1025 c 128,-1,70
 104 1025 104 1025 77 1052 c 128,-1,71
 50 1079 50 1079 50 1125 c 0,72,73
 50 1316.262671 50 1316.262671 243.281767197 1430.52316321 c 0,74,75
 403.165644849 1525 403.165644849 1525 600 1525 c 0,76,77
 665.380584864 1525 665.380584864 1525 726.864797044 1514.51345418 c 128,-1,78
 788.349009223 1504.02690836 788.349009223 1504.02690836 845.904456683 1483.01045082 c 128,-1,79
 903.459904144 1461.99399327 903.459904144 1461.99399327 956.722238383 1430.52079577 c 0,80,81
 1150 1316.2626715 1150 1316.2626715 1150 1125 c 0,0,1
739 114 m 0,82,83
 739 56.6446609407 739 56.6446609407 698.17766953 15.8223304703 c 128,-1,84
 657.355339059 -25 657.355339059 -25 600 -25 c 128,-1,85
 542.644660941 -25 542.644660941 -25 501.82233047 15.8223304703 c 128,-1,86
 461 56.6446609407 461 56.6446609407 461 114 c 0,87,88
 461 171.692266821 461 171.692266821 502.231690142 211.077761882 c 0,89,90
 542.978408172 250 542.978408172 250 600 250 c 128,-1,91
 657.021591828 250 657.021591828 250 697.768309858 211.077761882 c 0,92,93
 739 171.692266821 739 171.692266821 739 114 c 0,82,83
EndSplineSet
EndChar

StartChar: at
Encoding: 64 64 35
Width: 1200
Flags: W
LayerCount: 2
Fore
SplineSet
1150 925 m 0,0,1
 1150 850.337246981 1150 850.337246981 1136.38795938 780.865286245 c 128,-1,2
 1122.77591877 711.39332551 1122.77591877 711.39332551 1095.52406538 647.239168785 c 128,-1,3
 1068.27221198 583.085012061 1068.27221198 583.085012061 1027.49607054 524.685284065 c 0,4,5
 888.033332466 325 888.033332466 325 667 325 c 0,6,7
 508.2260698 325 508.2260698 325 406.687024923 465.426338659 c 0,8,9
 318 590.010492718 318 590.010492718 318 750 c 128,-1,10
 318 909.989507282 318 909.989507282 406.687024923 1034.57366134 c 0,11,12
 508.2260698 1175 508.2260698 1175 667 1175 c 0,13,14
 707.433461242 1175 707.433461242 1175 745.080580896 1164.9442677 c 128,-1,15
 782.727700549 1154.88853539 782.727700549 1154.88853539 816.840573908 1135.10582323 c 128,-1,16
 850.953447266 1115.32311108 850.953447266 1115.32311108 881.282209542 1086.06477571 c 0,17,18
 890.018701491 1077.77630898 890.018701491 1077.77630898 898.489821604 1068.6223835 c 128,-1,19
 906.960941717 1059.46845802 906.960941717 1059.46845802 914.774298781 1049.91240635 c 128,-1,20
 922.587655845 1040.35635468 922.587655845 1040.35635468 929.767418535 1030.43775129 c 128,-1,21
 936.947181226 1020.51914791 936.947181226 1020.51914791 943.287989331 1010.50749921 c 1,22,23
 927.773095565 1106.33715474 927.773095565 1106.33715474 876.640982722 1190.00788484 c 0,24,25
 794.91106266 1325 794.91106266 1325 667 1325 c 0,26,27
 536.227085647 1325 536.227085647 1325 428.500017855 1219.14644643 c 0,28,29
 380.192097936 1171.79511898 380.192097936 1171.79511898 344.533062581 1113.16222704 c 128,-1,30
 308.874027225 1054.52933509 308.874027225 1054.52933509 285.764251119 984.237099431 c 0,31,32
 250 874.044541929 250 874.044541929 250 750 c 128,-1,33
 250 625.955458071 250 625.955458071 285.764251119 515.762900569 c 0,34,35
 308.879267388 445.454726085 308.879267388 445.454726085 344.531338857 386.834048142 c 128,-1,36
 380.183410327 328.213370199 380.183410327 328.213370199 428.521928138 280.83205076 c 0,37,38
 464.909832471 245.076979546 464.909832471 245.076979546 503.497967446 221.539363528 c 128,-1,39
 542.086102421 198.00174751 542.086102421 198.00174751 582.732599646 186.500873755 c 128,-1,40
 623.379096871 175 623.379096871 175 667 175 c 0,41,42
 794.591171265 175 794.591171265 175 903.061825779 277.44415387 c 0,43,44
 911.89789692 287.316751822 911.89789692 287.316751822 924.766243123 301.640958935 c 128,-1,45
 937.634589325 315.965166048 937.634589325 315.965166048 955.432525441 335.740650621 c 0,46,47
 990.892582945 375 990.892582945 375 1031 375 c 0,48,49
 1072.19822402 375 1072.19822402 375 1102.98657619 344.86671915 c 0,50,51
 1134 314.51315542 1134 314.51315542 1134 274 c 0,52,53
 1134 243.159607106 1134 243.159607106 1113.41414531 213.567440985 c 0,54,55
 1035.94323019 105.73630237 1035.94323019 105.73630237 917.976572616 42.0551863371 c 0,56,57
 796.43904738 -25 796.43904738 -25 667 -25 c 0,58,59
 384.871078682 -25 384.871078682 -25 206.401671787 233.832824035 c 0,60,61
 50 461.232623146 50 461.232623146 50 750 c 128,-1,62
 50 1038.76734636 50 1038.76734636 206.418342965 1266.19138449 c 0,63,64
 384.871057693 1525 384.871057693 1525 667 1525 c 0,65,66
 888.033332223 1525 888.033332223 1525 1027.49787791 1325.31212777 c 0,67,68
 1150 1149.86417325 1150 1149.86417325 1150 925 c 0,0,1
816 750 m 128,-1,70
 816 830.341686636 816 830.341686636 776.287580717 899.607534222 c 0,71,72
 733.450952434 975 733.450952434 975 667 975 c 0,73,74
 633.655493196 975 633.655493196 975 606.884113697 957.016044237 c 128,-1,75
 580.112734199 939.032088475 580.112734199 939.032088475 557.712419283 899.607534222 c 0,76,77
 537.750738401 864.790648964 537.750738401 864.790648964 527.875369201 827.588582596 c 128,-1,78
 518 790.386516229 518 790.386516229 518 750 c 0,79,80
 518 669.658313364 518 669.658313364 557.712419283 600.392465778 c 0,81,82
 600.549047566 525 600.549047566 525 667 525 c 128,-1,83
 733.450952434 525 733.450952434 525 776.287580717 600.392465778 c 0,84,69
 816 669.658313364 816 669.658313364 816 750 c 128,-1,70
EndSplineSet
EndChar

StartChar: A
Encoding: 65 65 36
Width: 1200
Flags: W
LayerCount: 2
Fore
SplineSet
1151 72 m 0,0,1
 1151 27 1151 27 1123 1 c 128,-1,2
 1095 -25 1095 -25 1048 -25 c 0,3,4
 1014.65031804 -25 1014.65031804 -25 990.321354136 -7.01705610769 c 128,-1,5
 965.992390237 10.9658877846 965.992390237 10.9658877846 955.282917549 43.0943058496 c 2,6,-1
 827.981019499 425 l 1,7,-1
 372.018980501 425 l 1,8,-1
 244.717082451 43.0943058496 l 2,9,10
 224.265725498 -18.2597650116 224.265725498 -18.2597650116 163.31420619 -24.4368586293 c 0,11,12
 157.231009269 -24.9544240278 157.231009269 -24.9544240278 152 -25 c 0,13,14
 105 -25 105 -25 77 0.5 c 128,-1,15
 49 26 49 26 49 72 c 0,16,17
 49 89.3303437366 49 89.3303437366 55.3670111619 107.15797499 c 2,18,-1
 501.282917549 1444.90569415 l 2,19,20
 513.750444191 1482.30827408 513.750444191 1482.30827408 539.126587787 1503.65413704 c 128,-1,21
 564.502731383 1525 564.502731383 1525 600 1525 c 128,-1,22
 635.405952226 1525 635.405952226 1525 660.832191089 1503.64082582 c 128,-1,23
 686.258429952 1482.28165165 686.258429952 1482.28165165 698.717082451 1444.90569415 c 2,24,-1
 1144.63298884 107.15797499 l 2,25,26
 1151 89.3303437366 1151 89.3303437366 1151 72 c 0,0,1
761.314352832 625 m 1,27,-1
 600 1108.9430585 l 1,28,-1
 438.685647168 625 l 1,29,-1
 761.314352832 625 l 1,27,-1
EndSplineSet
EndChar

StartChar: B
Encoding: 66 66 37
Width: 1200
Flags: W
LayerCount: 2
Fore
SplineSet
1150 449 m 0,0,1
 1150 252.644660941 1150 252.644660941 1010.67766953 113.32233047 c 128,-1,2
 871.355339059 -26 871.355339059 -26 673.970518909 -26 c 2,3,-1
 249.970518909 -25 l 2,4,5
 209.644660941 -25 209.644660941 -25 179.82233047 4.82233047034 c 0,6,7
 170.258741817 14.3859191234 170.258741817 14.3859191234 163.614538506 25.5472738332 c 128,-1,8
 156.970335196 36.708628543 156.970335196 36.708628543 153.485167598 49.2481241178 c 128,-1,9
 150 61.7876196927 150 61.7876196927 150 75 c 2,10,-1
 150 1425 l 2,11,12
 150 1432.94180763 150 1432.94180763 151.26826409 1440.68286543 c 128,-1,13
 152.53652818 1448.42392324 152.53652818 1448.42392324 155.002488173 1455.71539495 c 128,-1,14
 157.468448166 1463.00686666 157.468448166 1463.00686666 161.079410238 1469.89137797 c 128,-1,15
 164.690372311 1476.77588928 164.690372311 1476.77588928 169.393778341 1483.11420636 c 128,-1,16
 174.09718437 1489.45252343 174.09718437 1489.45252343 179.82233047 1495.17766953 c 0,17,18
 189.385919123 1504.74125818 189.385919123 1504.74125818 200.547273833 1511.38546149 c 128,-1,19
 211.708628543 1518.0296648 211.708628543 1518.0296648 224.248124118 1521.5148324 c 128,-1,20
 236.787619693 1525 236.787619693 1525 250 1525 c 2,21,-1
 675 1525 l 2,22,23
 840.355339059 1525 840.355339059 1525 957.67766953 1407.67766953 c 128,-1,24
 1075 1290.35533906 1075 1290.35533906 1075 1125 c 0,25,26
 1075 951.475236948 1075 951.475236948 952.212307612 835.842798577 c 1,27,28
 1150 697.170478073 1150 697.170478073 1150 449 c 0,0,1
875 1125 m 0,29,30
 875 1207.64466094 875 1207.64466094 816.32233047 1266.32233047 c 128,-1,31
 757.644660941 1325 757.644660941 1325 675 1325 c 2,32,-1
 350 1325 l 1,33,-1
 350 925 l 1,34,-1
 675 925 l 2,35,36
 757.644660941 925 757.644660941 925 816.32233047 983.67766953 c 0,37,38
 836.166680396 1003.52201946 836.166680396 1003.52201946 849.165329549 1025.57252227 c 128,-1,39
 862.163978701 1047.62302509 862.163978701 1047.62302509 868.581989351 1072.34477698 c 128,-1,40
 875 1097.06652887 875 1097.06652887 875 1125 c 0,29,30
950 449 m 0,41,42
 950 506.350725676 950 506.350725676 930.009932018 554.622072163 c 128,-1,43
 910.019864036 602.893418651 910.019864036 602.893418651 869.272323219 643.872479585 c 128,-1,44
 828.546861641 684.829335832 828.546861641 684.829335832 780.432960192 704.914667916 c 128,-1,45
 732.319058742 725 732.319058742 725 675 725 c 2,46,-1
 350 725 l 1,47,-1
 350 174.928673469 l 1,48,-1
 675.035714213 174 l 2,49,50
 788.644660941 174 788.644660941 174 869.32233047 254.67766953 c 128,-1,51
 950 335.355339059 950 335.355339059 950 449 c 0,41,42
EndSplineSet
EndChar

StartChar: C
Encoding: 67 67 38
Width: 1200
Flags: W
LayerCount: 2
Fore
SplineSet
1151 273 m 0,0,1
 1151 257.517509006 1151 257.517509006 1145.49719547 242.319017749 c 128,-1,2
 1139.99439093 227.120526492 1139.99439093 227.120526492 1129.57792471 211.802193816 c 0,3,4
 1056.01110416 106.706735882 1056.01110416 106.706735882 931.15891263 40.8850784245 c 128,-1,5
 806.186422602 -25 806.186422602 -25 677 -25 c 0,6,7
 393.104097831 -25 393.104097831 -25 210.602195628 231.545531096 c 0,8,9
 50 459.065308236 50 459.065308236 50 750 c 128,-1,10
 50 1040.93469176 50 1040.93469176 210.602195628 1268.4544689 c 0,11,12
 393.104097831 1525 393.104097831 1525 677 1525 c 0,13,14
 806.186422602 1525 806.186422602 1525 931.15891263 1459.11492158 c 128,-1,15
 1056.01110416 1393.29326412 1056.01110416 1393.29326412 1129.57792471 1288.19780618 c 0,16,17
 1151 1256.69475429 1151 1256.69475429 1151 1227 c 0,18,19
 1151 1186.48684458 1151 1186.48684458 1119.98657619 1156.13328085 c 0,20,21
 1089.19822402 1126 1089.19822402 1126 1048 1126 c 0,22,23
 1033.28053315 1126 1033.28053315 1126 1018.69898913 1131.9407384 c 128,-1,24
 1004.1174451 1137.8814768 1004.1174451 1137.8814768 988.189410804 1149.00104791 c 0,25,26
 982.60119411 1152.90225579 982.60119411 1152.90225579 977.804083361 1156.7735138 c 128,-1,27
 973.006972612 1160.64477181 973.006972612 1160.64477181 968.575221837 1164.92668679 c 128,-1,28
 964.143471062 1169.20860176 964.143471062 1169.20860176 960.552061711 1173.56712442 c 128,-1,29
 956.96065236 1177.92564707 956.96065236 1177.92564707 953.972460059 1182.74641445 c 128,-1,30
 950.984267759 1187.56718182 950.984267759 1187.56718182 948.885652362 1192.57111442 c 0,31,32
 947.667618442 1193.93493618 947.667618442 1193.93493618 945.971492599 1195.78117184 c 128,-1,33
 944.275366756 1197.62740749 944.275366756 1197.62740749 942.161805861 1199.8907207 c 128,-1,34
 940.048244965 1202.15403391 940.048244965 1202.15403391 937.515172055 1204.8364149 c 128,-1,35
 934.982099146 1207.5187959 934.982099146 1207.5187959 932.106781187 1210.53787975 c 0,36,37
 817.644660941 1325 817.644660941 1325 677 1325 c 0,38,39
 547.769434741 1325 547.769434741 1325 438.90157173 1224.57878153 c 0,40,41
 340.454407209 1134.73379644 340.454407209 1134.73379644 291.54097888 997.584379749 c 0,42,43
 250 881.656066595 250 881.656066595 250 750 c 128,-1,44
 250 618.343933405 250 618.343933405 291.54097888 502.415620251 c 0,45,46
 340.476069845 365.205463231 340.476069845 365.205463231 437.950421937 275.376158362 c 0,47,48
 492.909234019 224.681392045 492.909234019 224.681392045 552.339581629 199.840696023 c 128,-1,49
 611.769929238 175 611.769929238 175 677 175 c 0,50,51
 816.704384332 175 816.704384332 175 932.394630873 289.749675431 c 1,52,-1
 934.651484662 291.733805434 l 2,53,54
 936.838259542 293.434630341 936.838259542 293.434630341 940.414457879 297.044697001 c 128,-1,55
 943.990656216 300.65476366 943.990656216 300.65476366 947.758692252 305.083858649 c 0,56,57
 952.383895159 319.415473292 952.383895159 319.415473292 961.6361427 328.932854852 c 128,-1,58
 970.888390241 338.450236413 970.888390241 338.450236413 987.471042403 349.692712455 c 0,59,60
 1023.32429153 374 1023.32429153 374 1048 374 c 0,61,62
 1089.19822402 374 1089.19822402 374 1119.98657619 343.86671915 c 0,63,64
 1151 313.51315542 1151 313.51315542 1151 273 c 0,0,1
EndSplineSet
EndChar

StartChar: D
Encoding: 68 68 39
Width: 1200
Flags: W
LayerCount: 2
Fore
SplineSet
1150 750 m 0,0,1
 1150 429.644660941 1150 429.644660941 922.67766953 202.32233047 c 128,-1,2
 695.355339059 -25 695.355339059 -25 375 -25 c 2,3,-1
 250 -25 l 2,4,5
 240.081402184 -25 240.081402184 -25 230.497942811 -23.0246916761 c 128,-1,6
 220.914483439 -21.0493833522 220.914483439 -21.0493833522 212.071832008 -17.2445571201 c 128,-1,7
 203.229180578 -13.4397308881 203.229180578 -13.4397308881 195.106251066 -7.88919575082 c 128,-1,8
 186.983321554 -2.33866061358 186.983321554 -2.33866061358 179.82233047 4.82233047034 c 0,9,10
 170.258741817 14.3859191234 170.258741817 14.3859191234 163.614538506 25.5472738332 c 128,-1,11
 156.970335196 36.708628543 156.970335196 36.708628543 153.485167598 49.2481241178 c 128,-1,12
 150 61.7876196927 150 61.7876196927 150 75 c 2,13,-1
 150 1425 l 2,14,15
 150 1432.94180763 150 1432.94180763 151.26826409 1440.68286543 c 128,-1,16
 152.53652818 1448.42392324 152.53652818 1448.42392324 155.002488173 1455.71539495 c 128,-1,17
 157.468448166 1463.00686666 157.468448166 1463.00686666 161.079410238 1469.89137797 c 128,-1,18
 164.690372311 1476.77588928 164.690372311 1476.77588928 169.393778341 1483.11420636 c 128,-1,19
 174.09718437 1489.45252343 174.09718437 1489.45252343 179.82233047 1495.17766953 c 0,20,21
 189.385919123 1504.74125818 189.385919123 1504.74125818 200.547273833 1511.38546149 c 128,-1,22
 211.708628543 1518.0296648 211.708628543 1518.0296648 224.248124118 1521.5148324 c 128,-1,23
 236.787619693 1525 236.787619693 1525 250 1525 c 2,24,-1
 375 1525 l 2,25,26
 695.355339059 1525 695.355339059 1525 922.67766953 1297.67766953 c 0,27,28
 1035.95608901 1184.39925005 1035.95608901 1184.39925005 1092.97804451 1047.02810712 c 128,-1,29
 1150 909.656964199 1150 909.656964199 1150 750 c 0,0,1
950 750 m 128,-1,31
 950 987.644660941 950 987.644660941 781.32233047 1156.32233047 c 128,-1,32
 612.644660941 1325 612.644660941 1325 375 1325 c 2,33,-1
 350 1325 l 1,34,-1
 350 175 l 1,35,-1
 375 175 l 2,36,37
 612.644660941 175 612.644660941 175 781.32233047 343.67766953 c 128,-1,30
 950 512.355339059 950 512.355339059 950 750 c 128,-1,31
EndSplineSet
EndChar

StartChar: E
Encoding: 69 69 40
Width: 1200
Flags: W
LayerCount: 2
Fore
SplineSet
1150 75 m 128,-1,1
 1150 29 1150 29 1123 2 c 128,-1,2
 1096 -25 1096 -25 1050 -25 c 2,3,-1
 250 -25 l 2,4,5
 240.081402184 -25 240.081402184 -25 230.497942811 -23.0246916761 c 128,-1,6
 220.914483439 -21.0493833522 220.914483439 -21.0493833522 212.071832008 -17.2445571201 c 128,-1,7
 203.229180578 -13.4397308881 203.229180578 -13.4397308881 195.106251066 -7.88919575082 c 128,-1,8
 186.983321554 -2.33866061358 186.983321554 -2.33866061358 179.82233047 4.82233047034 c 0,9,10
 170.258741817 14.3859191234 170.258741817 14.3859191234 163.614538506 25.5472738332 c 128,-1,11
 156.970335196 36.708628543 156.970335196 36.708628543 153.485167598 49.2481241178 c 128,-1,12
 150 61.7876196927 150 61.7876196927 150 75 c 2,13,-1
 150 1425 l 2,14,15
 150 1432.94180763 150 1432.94180763 151.26826409 1440.68286543 c 128,-1,16
 152.53652818 1448.42392324 152.53652818 1448.42392324 155.002488173 1455.71539495 c 128,-1,17
 157.468448166 1463.00686666 157.468448166 1463.00686666 161.079410238 1469.89137797 c 128,-1,18
 164.690372311 1476.77588928 164.690372311 1476.77588928 169.393778341 1483.11420636 c 128,-1,19
 174.09718437 1489.45252343 174.09718437 1489.45252343 179.82233047 1495.17766953 c 0,20,21
 189.385919123 1504.74125818 189.385919123 1504.74125818 200.547273833 1511.38546149 c 128,-1,22
 211.708628543 1518.0296648 211.708628543 1518.0296648 224.248124118 1521.5148324 c 128,-1,23
 236.787619693 1525 236.787619693 1525 250 1525 c 2,24,-1
 1050 1525 l 2,25,26
 1096 1525 1096 1525 1123 1498 c 128,-1,27
 1150 1471 1150 1471 1150 1425 c 128,-1,28
 1150 1379 1150 1379 1123 1352 c 128,-1,29
 1096 1325 1096 1325 1050 1325 c 2,30,-1
 350 1325 l 1,31,-1
 350 850 l 1,32,-1
 1050 850 l 2,33,34
 1096 850 1096 850 1123 823 c 128,-1,35
 1150 796 1150 796 1150 750 c 128,-1,36
 1150 704 1150 704 1123 677 c 128,-1,37
 1096 650 1096 650 1050 650 c 2,38,-1
 350 650 l 1,39,-1
 350 175 l 1,40,-1
 1050 175 l 2,41,42
 1096 175 1096 175 1123 148 c 128,-1,0
 1150 121 1150 121 1150 75 c 128,-1,1
EndSplineSet
EndChar

StartChar: F
Encoding: 70 70 41
Width: 1200
Flags: W
LayerCount: 2
Fore
SplineSet
1150 750 m 128,-1,1
 1150 704 1150 704 1123 677 c 128,-1,2
 1096 650 1096 650 1050 650 c 2,3,-1
 350 650 l 1,4,-1
 350 75 l 2,5,6
 350 29 350 29 323 2 c 128,-1,7
 296 -25 296 -25 250 -25 c 128,-1,8
 204 -25 204 -25 177 2 c 128,-1,9
 150 29 150 29 150 75 c 2,10,-1
 150 1426 l 2,11,12
 150 1472 150 1472 176.5 1498.5 c 128,-1,13
 203 1525 203 1525 249 1525 c 2,14,-1
 1050 1525 l 2,15,16
 1096 1525 1096 1525 1123 1498 c 128,-1,17
 1150 1471 1150 1471 1150 1425 c 128,-1,18
 1150 1379 1150 1379 1123 1352 c 128,-1,19
 1096 1325 1096 1325 1050 1325 c 2,20,-1
 350 1325 l 1,21,-1
 350 850 l 1,22,-1
 1050 850 l 2,23,24
 1096 850 1096 850 1123 823 c 128,-1,0
 1150 796 1150 796 1150 750 c 128,-1,1
EndSplineSet
EndChar

StartChar: G
Encoding: 71 71 42
Width: 1200
Flags: W
LayerCount: 2
Fore
SplineSet
1101 1227 m 0,0,1
 1101 1186.48684458 1101 1186.48684458 1069.98657619 1156.13328085 c 0,2,3
 1039.19822402 1126 1039.19822402 1126 998 1126 c 0,4,5
 976.556248573 1126 976.556248573 1126 957.284931191 1136.65267459 c 128,-1,6
 938.013613809 1147.30534917 938.013613809 1147.30534917 920.88499584 1166.88091257 c 0,7,8
 907.984063539 1182.75898309 907.984063539 1182.75898309 879.521960031 1216.13989849 c 0,9,10
 773.02274101 1325 773.02274101 1325 648 1325 c 0,11,12
 627.158184413 1325 627.158184413 1325 607.057167538 1322.11205635 c 128,-1,13
 586.956150664 1319.22411271 586.956150664 1319.22411271 567.342784201 1313.38227242 c 128,-1,14
 547.729417737 1307.54043212 547.729417737 1307.54043212 528.724172808 1298.67737961 c 128,-1,15
 509.718927878 1289.8143271 509.718927878 1289.8143271 491.195314078 1277.89963255 c 128,-1,16
 472.671700277 1265.984938 472.671700277 1265.984938 454.615086971 1250.91339444 c 128,-1,17
 436.558473666 1235.84185089 436.558473666 1235.84185089 418.969028347 1217.61855168 c 0,18,19
 328.08858531 1123.86819992 328.08858531 1123.86819992 284.85083649 985.507403696 c 0,20,21
 250 875.146421478 250 875.146421478 250 750 c 128,-1,22
 250 624.853578522 250 624.853578522 284.85083649 514.492596304 c 0,23,24
 295.722773653 479.70239738 295.722773653 479.70239738 309.538454536 447.835962381 c 128,-1,25
 323.354135418 415.969527382 323.354135418 415.969527382 340.124184457 386.998137498 c 128,-1,26
 356.894233496 358.026747613 356.894233496 358.026747613 376.579541987 331.914673918 c 128,-1,27
 396.264850477 305.802600223 396.264850477 305.802600223 418.969028347 282.381448315 c 0,28,29
 522.615469765 175 522.615469765 175 648 175 c 0,30,31
 789.214137855 175 789.214137855 175 900 306.969410726 c 1,32,-1
 900 750 l 2,33,34
 900 796 900 796 927 823 c 128,-1,35
 954 850 954 850 1000 850 c 128,-1,36
 1046 850 1046 850 1073 823 c 128,-1,37
 1100 796 1100 796 1100 750 c 2,38,-1
 1100 272 l 2,39,40
 1100 154.116270477 1100 154.116270477 920.875156719 57.0003915903 c 0,41,42
 767.955128332 -24.6986422028 767.955128332 -24.6986422028 648 -25 c 0,43,44
 371.486850244 -25 371.486850244 -25 199.105243066 238.273727326 c 0,45,46
 50 464.502371978 50 464.502371978 50 750 c 128,-1,47
 50 1035.49762802 50 1035.49762802 199.105243066 1261.72627267 c 0,48,49
 371.486850244 1525 371.486850244 1525 648 1525 c 0,50,51
 773.537646861 1525 773.537646861 1525 893.289320587 1457.77099019 c 0,52,53
 922.205126603 1441.3593165 922.205126603 1441.3593165 948.446670754 1422.36422758 c 128,-1,54
 974.688214906 1403.36913866 974.688214906 1403.36913866 998.138730709 1381.88756463 c 128,-1,55
 1021.58924651 1360.40599061 1021.58924651 1360.40599061 1042.24311932 1336.43352994 c 128,-1,56
 1062.89699213 1312.46106927 1062.89699213 1312.46106927 1080.63144574 1286.12018964 c 0,57,58
 1101 1256.84039289 1101 1256.84039289 1101 1227 c 0,0,1
EndSplineSet
EndChar

StartChar: H
Encoding: 72 72 43
Width: 1200
Flags: W
LayerCount: 2
Fore
SplineSet
1050 75 m 2,0,1
 1050 29 1050 29 1023 2 c 128,-1,2
 996 -25 996 -25 950 -25 c 128,-1,3
 904 -25 904 -25 877 2 c 128,-1,4
 850 29 850 29 850 75 c 2,5,-1
 850 650 l 1,6,-1
 350 650 l 1,7,-1
 350 75 l 2,8,9
 350 29 350 29 323 2 c 128,-1,10
 296 -25 296 -25 250 -25 c 128,-1,11
 204 -25 204 -25 177 2 c 128,-1,12
 150 29 150 29 150 75 c 2,13,-1
 150 1425 l 2,14,15
 150 1471 150 1471 177 1498 c 128,-1,16
 204 1525 204 1525 250 1525 c 128,-1,17
 296 1525 296 1525 323 1498 c 128,-1,18
 350 1471 350 1471 350 1425 c 2,19,-1
 350 850 l 1,20,-1
 850 850 l 1,21,-1
 850 1425 l 2,22,23
 850 1471 850 1471 877 1498 c 128,-1,24
 904 1525 904 1525 950 1525 c 128,-1,25
 996 1525 996 1525 1023 1498 c 128,-1,26
 1050 1471 1050 1471 1050 1425 c 2,27,-1
 1050 75 l 2,0,1
EndSplineSet
EndChar

StartChar: I
Encoding: 73 73 44
Width: 1200
Flags: W
LayerCount: 2
Fore
SplineSet
1000 75 m 128,-1,1
 1000 29 1000 29 973 2 c 128,-1,2
 946 -25 946 -25 900 -25 c 2,3,-1
 300 -25 l 2,4,5
 254 -25 254 -25 227 2 c 128,-1,6
 200 29 200 29 200 75 c 128,-1,7
 200 121 200 121 227 148 c 128,-1,8
 254 175 254 175 300 175 c 2,9,-1
 500 175 l 1,10,-1
 500 1325 l 1,11,-1
 300 1325 l 2,12,13
 254 1325 254 1325 227 1352 c 128,-1,14
 200 1379 200 1379 200 1425 c 128,-1,15
 200 1471 200 1471 227 1498 c 128,-1,16
 254 1525 254 1525 300 1525 c 2,17,-1
 900 1525 l 2,18,19
 946 1525 946 1525 973 1498 c 128,-1,20
 1000 1471 1000 1471 1000 1425 c 128,-1,21
 1000 1379 1000 1379 973 1352 c 128,-1,22
 946 1325 946 1325 900 1325 c 2,23,-1
 700 1325 l 1,24,-1
 700 175 l 1,25,-1
 900 175 l 2,26,27
 946 175 946 175 973 148 c 128,-1,0
 1000 121 1000 121 1000 75 c 128,-1,1
EndSplineSet
EndChar

StartChar: J
Encoding: 74 74 45
Width: 1200
Flags: W
LayerCount: 2
Fore
SplineSet
1050 75 m 2,0,1
 1050 -152.355339059 1050 -152.355339059 888.67766953 -313.67766953 c 128,-1,2
 727.355339059 -475 727.355339059 -475 500 -475 c 0,3,4
 380.523791294 -475 380.523791294 -475 262.609119503 -420.738381122 c 0,5,6
 137.413551608 -363.926946952 137.413551608 -363.926946952 71.4659389687 -269.260212679 c 0,7,8
 49 -236.809411947 49 -236.809411947 49 -208 c 0,9,10
 49 -166.32489684 49 -166.32489684 80.2107125218 -136.442299745 c 0,11,12
 110.961558922 -107 110.961558922 -107 152 -107 c 0,13,14
 161.954955879 -107 161.954955879 -107 171.737128807 -109.459564711 c 128,-1,15
 181.519301736 -111.919129422 181.519301736 -111.919129422 190.705177623 -116.621211606 c 128,-1,16
 199.89105351 -121.323293791 199.89105351 -121.323293791 208.432147887 -127.618001462 c 128,-1,17
 216.973242265 -133.912709134 216.973242265 -133.912709134 225.458835337 -142.105695548 c 0,18,19
 360.251629852 -275 360.251629852 -275 500 -275 c 0,20,21
 644.644660941 -275 644.644660941 -275 747.32233047 -172.32233047 c 128,-1,22
 850 -69.6446609407 850 -69.6446609407 850 75 c 2,23,-1
 850 1325 l 1,24,-1
 150 1325 l 2,25,26
 104 1325 104 1325 77 1352 c 128,-1,27
 50 1379 50 1379 50 1425 c 128,-1,28
 50 1471 50 1471 77 1498 c 128,-1,29
 104 1525 104 1525 150 1525 c 2,30,-1
 951 1525 l 2,31,32
 997 1525 997 1525 1023.5 1498.5 c 128,-1,33
 1050 1472 1050 1472 1050 1426 c 2,34,-1
 1050 75 l 2,0,1
EndSplineSet
EndChar

StartChar: K
Encoding: 75 75 46
Width: 1200
Flags: W
LayerCount: 2
Fore
SplineSet
1151 75 m 0,0,1
 1151 34.6446609407 1151 34.6446609407 1120.67766953 4.32233047034 c 128,-1,2
 1090.35533906 -26 1090.35533906 -26 1049 -26 c 0,3,4
 1028.96127289 -26 1028.96127289 -26 1010.80200276 -17.7776350293 c 128,-1,5
 992.642732622 -9.55527005852 992.642732622 -9.55527005852 977.991994663 5.65895782335 c 2,6,-1
 350 657.804490742 l 1,7,-1
 350 75 l 2,8,9
 350 29 350 29 323 2 c 128,-1,10
 296 -25 296 -25 250 -25 c 128,-1,11
 204 -25 204 -25 177 2 c 128,-1,12
 150 29 150 29 150 75 c 2,13,-1
 150 1425 l 2,14,15
 150 1471 150 1471 177 1498 c 128,-1,16
 204 1525 204 1525 250 1525 c 128,-1,17
 296 1525 296 1525 323 1498 c 128,-1,18
 350 1471 350 1471 350 1425 c 2,19,-1
 350 842.195509258 l 1,20,-1
 977.971118639 1494.31936323 l 2,21,22
 1008.33172888 1526 1008.33172888 1526 1049 1526 c 0,23,24
 1069.28815107 1526 1069.28815107 1526 1087.63634573 1518.18539934 c 128,-1,25
 1105.98454038 1510.37079868 1105.98454038 1510.37079868 1120.67766953 1495.67766953 c 128,-1,26
 1135.31197459 1481.04336447 1135.31197459 1481.04336447 1143.15598729 1462.96672188 c 128,-1,27
 1151 1444.89007929 1151 1444.89007929 1151 1425 c 0,28,29
 1151 1385.76231221 1151 1385.76231221 1122.00693556 1355.65784697 c 2,30,-1
 538.708848591 750 l 1,31,-1
 1122.03654357 144.311410049 l 2,32,33
 1151 114.03143287 1151 114.03143287 1151 75 c 0,0,1
EndSplineSet
EndChar

StartChar: L
Encoding: 76 76 47
Width: 1200
Flags: W
LayerCount: 2
Fore
SplineSet
1150 75 m 128,-1,1
 1150 29 1150 29 1123 2 c 128,-1,2
 1096 -25 1096 -25 1050 -25 c 2,3,-1
 250 -25 l 2,4,5
 204 -25 204 -25 177 1.5 c 128,-1,6
 150 28 150 28 150 74 c 2,7,-1
 150 1425 l 2,8,9
 150 1471 150 1471 177 1498 c 128,-1,10
 204 1525 204 1525 250 1525 c 128,-1,11
 296 1525 296 1525 323 1498 c 128,-1,12
 350 1471 350 1471 350 1425 c 2,13,-1
 350 175 l 1,14,-1
 1050 175 l 2,15,16
 1096 175 1096 175 1123 148 c 128,-1,0
 1150 121 1150 121 1150 75 c 128,-1,1
EndSplineSet
EndChar

StartChar: M
Encoding: 77 77 48
Width: 1200
Flags: W
LayerCount: 2
Fore
SplineSet
1150 73 m 0,0,1
 1150 27 1150 27 1122.5 1 c 128,-1,2
 1095 -25 1095 -25 1049 -25 c 0,3,4
 1008.27255373 -25 1008.27255373 -25 982.226537885 -1.81221035808 c 128,-1,5
 956.180522042 21.3755792838 956.180522042 21.3755792838 951.20252908 61.8217721 c 2,6,-1
 839.152147635 902.633936742 l 1,7,-1
 699.219077437 360.800071907 l 2,8,9
 689.113166948 320.970895274 689.113166948 320.970895274 663.390028802 297.985447637 c 128,-1,10
 637.666890656 275 637.666890656 275 600 275 c 0,11,12
 574.826645914 275 574.826645914 275 554.532680635 285.706415483 c 128,-1,13
 534.238715356 296.412830967 534.238715356 296.412830967 520.832460441 315.511335007 c 128,-1,14
 507.426205527 334.609839048 507.426205527 334.609839048 500.780922563 360.800071907 c 2,15,-1
 360.847852365 902.633936742 l 1,16,-1
 248.79747092 61.8217721 l 2,17,18
 243.819559802 21.3762442665 243.819559802 21.3762442665 217.77360966 -1.81187786676 c 128,-1,19
 191.727659518 -25 191.727659518 -25 151 -25 c 0,20,21
 105 -25 105 -25 77.5 1 c 128,-1,22
 50 27 50 27 50 73 c 0,23,24
 50 80.3987066785 50 80.3987066785 51.2990989049 88.9018995105 c 2,25,-1
 230.200484722 1429.16311951 l 2,26,27
 233.736727468 1458.2388932 233.736727468 1458.2388932 246.390814633 1479.69087608 c 128,-1,28
 259.044901798 1501.14285897 259.044901798 1501.14285897 280.503060819 1513.07142948 c 128,-1,29
 301.96121984 1525 301.96121984 1525 330 1525 c 0,30,31
 342.574653384 1525 342.574653384 1525 354.050942531 1522.346081 c 128,-1,32
 365.527231679 1519.692162 365.527231679 1519.692162 375.346625387 1514.64373787 c 128,-1,33
 385.166019094 1509.59531373 385.166019094 1509.59531373 393.632218871 1502.29289231 c 128,-1,34
 402.098418647 1494.99047089 402.098418647 1494.99047089 408.848933786 1485.68229268 c 128,-1,35
 415.599448925 1476.37411448 415.599448925 1476.37411448 420.728871071 1465.21260559 c 128,-1,36
 425.858293217 1454.05109671 425.858293217 1454.05109671 429.200172161 1441.27332428 c 2,37,-1
 600 776.467840537 l 1,38,-1
 770.799827839 1441.27332428 l 2,39,40
 777.496969319 1466.88004171 777.496969319 1466.88004171 790.603553496 1485.48299348 c 128,-1,41
 803.710137672 1504.08594525 803.710137672 1504.08594525 823.534743333 1514.54297262 c 128,-1,42
 843.359348994 1525 843.359348994 1525 868 1525 c 0,43,44
 896.512778026 1525 896.512778026 1525 918.376306977 1513.19665431 c 128,-1,45
 940.239835928 1501.39330861 940.239835928 1501.39330861 953.241013008 1479.90277318 c 128,-1,46
 966.242190089 1458.41223774 966.242190089 1458.41223774 969.799515278 1429.16311951 c 2,47,-1
 1148.7009011 88.9018995105 l 2,48,49
 1150 80.3987066785 1150 80.3987066785 1150 73 c 0,0,1
EndSplineSet
EndChar

StartChar: N
Encoding: 78 78 49
Width: 1200
Flags: W
LayerCount: 2
Fore
SplineSet
1051 74.0092524045 m 2,0,1
 1051 27.3551291996 1051 27.3551291996 1023.25739252 0.677564599783 c 128,-1,2
 995.514785048 -26 995.514785048 -26 948 -26 c 0,3,4
 889.683780821 -26 889.683780821 -26 856.769582846 38.5624652584 c 2,5,-1
 350 1014.59702283 l 1,6,-1
 350 75 l 2,7,8
 350 29 350 29 323 2 c 128,-1,9
 296 -25 296 -25 250 -25 c 0,10,11
 203.681011078 -25 203.681011078 -25 176.840508963 1.83859498087 c 128,-1,12
 150.000006849 28.6771899617 150.000006849 28.6771899617 150.000006849 74.9814951938 c 2,13,-1
 149 1426 l 2,14,15
 149 1473 149 1473 176.5 1499.5 c 128,-1,16
 204 1526 204 1526 252 1526 c 0,17,18
 310.316219179 1526 310.316219179 1526 343.230417154 1461.43753474 c 2,19,-1
 850 485.402977166 l 1,20,-1
 850 1425 l 2,21,22
 850 1471 850 1471 877 1498 c 128,-1,23
 904 1525 904 1525 950 1525 c 0,24,25
 980.644589122 1525 980.644589122 1525 1003.24862879 1512.92469183 c 128,-1,26
 1025.85266846 1500.84938367 1025.85266846 1500.84938367 1037.92633081 1478.25066373 c 128,-1,27
 1049.99999315 1455.65194379 1049.99999315 1455.65194379 1049.99999315 1425.01850481 c 2,28,-1
 1051 74.0092524045 l 2,0,1
EndSplineSet
EndChar

StartChar: O
Encoding: 79 79 50
Width: 1200
Flags: W
LayerCount: 2
Fore
SplineSet
1150 750 m 128,-1,1
 1150 474.347793876 1150 474.347793876 1020.68465224 248.559091445 c 0,2,3
 863.466783598 -25 863.466783598 -25 600 -25 c 128,-1,4
 336.533216402 -25 336.533216402 -25 179.315347756 248.559091445 c 0,5,6
 50 474.347793876 50 474.347793876 50 750 c 128,-1,7
 50 1025.65220612 50 1025.65220612 179.315347756 1251.44090856 c 0,8,9
 336.533216402 1525 336.533216402 1525 600 1525 c 128,-1,10
 863.466783598 1525 863.466783598 1525 1020.68465224 1251.44090856 c 0,11,0
 1150 1025.65220612 1150 1025.65220612 1150 750 c 128,-1,1
950 750 m 0,12,13
 950 813.847335215 950 813.847335215 941.9846607 873.597907526 c 128,-1,14
 933.969321401 933.348479836 933.969321401 933.348479836 917.968580623 989.108637091 c 0,15,16
 880.406613938 1120.09395681 880.406613938 1120.09395681 802.762233277 1214.03407169 c 0,17,18
 789.197218866 1230.31208898 789.197218866 1230.31208898 775.343030322 1244.15622051 c 128,-1,19
 761.488841777 1258.00035205 761.488841777 1258.00035205 747.471335864 1269.33836871 c 128,-1,20
 733.453829951 1280.67638537 733.453829951 1280.67638537 719.094304333 1289.67669386 c 128,-1,21
 704.734778714 1298.67700235 704.734778714 1298.67700235 690.200685709 1305.30584056 c 128,-1,22
 675.666592703 1311.93467876 675.666592703 1311.93467876 660.734861383 1316.31942192 c 128,-1,23
 645.803130063 1320.70416508 645.803130063 1320.70416508 630.685581338 1322.85208254 c 128,-1,24
 615.568032612 1325 615.568032612 1325 600 1325 c 0,25,26
 489.70937365 1325 489.70937365 1325 397.237766723 1214.03407169 c 0,27,28
 377.883664146 1190.61799697 377.883664146 1190.61799697 361.024127903 1164.91104061 c 128,-1,29
 344.164591661 1139.20408425 344.164591661 1139.20408425 329.748727085 1111.10915834 c 128,-1,30
 315.33286251 1083.01423243 315.33286251 1083.01423243 303.395968052 1052.49939667 c 128,-1,31
 291.459073594 1021.98456091 291.459073594 1021.98456091 282.030197632 989.104378071 c 0,32,33
 250 877.483992385 250 877.483992385 250 750 c 0,34,35
 250 707.415110137 250 707.415110137 253.571382706 666.623844688 c 128,-1,36
 257.142765412 625.832579238 257.142765412 625.832579238 264.255602482 586.941405615 c 128,-1,37
 271.368439553 548.050231992 271.368439553 548.050231992 282.031419377 510.891362909 c 0,38,39
 291.459448638 478.014132663 291.459448638 478.014132663 303.396109039 447.500307367 c 128,-1,40
 315.332769439 416.986482071 315.332769439 416.986482071 329.748561323 388.891642973 c 128,-1,41
 344.164353206 360.796803875 344.164353206 360.796803875 361.024181637 335.089194193 c 128,-1,42
 377.884010068 309.381584512 377.884010068 309.381584512 397.237766723 285.965928312 c 0,43,44
 489.70937365 175 489.70937365 175 600 175 c 128,-1,45
 710.29062635 175 710.29062635 175 802.762233277 285.965928312 c 0,46,47
 841.513321805 332.849961346 841.513321805 332.849961346 870.324193935 389.032738595 c 128,-1,48
 899.135066065 445.215515844 899.135066065 445.215515844 917.969802368 510.895621929 c 0,49,50
 950 622.516007615 950 622.516007615 950 750 c 0,12,13
EndSplineSet
EndChar

StartChar: P
Encoding: 80 80 51
Width: 1200
Flags: W
LayerCount: 2
Fore
SplineSet
1150 1050 m 0,0,1
 1150 853.644660941 1150 853.644660941 1010.67766953 714.32233047 c 128,-1,2
 871.355339059 575 871.355339059 575 675 575 c 2,3,-1
 350 575 l 1,4,-1
 350 75 l 2,5,6
 350 29 350 29 323 2 c 128,-1,7
 296 -25 296 -25 250 -25 c 128,-1,8
 204 -25 204 -25 177 2 c 128,-1,9
 150 29 150 29 150 75 c 2,10,-1
 150 1425 l 2,11,12
 150 1432.94180763 150 1432.94180763 151.26826409 1440.68286543 c 128,-1,13
 152.53652818 1448.42392324 152.53652818 1448.42392324 155.002488173 1455.71539495 c 128,-1,14
 157.468448166 1463.00686666 157.468448166 1463.00686666 161.079410238 1469.89137797 c 128,-1,15
 164.690372311 1476.77588928 164.690372311 1476.77588928 169.393778341 1483.11420636 c 128,-1,16
 174.09718437 1489.45252343 174.09718437 1489.45252343 179.82233047 1495.17766953 c 0,17,18
 189.385919123 1504.74125818 189.385919123 1504.74125818 200.547273833 1511.38546149 c 128,-1,19
 211.708628543 1518.0296648 211.708628543 1518.0296648 224.248124118 1521.5148324 c 128,-1,20
 236.787619693 1525 236.787619693 1525 250 1525 c 2,21,-1
 675 1525 l 2,22,23
 871.355339059 1525 871.355339059 1525 1010.67766953 1385.67766953 c 0,24,25
 1079.95610987 1316.39922919 1079.95610987 1316.39922919 1114.97805494 1232.0281152 c 128,-1,26
 1150 1147.65700121 1150 1147.65700121 1150 1050 c 0,0,1
950 1050 m 128,-1,28
 950 1163.64466094 950 1163.64466094 869.32233047 1244.32233047 c 128,-1,29
 788.644660941 1325 788.644660941 1325 675 1325 c 2,30,-1
 350 1325 l 1,31,-1
 350 775 l 1,32,-1
 675 775 l 2,33,34
 788.644660941 775 788.644660941 775 869.32233047 855.67766953 c 128,-1,27
 950 936.355339059 950 936.355339059 950 1050 c 128,-1,28
EndSplineSet
EndChar

StartChar: Q
Encoding: 81 81 52
Width: 1200
Flags: W
LayerCount: 2
Fore
SplineSet
1150 -375 m 128,-1,1
 1150 -421 1150 -421 1123 -448 c 128,-1,2
 1096 -475 1096 -475 1050 -475 c 0,3,4
 863.220810887 -475 863.220810887 -475 720.803832342 -324.143496801 c 0,5,6
 664.222815885 -264.088207403 664.222815885 -264.088207403 621.317388275 -188.498335686 c 128,-1,7
 578.411960665 -112.908463969 578.411960665 -112.908463969 549.090025648 -22.2501632037 c 1,8,9
 312.412205781 5.55209587175 312.412205781 5.55209587175 171.072933447 262.991484765 c 0,10,11
 50 484.616515482 50 484.616515482 50 750 c 0,12,13
 50 1025.65220612 50 1025.65220612 179.315347756 1251.44090856 c 0,14,15
 336.533216402 1525 336.533216402 1525 600 1525 c 128,-1,16
 863.466783598 1525 863.466783598 1525 1020.68465224 1251.44090856 c 0,17,18
 1150 1025.65220612 1150 1025.65220612 1150 750 c 0,19,20
 1150 630.861945249 1150 630.861945249 1125.3720953 519.778203206 c 128,-1,21
 1100.74419061 408.694461162 1100.74419061 408.694461162 1051.55306225 306.212943747 c 0,22,23
 942.072902075 76.5001076731 942.072902075 76.5001076731 751.003247998 2.79923827579 c 1,24,25
 790.679413808 -101.637134336 790.679413808 -101.637134336 858.566824718 -177.258554083 c 0,26,27
 947.087379511 -275 947.087379511 -275 1050 -275 c 0,28,29
 1096 -275 1096 -275 1123 -302 c 128,-1,0
 1150 -329 1150 -329 1150 -375 c 128,-1,1
950 750 m 0,30,31
 950 813.847335215 950 813.847335215 941.9846607 873.597907526 c 128,-1,32
 933.969321401 933.348479836 933.969321401 933.348479836 917.968580623 989.108637091 c 0,33,34
 880.406613938 1120.09395681 880.406613938 1120.09395681 802.762233277 1214.03407169 c 0,35,36
 789.197218866 1230.31208898 789.197218866 1230.31208898 775.343030322 1244.15622051 c 128,-1,37
 761.488841777 1258.00035205 761.488841777 1258.00035205 747.471335864 1269.33836871 c 128,-1,38
 733.453829951 1280.67638537 733.453829951 1280.67638537 719.094304333 1289.67669386 c 128,-1,39
 704.734778714 1298.67700235 704.734778714 1298.67700235 690.200685709 1305.30584056 c 128,-1,40
 675.666592703 1311.93467876 675.666592703 1311.93467876 660.734861383 1316.31942192 c 128,-1,41
 645.803130063 1320.70416508 645.803130063 1320.70416508 630.685581338 1322.85208254 c 128,-1,42
 615.568032612 1325 615.568032612 1325 600 1325 c 0,43,44
 489.70937365 1325 489.70937365 1325 397.237766723 1214.03407169 c 0,45,46
 319.577087286 1120.07423731 319.577087286 1120.07423731 282.031979605 990.110403029 c 0,47,48
 250 877.513141386 250 877.513141386 250 750 c 0,49,50
 250 569.19968102 250 569.19968102 317.910038828 413.006591717 c 0,51,52
 388.426543491 252.294557832 388.426543491 252.294557832 504.672698356 197.971421746 c 1,53,54
 502.262444912 224.481504521 502.262444912 224.481504521 501.131222456 249.318170794 c 128,-1,55
 500 274.154837067 500 274.154837067 500 300 c 0,56,57
 500 346 500 346 527 373 c 128,-1,58
 554 400 554 400 600 400 c 128,-1,59
 646 400 646 400 673 373 c 128,-1,60
 700 346 700 346 700 300 c 0,61,62
 700 276.032205559 700 276.032205559 701.244045788 251.250154895 c 128,-1,63
 702.488091575 226.46810423 702.488091575 226.46810423 704.760900423 203.920397412 c 1,64,65
 733.067422803 218.770157955 733.067422803 218.770157955 758.395036505 239.534109002 c 128,-1,66
 783.722650207 260.298060048 783.722650207 260.298060048 806.406537983 287.353431688 c 128,-1,67
 829.090425759 314.408803328 829.090425759 314.408803328 848.998831074 348.019386394 c 128,-1,68
 868.907236389 381.62996946 868.907236389 381.62996946 885.974753742 421.738635239 c 0,69,70
 950 574.041114974 950 574.041114974 950 750 c 0,30,31
EndSplineSet
EndChar

StartChar: R
Encoding: 82 82 53
Width: 1200
Flags: W
LayerCount: 2
Fore
SplineSet
350 690.837678967 m 1,0,1
 355.408349359 731.941134097 355.408349359 731.941134097 386.219241329 753.470567049 c 128,-1,2
 417.030133298 775 417.030133298 775 464 775 c 2,3,-1
 675 775 l 2,4,5
 788.644660941 775 788.644660941 775 869.32233047 855.67766953 c 128,-1,6
 950 936.355339059 950 936.355339059 950 1050 c 128,-1,7
 950 1163.64466094 950 1163.64466094 869.32233047 1244.32233047 c 128,-1,8
 788.644660941 1325 788.644660941 1325 675 1325 c 2,9,-1
 350 1325 l 1,10,-1
 350 690.837678967 l 1,0,1
350 661.5982524 m 1,11,-1
 350 75 l 2,12,13
 350 29 350 29 323 2 c 128,-1,14
 296 -25 296 -25 250 -25 c 128,-1,15
 204 -25 204 -25 177 2 c 128,-1,16
 150 29 150 29 150 75 c 2,17,-1
 150 1426 l 2,18,19
 150 1472 150 1472 176.5 1498.5 c 128,-1,20
 203 1525 203 1525 249 1525 c 2,21,-1
 675 1525 l 2,22,23
 871.355339059 1525 871.355339059 1525 1010.67766953 1385.67766953 c 0,24,25
 1079.95610987 1316.39922919 1079.95610987 1316.39922919 1114.97805494 1232.0281152 c 128,-1,26
 1150 1147.65700121 1150 1147.65700121 1150 1050 c 0,27,28
 1150 853.644660941 1150 853.644660941 1010.67766953 714.32233047 c 0,29,30
 977.490880472 681.135541413 977.490880472 681.135541413 940.674933994 655.74861747 c 128,-1,31
 903.858987516 630.361693527 903.858987516 630.361693527 863.813186294 612.978139584 c 128,-1,32
 823.767385071 595.594585642 823.767385071 595.594585642 780.525547057 586.138015053 c 128,-1,33
 737.283709044 576.681444464 737.283709044 576.681444464 691.116616245 575.238722814 c 1,34,-1
 1120.67766953 145.67766953 l 2,35,36
 1135.26120752 131.094131544 1135.26120752 131.094131544 1143.13060376 113.302775236 c 128,-1,37
 1151 95.5114189277 1151 95.5114189277 1151 76 c 0,38,39
 1151 34.6446609407 1151 34.6446609407 1120.67766953 4.32233047034 c 128,-1,40
 1090.35533906 -26 1090.35533906 -26 1049 -26 c 0,41,42
 1009.64466094 -26 1009.64466094 -26 979.32233047 4.32233047034 c 2,43,-1
 389.32233047 594.32233047 l 2,44,45
 355.553997646 628.090663294 355.553997646 628.090663294 350 661.5982524 c 1,11,-1
EndSplineSet
EndChar

StartChar: S
Encoding: 83 83 54
Width: 1200
Flags: W
LayerCount: 2
Fore
SplineSet
1150 450 m 0,0,1
 1150 378.367697991 1150 378.367697991 1128.25392776 314.712714936 c 128,-1,2
 1106.50785553 251.05773188 1106.50785553 251.05773188 1063.71428734 196.496401647 c 128,-1,3
 1020.92071915 141.935071414 1020.92071915 141.935071414 957.519213628 96.6482817524 c 0,4,5
 787.003673394 -25 787.003673394 -25 568 -25 c 0,6,7
 425.978544329 -25 425.978544329 -25 292.278750326 30.967355629 c 0,8,9
 144.478294866 93.8611664632 144.478294866 93.8611664632 69.2751032386 204.017954199 c 0,10,11
 49 234.430609057 49 234.430609057 49 264 c 0,12,13
 49 304.67510316 49 304.67510316 80.2107125218 334.557700255 c 0,14,15
 110.961558922 364 110.961558922 364 152 364 c 0,16,17
 160.501162102 364 160.501162102 364 168.890951157 362.183593494 c 128,-1,18
 177.280740212 360.367186989 177.280740212 360.367186989 184.985464292 357.051208085 c 128,-1,19
 192.690188372 353.735229181 192.690188372 353.735229181 200.256295666 348.870489468 c 128,-1,20
 207.822402959 344.005749754 207.822402959 344.005749754 214.689150595 338.123847614 c 128,-1,21
 221.55589823 332.241945473 221.55589823 332.241945473 228.256785338 325.078928219 c 0,22,23
 228.796255538 324.502253178 228.796255538 324.502253178 229.29825589 323.892681322 c 0,24,25
 242.451212255 307.921234307 242.451212255 307.921234307 271.365412513 278.005352861 c 0,26,27
 386.11993849 175 386.11993849 175 568 175 c 0,28,29
 707.880432708 175 707.880432708 175 822.78262229 246.220365443 c 0,30,31
 950 325.845630629 950 325.845630629 950 450 c 0,32,33
 950 491.504960465 950 491.504960465 936.43765174 527.371277949 c 128,-1,34
 922.875303479 563.237595432 922.875303479 563.237595432 894.573640317 594.898637033 c 128,-1,35
 866.271977156 626.559678633 866.271977156 626.559678633 822.78262229 653.779634557 c 0,36,37
 765.244331844 689.443864172 765.244331844 689.443864172 701.713707241 707.221932086 c 128,-1,38
 638.183082638 725 638.183082638 725 568 725 c 0,39,40
 384.930986334 725 384.930986334 725 242.392381854 827.711641464 c 0,41,42
 163.14623653 884.768866097 163.14623653 884.768866097 122.573118265 959.694641207 c 128,-1,43
 82 1034.62041632 82 1034.62041632 82 1125 c 0,44,45
 82 1306.80584129 82 1306.80584129 242.384525336 1422.28269953 c 0,46,47
 384.930983127 1525 384.930983127 1525 568 1525 c 0,48,49
 607.298311253 1525 607.298311253 1525 645.803878827 1519.75721074 c 128,-1,50
 684.309446402 1514.51442148 684.309446402 1514.51442148 721.830605323 1504.06714181 c 128,-1,51
 759.351764243 1493.61986213 759.351764243 1493.61986213 795.788080302 1478.00429811 c 0,52,53
 917.857812961 1426.44035931 917.857812961 1426.44035931 981.241820562 1335.68105802 c 0,54,55
 1003 1305.65477039 1003 1305.65477039 1003 1275 c 0,56,57
 1003 1264.91081114 1003 1264.91081114 1000.85854479 1255.17689882 c 128,-1,58
 998.71708958 1245.44298649 998.71708958 1245.44298649 994.618201779 1236.53358674 c 128,-1,59
 990.519313978 1227.62418699 990.519313978 1227.62418699 984.605603355 1219.50226806 c 128,-1,60
 978.691892732 1211.38034912 978.691892732 1211.38034912 971.098528222 1204.2615699 c 0,61,62
 956.006137008 1190.11245313 956.006137008 1190.11245313 937.86979363 1182.55622657 c 128,-1,63
 919.733450252 1175 919.733450252 1175 900 1175 c 0,64,65
 879.705114793 1175 879.705114793 1175 860.651261693 1185.02362617 c 128,-1,66
 841.597408593 1195.04725235 841.597408593 1195.04725235 823.247426436 1213.3972345 c 0,67,68
 767.814822839 1269.77740398 767.814822839 1269.77740398 704.477874602 1297.38870199 c 128,-1,69
 641.140926365 1325 641.140926365 1325 568 1325 c 0,70,71
 515.71514987 1325 515.71514987 1325 468.432790173 1311.95566143 c 128,-1,72
 421.150430477 1298.91132286 421.150430477 1298.91132286 377.945192218 1272.61248218 c 0,73,74
 344.719995852 1252.61583622 344.719995852 1252.61583622 323.352422668 1229.57336643 c 128,-1,75
 301.984849483 1206.53089664 301.984849483 1206.53089664 291.992424742 1180.78662374 c 128,-1,76
 282 1155.04235085 282 1155.04235085 282 1125 c 0,77,78
 282 1035.13230943 282 1035.13230943 377.945192218 977.387517819 c 0,79,80
 464.010400064 925 464.010400064 925 568 925 c 0,81,82
 787.003666227 925 787.003666227 925 957.530954843 803.34333678 c 0,83,84
 1150 665.865447382 1150 665.865447382 1150 450 c 0,0,1
EndSplineSet
EndChar

StartChar: T
Encoding: 84 84 55
Width: 1200
Flags: W
LayerCount: 2
Fore
SplineSet
1150 1425 m 128,-1,1
 1150 1379 1150 1379 1123 1352 c 128,-1,2
 1096 1325 1096 1325 1050 1325 c 2,3,-1
 700 1325 l 1,4,-1
 700 75 l 2,5,6
 700 29 700 29 673 2 c 128,-1,7
 646 -25 646 -25 600 -25 c 128,-1,8
 554 -25 554 -25 527 2 c 128,-1,9
 500 29 500 29 500 75 c 2,10,-1
 500 1325 l 1,11,-1
 150 1325 l 2,12,13
 104 1325 104 1325 77 1352 c 128,-1,14
 50 1379 50 1379 50 1425 c 128,-1,15
 50 1471 50 1471 77 1498 c 128,-1,16
 104 1525 104 1525 150 1525 c 2,17,-1
 1050 1525 l 2,18,19
 1096 1525 1096 1525 1123 1498 c 128,-1,0
 1150 1471 1150 1471 1150 1425 c 128,-1,1
EndSplineSet
EndChar

StartChar: U
Encoding: 85 85 56
Width: 1200
Flags: W
LayerCount: 2
Fore
SplineSet
1100 475 m 2,0,1
 1100 267.644660941 1100 267.644660941 953.67766953 121.32233047 c 128,-1,2
 807.355339059 -25 807.355339059 -25 600 -25 c 128,-1,3
 392.644660941 -25 392.644660941 -25 246.32233047 121.32233047 c 0,4,5
 173.532221559 194.112439382 173.532221559 194.112439382 136.766110779 282.98584846 c 128,-1,6
 100 371.859257538 100 371.859257538 100 475 c 2,7,-1
 100 1425 l 2,8,9
 100 1471 100 1471 127 1498 c 128,-1,10
 154 1525 154 1525 200 1525 c 128,-1,11
 246 1525 246 1525 273 1498 c 128,-1,12
 300 1471 300 1471 300 1425 c 2,13,-1
 300 475 l 2,14,15
 300 433.410703755 300 433.410703755 309.690408275 396.30744975 c 128,-1,16
 319.380816551 359.204195745 319.380816551 359.204195745 338.936846531 326.033329146 c 128,-1,17
 358.492876511 292.862462548 358.492876511 292.862462548 388.17766953 263.17766953 c 0,18,19
 476.355339059 175 476.355339059 175 600 175 c 128,-1,20
 723.644660941 175 723.644660941 175 811.82233047 263.17766953 c 128,-1,21
 900 351.355339059 900 351.355339059 900 475 c 2,22,-1
 900 1425 l 2,23,24
 900 1471 900 1471 927 1498 c 128,-1,25
 954 1525 954 1525 1000 1525 c 128,-1,26
 1046 1525 1046 1525 1073 1498 c 128,-1,27
 1100 1471 1100 1471 1100 1425 c 2,28,-1
 1100 475 l 2,0,1
EndSplineSet
EndChar

StartChar: V
Encoding: 86 86 57
Width: 1200
Flags: W
LayerCount: 2
Fore
SplineSet
1151 1428 m 0,0,1
 1151 1410.66965626 1151 1410.66965626 1144.63298884 1392.84202501 c 2,2,-1
 698.717082451 55.0943058496 l 2,3,4
 686.249555809 17.6917259226 686.249555809 17.6917259226 660.873412213 -3.65413703871 c 128,-1,5
 635.497268617 -25 635.497268617 -25 600 -25 c 128,-1,6
 564.594047774 -25 564.594047774 -25 539.167808911 -3.64082582433 c 128,-1,7
 513.741570048 17.7183483513 513.741570048 17.7183483513 501.282917549 55.0943058496 c 2,8,-1
 55.3670111619 1392.84202501 l 2,9,10
 49 1410.66965626 49 1410.66965626 49 1428 c 0,11,12
 49 1473 49 1473 77 1499 c 128,-1,13
 105 1525 105 1525 152 1525 c 0,14,15
 174.14744269 1525 174.14744269 1525 192.63804247 1516.8745677 c 128,-1,16
 211.12864225 1508.74913541 211.12864225 1508.74913541 224.378503617 1493.46049098 c 128,-1,17
 237.628364984 1478.17184655 237.628364984 1478.17184655 244.717082451 1456.90569415 c 2,18,-1
 600 391.056941504 l 1,19,-1
 955.282917549 1456.90569415 l 2,20,21
 962.371541957 1478.17156738 962.371541957 1478.17156738 975.621035733 1493.46010818 c 128,-1,22
 988.87052951 1508.74864898 988.87052951 1508.74864898 1007.36128189 1516.87432449 c 128,-1,23
 1025.85203427 1525 1025.85203427 1525 1048 1525 c 0,24,25
 1095 1525 1095 1525 1123 1499.5 c 128,-1,26
 1151 1474 1151 1474 1151 1428 c 0,0,1
EndSplineSet
EndChar

StartChar: W
Encoding: 87 87 58
Width: 1200
Flags: W
LayerCount: 2
Fore
SplineSet
1150 1428 m 0,0,1
 1150 1422.95706221 1150 1422.95706221 1149.70212872 1418.50508452 c 128,-1,2
 1149.40425745 1414.05310683 1149.40425745 1414.05310683 1148.70699068 1409.17223947 c 2,3,-1
 924.659848096 67.8900253174 l 2,4,5
 917.482434259 24.8255422989 917.482434259 24.8255422989 891.195061047 -0.087228850555 c 128,-1,6
 864.907687834 -25 864.907687834 -25 824 -25 c 0,7,8
 786.8017266 -25 786.8017266 -25 761.366486008 -2.30347407815 c 128,-1,9
 735.931245417 20.3930518437 735.931245417 20.3930518437 725.768015126 59.8502988568 c 2,10,-1
 600 562.92235936 l 1,11,-1
 474.275217194 60.0232281354 l 2,12,13
 464.718864552 20.6032734877 464.718864552 20.6032734877 439.15682815 -2.19836325613 c 128,-1,14
 413.594791748 -25 413.594791748 -25 376 -25 c 0,15,16
 334.676759711 -25 334.676759711 -25 308.282609052 0.00660101521812 c 128,-1,17
 281.888458392 25.0132020304 281.888458392 25.0132020304 275.313005246 68.0525317115 c 2,18,-1
 51.2930093186 1409.17223947 l 2,19,20
 50.5957425532 1414.05310683 50.5957425532 1414.05310683 50.2978712766 1418.50508452 c 128,-1,21
 50 1422.95706221 50 1422.95706221 50 1428 c 0,22,23
 50 1473 50 1473 77.5 1499 c 128,-1,24
 105 1525 105 1525 151 1525 c 0,25,26
 164.129771384 1525 164.129771384 1525 176.017603468 1522.39553131 c 128,-1,27
 187.905435551 1519.79106262 187.905435551 1519.79106262 197.99880818 1514.83133288 c 128,-1,28
 208.092180808 1509.87160314 208.092180808 1509.87160314 216.558202546 1502.57113881 c 128,-1,29
 225.024224283 1495.27067448 225.024224283 1495.27067448 231.432705161 1485.99255634 c 128,-1,30
 237.841186039 1476.71443821 237.841186039 1476.71443821 242.228749089 1465.35172803 c 128,-1,31
 246.616312139 1453.98901786 246.616312139 1453.98901786 248.67509758 1441.01866958 c 2,32,-1
 394.875306272 565.578865729 l 1,33,-1
 500.714413439 988.935294397 l 2,34,35
 510.246700318 1028.8517457 510.246700318 1028.8517457 536.072208618 1051.92587285 c 128,-1,36
 561.897716919 1075 561.897716919 1075 600 1075 c 0,37,38
 618.946417334 1075 618.946417334 1075 635.236625266 1068.91431094 c 128,-1,39
 651.526833198 1062.82862187 651.526833198 1062.82862187 663.956158759 1051.55465235 c 128,-1,40
 676.38548432 1040.28068282 676.38548432 1040.28068282 685.325819726 1024.50047588 c 128,-1,41
 694.266155133 1008.72026894 694.266155133 1008.72026894 699.242925009 989.105940605 c 2,42,-1
 805.124693728 565.578865729 l 1,43,-1
 951.32490242 1441.01866958 l 2,44,45
 957.551124363 1480.24386783 957.551124363 1480.24386783 983.483736443 1502.62193391 c 128,-1,46
 1009.41634852 1525 1009.41634852 1525 1049 1525 c 0,47,48
 1095 1525 1095 1525 1122.5 1499 c 128,-1,49
 1150 1473 1150 1473 1150 1428 c 0,0,1
EndSplineSet
EndChar

StartChar: X
Encoding: 88 88 59
Width: 1200
Flags: W
LayerCount: 2
Fore
SplineSet
1151 74 m 0,0,1
 1151 33.1691996883 1151 33.1691996883 1119.09852822 3.2615698965 c 0,2,3
 1087.886187 -26 1087.886187 -26 1048 -26 c 0,4,5
 1023.34057511 -26 1023.34057511 -26 1002.5772147 -14.2367355068 c 128,-1,6
 981.813854286 -2.47347101367 981.813854286 -2.47347101367 967.245591786 19.0622213783 c 2,7,-1
 600 569.930609057 l 1,8,-1
 232.754408214 19.0622213783 l 2,9,10
 225.544781171 8.40451183575 225.544781171 8.40451183575 216.728814054 0.0648103968156 c 128,-1,11
 207.912846936 -8.27489104212 207.912846936 -8.27489104212 197.751820171 -14.0858353039 c 128,-1,12
 187.590793406 -19.8967795657 187.590793406 -19.8967795657 176.001722122 -22.9483897828 c 128,-1,13
 164.412650838 -26 164.412650838 -26 152 -26 c 0,14,15
 112.113813001 -26 112.113813001 -26 80.901471778 3.2615698965 c 0,16,17
 49 33.1691996883 49 33.1691996883 49 74 c 0,18,19
 49 103.569390943 49 103.569390943 67.1987426416 130.867504906 c 2,20,-1
 479.953739371 750 l 1,21,-1
 67.1987426416 1369.13249509 l 2,22,23
 49 1396.43060906 49 1396.43060906 49 1426 c 0,24,25
 49 1466.83080031 49 1466.83080031 80.901471778 1496.7384301 c 0,26,27
 112.113813001 1526 112.113813001 1526 152 1526 c 0,28,29
 176.659424891 1526 176.659424891 1526 197.422785303 1514.23673551 c 128,-1,30
 218.186145714 1502.47347101 218.186145714 1502.47347101 232.754408214 1480.93777862 c 2,31,-1
 600 930.069390943 l 1,32,-1
 967.245591786 1480.93777862 l 2,33,34
 997.728859189 1526 997.728859189 1526 1048 1526 c 0,35,36
 1052.96496742 1526 1052.96496742 1526 1057.87426084 1525.50776223 c 128,-1,37
 1062.78355425 1525.01552446 1062.78355425 1525.01552446 1067.53521593 1524.0502279 c 128,-1,38
 1072.2868776 1523.08493134 1072.2868776 1523.08493134 1076.93835019 1521.65890182 c 128,-1,39
 1081.58982279 1520.23287229 1081.58982279 1520.23287229 1086.06619824 1518.3624581 c 128,-1,40
 1090.5425737 1516.4920439 1090.5425737 1516.4920439 1094.8724417 1514.19259026 c 128,-1,41
 1099.20230969 1511.89313661 1099.20230969 1511.89313661 1103.33961515 1509.17797241 c 128,-1,42
 1107.47692062 1506.46280821 1107.47692062 1506.46280821 1111.42140023 1503.35029809 c 128,-1,43
 1115.36587984 1500.23778796 1115.36587984 1500.23778796 1119.09852822 1496.7384301 c 0,44,45
 1134.43313415 1482.36223705 1134.43313415 1482.36223705 1142.71656707 1464.24088601 c 128,-1,46
 1151 1446.11953498 1151 1446.11953498 1151 1426 c 0,47,48
 1151 1421.00345858 1151 1421.00345858 1150.45666112 1416.01275456 c 128,-1,49
 1149.91332223 1411.02205053 1149.91332223 1411.02205053 1148.85159943 1406.16693597 c 128,-1,50
 1147.78987662 1401.3118214 1147.78987662 1401.3118214 1146.24054376 1396.53539299 c 128,-1,51
 1144.6912109 1391.75896457 1144.6912109 1391.75896457 1142.66029565 1387.11338871 c 128,-1,52
 1140.62938039 1382.46781284 1140.62938039 1382.46781284 1138.16784573 1377.97894425 c 128,-1,53
 1135.70631107 1373.49007565 1135.70631107 1373.49007565 1132.80125736 1369.13249509 c 2,54,-1
 720.046260629 750 l 1,55,-1
 1132.80125736 130.867504906 l 2,56,57
 1151 103.569390943 1151 103.569390943 1151 74 c 0,0,1
EndSplineSet
EndChar

StartChar: Y
Encoding: 89 89 60
Width: 1200
Flags: W
LayerCount: 2
Fore
SplineSet
1151 1426 m 0,0,1
 1151 1411.15766831 1151 1411.15766831 1146.31523113 1396.76698677 c 128,-1,2
 1141.63046226 1382.37630523 1141.63046226 1382.37630523 1132.80613556 1369.13981518 c 2,3,-1
 700 719.435410319 l 1,4,-1
 700 75 l 2,5,6
 700 29 700 29 673 2 c 128,-1,7
 646 -25 646 -25 600 -25 c 128,-1,8
 554 -25 554 -25 527 2 c 128,-1,9
 500 29 500 29 500 75 c 2,10,-1
 500 719.435410319 l 1,11,-1
 67.1987426416 1369.13249509 l 2,12,13
 49 1396.43060906 49 1396.43060906 49 1426 c 0,14,15
 49 1466.83080031 49 1466.83080031 80.901471778 1496.7384301 c 0,16,17
 112.113813001 1526 112.113813001 1526 152 1526 c 0,18,19
 176.659424891 1526 176.659424891 1526 197.422785303 1514.23673551 c 128,-1,20
 218.186145714 1502.47347101 218.186145714 1502.47347101 232.754408214 1480.93777862 c 2,21,-1
 600 930.069390943 l 1,22,-1
 967.245591786 1480.93777862 l 2,23,24
 997.728859189 1526 997.728859189 1526 1048 1526 c 0,25,26
 1052.96496742 1526 1052.96496742 1526 1057.87426084 1525.50776223 c 128,-1,27
 1062.78355425 1525.01552446 1062.78355425 1525.01552446 1067.53521593 1524.0502279 c 128,-1,28
 1072.2868776 1523.08493134 1072.2868776 1523.08493134 1076.93835019 1521.65890182 c 128,-1,29
 1081.58982279 1520.23287229 1081.58982279 1520.23287229 1086.06619824 1518.3624581 c 128,-1,30
 1090.5425737 1516.4920439 1090.5425737 1516.4920439 1094.8724417 1514.19259026 c 128,-1,31
 1099.20230969 1511.89313661 1099.20230969 1511.89313661 1103.33961515 1509.17797241 c 128,-1,32
 1107.47692062 1506.46280821 1107.47692062 1506.46280821 1111.42140023 1503.35029809 c 128,-1,33
 1115.36587984 1500.23778796 1115.36587984 1500.23778796 1119.09852822 1496.7384301 c 0,34,35
 1134.43313415 1482.36223705 1134.43313415 1482.36223705 1142.71656707 1464.24088601 c 128,-1,36
 1151 1446.11953498 1151 1446.11953498 1151 1426 c 0,0,1
EndSplineSet
EndChar

StartChar: Z
Encoding: 90 90 61
Width: 1200
Flags: W
LayerCount: 2
Fore
SplineSet
1151 1426 m 0,0,1
 1151 1409.91104725 1151 1409.91104725 1144.57548487 1393.4304777 c 128,-1,2
 1138.15096974 1376.94990815 1138.15096974 1376.94990815 1125.85020629 1358.20588765 c 2,3,-1
 336.723529988 175 l 1,4,-1
 1050 175 l 2,5,6
 1096 175 1096 175 1123 148 c 128,-1,7
 1150 121 1150 121 1150 75 c 0,8,9
 1150 52.0356750608 1150 52.0356750608 1143.02610753 33.3517312056 c 128,-1,10
 1136.05221505 14.6677873504 1136.05221505 14.6677873504 1123.19069458 1.80631941001 c 128,-1,11
 1110.32917411 -11.0551485304 1110.32917411 -11.0551485304 1091.65354787 -18.0275664974 c 128,-1,12
 1072.97792163 -24.9999844645 1072.97792163 -24.9999844645 1050.02787066 -24.9999844645 c 2,13,-1
 153 -26 l 2,14,15
 105 -26 105 -26 77 0.5 c 128,-1,16
 49 27 49 27 49 74 c 0,17,18
 49 103.470617164 49 103.470617164 74.1497937139 141.794112347 c 2,19,-1
 863.276470012 1325 l 1,20,-1
 150 1325 l 2,21,22
 104 1325 104 1325 77 1352 c 128,-1,23
 50 1379 50 1379 50 1425 c 0,24,25
 50 1440.32622027 50 1440.32622027 53.1306894873 1453.8412651 c 128,-1,26
 56.2613789747 1467.35630993 56.2613789747 1467.35630993 62.1921751292 1478.38734316 c 128,-1,27
 68.1229712837 1489.41837639 68.1229712837 1489.41837639 76.8530337702 1498.14947494 c 128,-1,28
 85.5830962567 1506.88057348 85.5830962567 1506.88057348 96.6117204534 1512.81049292 c 128,-1,29
 107.64034465 1518.74041237 107.64034465 1518.74041237 121.148153477 1521.87019842 c 128,-1,30
 134.655962304 1524.99998446 134.655962304 1524.99998446 149.972129337 1524.99998446 c 2,31,-1
 1047 1526 l 2,32,33
 1095 1526 1095 1526 1123 1499.5 c 128,-1,34
 1151 1473 1151 1473 1151 1426 c 0,0,1
EndSplineSet
EndChar

StartChar: bracketleft
Encoding: 91 91 62
Width: 1200
Flags: W
LayerCount: 2
Fore
SplineSet
925 -375 m 128,-1,1
 925 -421 925 -421 898 -448 c 128,-1,2
 871 -475 871 -475 825 -475 c 2,3,-1
 375 -475 l 2,4,5
 355.178807848 -475 355.178807848 -475 337.212191457 -467.300457063 c 128,-1,6
 319.245575066 -459.600914126 319.245575066 -459.600914126 304.82233047 -445.17766953 c 128,-1,7
 290.39908683 -430.75442589 290.39908683 -430.75442589 282.699543415 -412.787803897 c 128,-1,8
 275 -394.821181905 275 -394.821181905 275 -375 c 2,9,-1
 275 1425 l 2,10,11
 275 1444.82119215 275 1444.82119215 282.699542937 1462.78780854 c 128,-1,12
 290.399085874 1480.75442493 290.399085874 1480.75442493 304.82233047 1495.17766953 c 128,-1,13
 319.24557411 1509.60091317 319.24557411 1509.60091317 337.212196103 1517.30045658 c 128,-1,14
 355.178818095 1525 355.178818095 1525 375 1525 c 2,15,-1
 825 1525 l 2,16,17
 871 1525 871 1525 898 1498 c 128,-1,18
 925 1471 925 1471 925 1425 c 128,-1,19
 925 1379 925 1379 898 1352 c 128,-1,20
 871 1325 871 1325 825 1325 c 2,21,-1
 475 1325 l 1,22,-1
 475 -275 l 1,23,-1
 825 -275 l 2,24,25
 871 -275 871 -275 898 -302 c 128,-1,0
 925 -329 925 -329 925 -375 c 128,-1,1
EndSplineSet
EndChar

StartChar: backslash
Encoding: 92 92 63
Width: 1200
Flags: W
LayerCount: 2
Fore
SplineSet
1151 -378 m 0,0,1
 1151 -420.168632262 1151 -420.168632262 1118.68120804 -449.120883393 c 0,2,3
 1087.56033369 -477 1087.56033369 -477 1048 -477 c 0,4,5
 988.549150971 -477 988.549150971 -477 960.63683736 -421.175372779 c 2,6,-1
 60.639320225 1379.81966011 l 2,7,8
 49 1403.09830056 49 1403.09830056 49 1427 c 0,9,10
 49 1469.16863226 49 1469.16863226 81.3187919604 1498.12088339 c 0,11,12
 112.439666312 1526 112.439666312 1526 152 1526 c 0,13,14
 211.450849029 1526 211.450849029 1526 239.36316264 1470.17537278 c 2,15,-1
 1139.36067977 -330.819660113 l 2,16,17
 1141.61758525 -335.333471053 1141.61758525 -335.333471053 1143.4480171 -339.919634687 c 128,-1,18
 1145.27844895 -344.505798321 1145.27844895 -344.505798321 1146.69237049 -349.227788024 c 128,-1,19
 1148.10629204 -353.949777726 1148.10629204 -353.949777726 1149.06080753 -358.697252579 c 128,-1,20
 1150.01532303 -363.444727431 1150.01532303 -363.444727431 1150.50766151 -368.303612419 c 128,-1,21
 1151 -373.162497407 1151 -373.162497407 1151 -378 c 0,0,1
EndSplineSet
EndChar

StartChar: bracketright
Encoding: 93 93 64
Width: 1200
Flags: W
LayerCount: 2
Fore
SplineSet
925 1425 m 2,0,-1
 925 -375 l 2,1,2
 925 -394.821192152 925 -394.821192152 917.300457063 -412.787808543 c 128,-1,3
 909.600914126 -430.754424934 909.600914126 -430.754424934 895.17766953 -445.17766953 c 128,-1,4
 880.75442589 -459.60091317 880.75442589 -459.60091317 862.787803897 -467.300456585 c 128,-1,5
 844.821181905 -475 844.821181905 -475 825 -475 c 2,6,-1
 375 -475 l 2,7,8
 329 -475 329 -475 302 -448 c 128,-1,9
 275 -421 275 -421 275 -375 c 128,-1,10
 275 -329 275 -329 302 -302 c 128,-1,11
 329 -275 329 -275 375 -275 c 2,12,-1
 725 -275 l 1,13,-1
 725 1325 l 1,14,-1
 375 1325 l 2,15,16
 329 1325 329 1325 302 1352 c 128,-1,17
 275 1379 275 1379 275 1425 c 128,-1,18
 275 1471 275 1471 302 1498 c 128,-1,19
 329 1525 329 1525 375 1525 c 2,20,-1
 825 1525 l 2,21,22
 865.355339059 1525 865.355339059 1525 895.17766953 1495.17766953 c 128,-1,23
 925 1465.35533906 925 1465.35533906 925 1425 c 2,0,-1
EndSplineSet
EndChar

StartChar: asciicircum
Encoding: 94 94 65
Width: 1200
Flags: W
LayerCount: 2
Fore
SplineSet
1001 1126 m 0,0,1
 1001 1105.71184893 1001 1105.71184893 993.185399339 1087.36365427 c 128,-1,2
 985.370798678 1069.01545962 985.370798678 1069.01545962 970.67766953 1054.32233047 c 128,-1,3
 955.984527273 1039.62918821 955.984527273 1039.62918821 937.636400045 1031.81459411 c 128,-1,4
 919.288272817 1024 919.288272817 1024 899 1024 c 0,5,6
 859.644660941 1024 859.644660941 1024 829.32233047 1054.32233047 c 2,7,-1
 600 1283.64466094 l 1,8,-1
 370.67766953 1054.32233047 l 2,9,10
 356.094131544 1039.73879248 356.094131544 1039.73879248 338.302775236 1031.86939624 c 128,-1,11
 320.511418928 1024 320.511418928 1024 301 1024 c 0,12,13
 287.482859156 1024 287.482859156 1024 274.684141209 1027.52714612 c 128,-1,14
 261.885423261 1031.05429224 261.885423261 1031.05429224 250.477979813 1037.81420841 c 128,-1,15
 239.070536366 1044.57412457 239.070536366 1044.57412457 229.32233047 1054.32233047 c 0,16,17
 214.629188214 1069.01547273 214.629188214 1069.01547273 206.814594107 1087.36359995 c 128,-1,18
 199 1105.71172718 199 1105.71172718 199 1126 c 0,19,20
 199 1139.0337967 199 1139.0337967 202.609526032 1151.49869611 c 128,-1,21
 206.219052064 1163.96359552 206.219052064 1163.96359552 212.948390718 1174.99833197 c 128,-1,22
 219.677729372 1186.03306843 219.677729372 1186.03306843 229.32233047 1195.67766953 c 2,23,-1
 529.32233047 1495.67766953 l 2,24,25
 543.905868456 1510.26120752 543.905868456 1510.26120752 561.697224764 1518.13060376 c 128,-1,26
 579.488581072 1526 579.488581072 1526 599 1526 c 0,27,28
 640.355339059 1526 640.355339059 1526 670.67766953 1495.67766953 c 2,29,-1
 970.67766953 1195.67766953 l 2,30,31
 1001 1165.35533906 1001 1165.35533906 1001 1126 c 0,0,1
EndSplineSet
EndChar

StartChar: underscore
Encoding: 95 95 66
Width: 1200
Flags: W
LayerCount: 2
Fore
SplineSet
1150 75 m 128,-1,1
 1150 29 1150 29 1123 2 c 128,-1,2
 1096 -25 1096 -25 1050 -25 c 2,3,-1
 150 -25 l 2,4,5
 104 -25 104 -25 77 2 c 128,-1,6
 50 29 50 29 50 75 c 128,-1,7
 50 121 50 121 77 148 c 128,-1,8
 104 175 104 175 150 175 c 2,9,-1
 1050 175 l 2,10,11
 1096 175 1096 175 1123 148 c 128,-1,0
 1150 121 1150 121 1150 75 c 128,-1,1
EndSplineSet
EndChar

StartChar: grave
Encoding: 96 96 67
Width: 1200
Flags: W
LayerCount: 2
Fore
SplineSet
476 1047 m 0,0,1
 476 1005.83136774 476 1005.83136774 443.68120804 976.879116607 c 0,2,3
 412.560333688 949 412.560333688 949 373 949 c 0,4,5
 341.366753889 949 341.366753889 949 317.527100562 965.8266206 c 128,-1,6
 293.687447235 982.6532412 293.687447235 982.6532412 281.771383561 1012.75698101 c 2,7,-1
 131.687173269 1387.96750674 l 2,8,9
 124 1408.46663546 124 1408.46663546 124 1428 c 0,10,11
 124 1469.16863226 124 1469.16863226 156.31879196 1498.12088339 c 0,12,13
 187.439666312 1526 187.439666312 1526 227 1526 c 0,14,15
 242.786555903 1526 242.786555903 1526 256.935215862 1521.63533427 c 128,-1,16
 271.083875821 1517.27066854 271.083875821 1517.27066854 282.650255972 1509.06914432 c 128,-1,17
 294.216636122 1500.8676201 294.216636122 1500.8676201 303.272301336 1489.00877204 c 128,-1,18
 312.32796655 1477.14992397 312.32796655 1477.14992397 318.228616439 1462.24301899 c 2,19,-1
 468.312826731 1087.03249326 l 2,20,21
 470.242905849 1081.88561561 470.242905849 1081.88561561 471.671698338 1076.91936176 c 128,-1,22
 473.100490827 1071.9531079 473.100490827 1071.9531079 474.069950298 1066.97789368 c 128,-1,23
 475.039409769 1062.00267947 475.039409769 1062.00267947 475.519704884 1057.02538277 c 128,-1,24
 476 1052.04808607 476 1052.04808607 476 1047 c 0,0,1
EndSplineSet
EndChar

StartChar: a
Encoding: 97 97 68
Width: 1200
Flags: W
LayerCount: 2
Fore
SplineSet
1100 75 m 2,0,1
 1100 29 1100 29 1073 2 c 128,-1,2
 1046 -25 1046 -25 1000 -25 c 0,3,4
 986.898593214 -25 986.898593214 -25 975.097187713 -22.2248452616 c 128,-1,5
 963.295782212 -19.4496905232 963.295782212 -19.4496905232 953.414704827 -14.1977992813 c 128,-1,6
 943.533627443 -8.94590803948 943.533627443 -8.94590803948 935.233097646 -1.36027779047 c 128,-1,7
 926.932567848 6.22535245853 926.932567848 6.22535245853 920.620177608 15.8398776648 c 128,-1,8
 914.307787368 25.4544028711 914.307787368 25.4544028711 909.870673341 36.9616797409 c 128,-1,9
 905.433559315 48.4689566107 905.433559315 48.4689566107 903.066578609 61.5577152793 c 1,10,11
 760.120944701 -25 760.120944701 -25 575 -25 c 0,12,13
 382.713974469 -25 382.713974469 -25 230.553281939 71.9242767487 c 0,14,15
 50 187.307439171 50 187.307439171 50 375 c 128,-1,16
 50 562.692560829 50 562.692560829 230.585813594 678.096512711 c 0,17,18
 383.755841889 775 383.755841889 775 575 775 c 0,19,20
 665.953671346 775 665.953671346 775 747.056861117 753.977911242 c 128,-1,21
 828.160050887 732.955822483 828.160050887 732.955822483 898.719709782 691.058039651 c 1,22,23
 896.471639284 705.199128266 896.471639284 705.199128266 890.237539047 719.821139042 c 128,-1,24
 884.00343881 734.443149817 884.00343881 734.443149817 873.352241951 749.904564612 c 0,25,26
 788.728859189 875 788.728859189 875 575 875 c 0,27,28
 451.752160111 875 451.752160111 875 330.539688292 804.372260515 c 0,29,30
 298.694436733 786 298.694436733 786 273 786 c 0,31,32
 232.32489684 786 232.32489684 786 202.442299745 817.210712522 c 0,33,34
 173 847.961558922 173 847.961558922 173 889 c 0,35,36
 173 981.386754016 173 981.386754016 347.565408524 1035.86895158 c 0,37,38
 473.196669237 1075 473.196669237 1075 575 1075 c 0,39,40
 766.244158111 1075 766.244158111 1075 919.414186406 978.096512711 c 0,41,42
 1100 862.692560829 1100 862.692560829 1100 675 c 2,43,-1
 1100 75 l 2,0,1
900 375 m 0,44,45
 900 434.71828221 900 434.71828221 840.486721881 487.229998197 c 0,46,47
 787.650943218 533.577172463 787.650943218 533.577172463 714.77589115 555.065969868 c 0,48,49
 650.227603102 575 650.227603102 575 575 575 c 0,50,51
 356.671911189 575 356.671911189 575 273.039094184 444.496043795 c 0,52,53
 250 408.657452841 250 408.657452841 250 375 c 0,54,55
 250 358.38467572 250 358.38467572 255.612438837 341.133151027 c 128,-1,56
 261.224877673 323.881626333 261.224877673 323.881626333 273.039094184 305.503956205 c 0,57,58
 356.671911189 175 356.671911189 175 575 175 c 0,59,60
 650.227603102 175 650.227603102 175 714.77589115 194.934030132 c 0,61,62
 787.650943218 216.422827537 787.650943218 216.422827537 840.486721881 262.770001803 c 0,63,64
 861.083788484 280.9438841 861.083788484 280.9438841 874.40406176 299.652954805 c 128,-1,65
 887.724335036 318.36202551 887.724335036 318.36202551 893.862167518 336.872950899 c 128,-1,66
 900 355.383876288 900 355.383876288 900 375 c 0,44,45
EndSplineSet
EndChar

StartChar: b
Encoding: 98 98 69
Width: 1200
Flags: W
LayerCount: 2
Fore
SplineSet
1150 525 m 0,0,1
 1150 414.107752866 1150 414.107752866 1112.42994998 317.685194511 c 128,-1,2
 1074.85989996 221.262636155 1074.85989996 221.262636155 1000.34053224 141.01100939 c 0,3,4
 846.937953948 -25 846.937953948 -25 625 -25 c 128,-1,5
 403.062046052 -25 403.062046052 -25 249.659467755 141.01100939 c 0,6,7
 100 302.182743895 100 302.182743895 100 525 c 2,8,-1
 100 1425 l 2,9,10
 100 1471 100 1471 127 1498 c 128,-1,11
 154 1525 154 1525 200 1525 c 128,-1,12
 246 1525 246 1525 273 1498 c 128,-1,13
 300 1471 300 1471 300 1425 c 2,14,-1
 300 957.616921451 l 1,15,16
 439.521995358 1075 439.521995358 1075 625 1075 c 0,17,18
 846.937953948 1075 846.937953948 1075 1000.34053224 908.98899061 c 0,19,20
 1150 747.817256105 1150 747.817256105 1150 525 c 0,0,1
950 525 m 0,21,22
 950 560.646778318 950 560.646778318 944.263996328 593.552176182 c 128,-1,23
 938.527992656 626.457574046 938.527992656 626.457574046 926.970678636 656.915608496 c 128,-1,24
 915.413364616 687.373642947 915.413364616 687.373642947 898.055691185 715.391222655 c 128,-1,25
 880.698017755 743.408802364 880.698017755 743.408802364 857.393267214 769.302969631 c 0,26,27
 833.461324651 796.050434849 833.461324651 796.050434849 807.194557826 815.893486652 c 128,-1,28
 780.927791 835.736538454 780.927791 835.736538454 751.970336559 848.880028918 c 128,-1,29
 723.012882118 862.023519382 723.012882118 862.023519382 691.386433314 868.511759691 c 128,-1,30
 659.75998451 875 659.75998451 875 625 875 c 0,31,32
 578.650941622 875 578.650941622 875 537.756108396 863.423819099 c 128,-1,33
 496.86127517 851.847638198 496.86127517 851.847638198 460.683461625 828.401168344 c 128,-1,34
 424.50564808 804.95469849 424.50564808 804.95469849 392.606732786 769.302969631 c 0,35,36
 346.022759723 717.542999561 346.022759723 717.542999561 323.011379861 656.878340134 c 128,-1,37
 300 596.213680707 300 596.213680707 300 525 c 0,38,39
 300 383.593400131 300 383.593400131 392.606732786 280.697030369 c 0,40,41
 487.177759958 175 487.177759958 175 625 175 c 128,-1,42
 762.822240042 175 762.822240042 175 857.393267214 280.697030369 c 0,43,44
 950 383.593400131 950 383.593400131 950 525 c 0,21,22
EndSplineSet
EndChar

StartChar: c
Encoding: 99 99 70
Width: 1200
Flags: W
LayerCount: 2
Fore
SplineSet
1151 845 m 0,0,1
 1151 824.740937095 1151 824.740937095 1143.23305346 806.335563336 c 128,-1,2
 1135.46610692 787.930189576 1135.46610692 787.930189576 1120.86671915 773.013423811 c 0,3,4
 1111.18658036 763.122847216 1111.18658036 763.122847216 1099.9599501 756.22774581 c 128,-1,5
 1088.73331985 749.332644404 1088.73331985 749.332644404 1076.03858266 745.666322202 c 128,-1,6
 1063.34384547 742 1063.34384547 742 1050 742 c 0,7,8
 1034.48074544 742 1034.48074544 742 1019.07585629 747.987596584 c 128,-1,9
 1003.67096713 753.975193169 1003.67096713 753.975193169 986.756359968 765.452962315 c 0,10,11
 832.045192711 875 832.045192711 875 677 875 c 0,12,13
 513.300118806 875 513.300118806 875 385.956056164 779.967117431 c 0,14,15
 250 678.46567824 250 678.46567824 250 525 c 128,-1,16
 250 371.585498677 250 371.585498677 386.957424014 270.032034612 c 0,17,18
 513.350030048 175 513.350030048 175 677 175 c 0,19,20
 831.142237197 175 831.142237197 175 986.654990943 283.474945514 c 0,21,22
 1020.08533153 307 1020.08533153 307 1049 307 c 0,23,24
 1090.51315542 307 1090.51315542 307 1120.86671915 275.986576189 c 0,25,26
 1151 245.198224016 1151 245.198224016 1151 205 c 0,27,28
 1151 165.377410109 1151 165.377410109 1115.51697672 131.161637663 c 0,29,30
 1041.43767021 57.0823311467 1041.43767021 57.0823311467 909.789753667 14.2445170348 c 0,31,32
 791.023452114 -25 791.023452114 -25 677 -25 c 0,33,34
 433.162972522 -25 433.162972522 -25 249.335729078 123.515795551 c 0,35,36
 50 282.984378813 50 282.984378813 50 525 c 0,37,38
 50 559.423866059 50 559.423866059 54.1305845117 592.341705473 c 128,-1,39
 58.2611690235 625.259544887 58.2611690235 625.259544887 66.4847825387 656.496152406 c 128,-1,40
 74.7083960539 687.732759925 74.7083960539 687.732759925 86.9924854933 717.357169402 c 128,-1,41
 99.2765749328 746.981578879 99.2765749328 746.981578879 115.597835125 774.877370332 c 128,-1,42
 131.919095316 802.773161785 131.919095316 802.773161785 152.229772823 828.94666478 c 128,-1,43
 172.540450329 855.120167775 172.540450329 855.120167775 196.832440336 879.517666619 c 128,-1,44
 221.124430343 903.915165462 221.124430343 903.915165462 249.335729078 926.484204449 c 0,45,46
 433.162972522 1075 433.162972522 1075 677 1075 c 0,47,48
 734.079239396 1075 734.079239396 1075 792.317885726 1065.16409943 c 128,-1,49
 850.556532056 1055.32819887 850.556532056 1055.32819887 909.849603463 1035.73570571 c 0,50,51
 1042.48247165 991.872867411 1042.48247165 991.872867411 1116.67766953 917.67766953 c 0,52,53
 1133.02056367 901.334775394 1133.02056367 901.334775394 1142.01028183 883.026282774 c 128,-1,54
 1151 864.717790155 1151 864.717790155 1151 845 c 0,0,1
EndSplineSet
EndChar

StartChar: d
Encoding: 100 100 71
Width: 1200
Flags: W
LayerCount: 2
Fore
SplineSet
1050 75 m 2,0,1
 1050 29 1050 29 1023 2 c 128,-1,2
 996 -25 996 -25 950 -25 c 0,3,4
 927.34021929 -25 927.34021929 -25 908.64844459 -17.4814143518 c 128,-1,5
 889.956669889 -9.96282870351 889.956669889 -9.96282870351 876.547858141 4.99450611762 c 128,-1,6
 863.139046393 19.9518409387 863.139046393 19.9518409387 856.980769376 41.0659335683 c 0,7,8
 852.939048358 55.2119571308 852.939048358 55.2119571308 851.261812135 85.2851926725 c 1,9,10
 720.795504573 -25 720.795504573 -25 550 -25 c 0,11,12
 333.455282072 -25 333.455282072 -25 187.966674349 145.790974284 c 0,13,14
 50 307.797296436 50 307.797296436 50 525 c 128,-1,15
 50 742.202703194 50 742.202703194 187.968919238 904.21166139 c 0,16,17
 333.455281757 1075 333.455281757 1075 550 1075 c 0,18,19
 720.269839011 1075 720.269839011 1075 850 965.7805364 c 1,20,-1
 850 1425 l 2,21,22
 850 1471 850 1471 877 1498 c 128,-1,23
 904 1525 904 1525 950 1525 c 128,-1,24
 996 1525 996 1525 1023 1498 c 128,-1,25
 1050 1471 1050 1471 1050 1425 c 2,26,-1
 1050 75 l 2,0,1
850 525 m 0,27,28
 850 594.065407602 850 594.065407602 829.456586159 653.827218385 c 128,-1,29
 808.913172318 713.589029168 808.913172318 713.589029168 767.462272218 765.402654292 c 0,30,31
 723.106927571 820.963559692 723.106927571 820.963559692 669.298473734 847.981779846 c 128,-1,32
 615.490019896 875 615.490019896 875 550 875 c 128,-1,33
 484.500990797 875 484.500990797 875 430.699126115 847.984414024 c 128,-1,34
 376.897261433 820.968828047 376.897261433 820.968828047 332.521720236 765.382623811 c 0,35,36
 291.092110529 713.595611678 291.092110529 713.595611678 270.546055265 653.8246252 c 128,-1,37
 250 594.053638722 250 594.053638722 250 525 c 0,38,39
 250 497.33786165 250 497.33786165 253.286476779 471.218675119 c 128,-1,40
 256.572953559 445.099488589 256.572953559 445.099488589 263.15072705 420.433955753 c 128,-1,41
 269.728500542 395.768422918 269.728500542 395.768422918 279.637000659 372.476985205 c 128,-1,42
 289.545500776 349.185547492 289.545500776 349.185547492 302.751250954 327.254400756 c 128,-1,43
 315.957001132 305.32325402 315.957001132 305.32325402 332.537727782 284.597345708 c 0,44,45
 420.031407128 175 420.031407128 175 550 175 c 128,-1,46
 679.968609697 175 679.968609697 175 767.478279764 284.617376189 c 0,47,48
 850 387.769526484 850 387.769526484 850 525 c 0,27,28
EndSplineSet
EndChar

StartChar: e
Encoding: 101 101 72
Width: 1200
Flags: W
LayerCount: 2
Fore
SplineSet
1151 301 m 0,0,1
 1151 294.278369311 1151 294.278369311 1150.0020258 287.570293499 c 128,-1,2
 1149.0040516 280.862217687 1149.0040516 280.862217687 1147.03317593 274.229037565 c 128,-1,3
 1145.06230026 267.595857444 1145.06230026 267.595857444 1142.28907502 261.083365833 c 128,-1,4
 1139.51584977 254.570874222 1139.51584977 254.570874222 1135.81278096 247.781914737 c 0,5,6
 1062.99602074 121.144070869 1062.99602074 121.144070869 918.544246651 46.8246798536 c 0,7,8
 782.181448668 -25 782.181448668 -25 632 -25 c 0,9,10
 397.295418105 -25 397.295418105 -25 227.17688109 130.507128928 c 0,11,12
 50 290.909867429 50 290.909867429 50 525 c 0,13,14
 50 641.467408341 50 641.467408341 94.5672036182 740.62659385 c 128,-1,15
 139.134407236 839.785779359 139.134407236 839.785779359 227.17688109 919.492871072 c 0,16,17
 397.295418105 1075 397.295418105 1075 632 1075 c 0,18,19
 653.59180184 1075 653.59180184 1075 675.588611301 1073.09757171 c 128,-1,20
 697.585420761 1071.19514341 697.585420761 1071.19514341 719.933609556 1067.39991153 c 128,-1,21
 742.281798351 1063.60467964 742.281798351 1063.60467964 764.97391917 1057.94741693 c 128,-1,22
 787.66603999 1052.29015421 787.66603999 1052.29015421 810.789879015 1044.75542015 c 0,23,24
 914.544595022 1010.51636387 914.544595022 1010.51636387 1016.73355201 936.197122424 c 0,25,26
 1059.75805033 904.715782191 1059.75805033 904.715782191 1088.74961011 874.263261339 c 128,-1,27
 1117.74116988 843.810740488 1117.74116988 843.810740488 1133.87058494 810.911762149 c 128,-1,28
 1150 778.01278381 1150 778.01278381 1150 745 c 0,29,30
 1150 734.278826009 1150 734.278826009 1147.68652083 724.199464496 c 128,-1,31
 1145.37304165 714.120102982 1145.37304165 714.120102982 1140.96181699 705.195800877 c 128,-1,32
 1136.55059232 696.271498772 1136.55059232 696.271498772 1130.19192601 688.359998596 c 128,-1,33
 1123.83325971 680.448498421 1123.83325971 680.448498421 1115.69898509 673.833187723 c 128,-1,34
 1107.56471047 667.217877025 1107.56471047 667.217877025 1097.84903173 661.986357708 c 2,35,-1
 370.243448361 270.346413095 l 1,36,37
 478.923416512 175 478.923416512 175 632 175 c 0,38,39
 693.089266163 175 693.089266163 175 746.004864734 189.071919196 c 128,-1,40
 798.920463305 203.143838392 798.920463305 203.143838392 843.336345699 230.820335757 c 128,-1,41
 887.752228093 258.496833122 887.752228093 258.496833122 924.772876588 300.000037566 c 0,42,43
 932.222581408 309.583577435 932.222581408 309.583577435 942.389197608 322.741989887 c 128,-1,44
 952.555813807 335.900402338 952.555813807 335.900402338 966.69435408 354.255700236 c 0,45,46
 1002.70009849 401 1002.70009849 401 1048 401 c 0,47,48
 1087.72459226 401 1087.72459226 401 1118.89311571 372.428853505 c 0,49,50
 1151 342.997542909 1151 342.997542909 1151 301 c 0,0,1
894.852219783 779.722578925 m 1,51,52
 786.447973607 875 786.447973607 875 632 875 c 0,53,54
 479.393377903 875 479.393377903 875 366.48918918 776.208834867 c 0,55,56
 250 673.698348389 250 673.698348389 250 525 c 0,57,58
 250 480.757982352 250 480.757982352 261.439529908 439.148509441 c 1,59,-1
 894.852219783 779.722578925 l 1,51,52
EndSplineSet
EndChar

StartChar: f
Encoding: 102 102 73
Width: 1200
Flags: W
LayerCount: 2
Fore
SplineSet
1151 1274 m 0,0,1
 1151 1267.29812384 1151 1267.29812384 1150.06531989 1260.73207884 c 128,-1,2
 1149.13063978 1254.16603383 1149.13063978 1254.16603383 1147.31420203 1247.93561309 c 128,-1,3
 1145.49776427 1241.70519234 1145.49776427 1241.70519234 1142.83034639 1235.73127002 c 128,-1,4
 1140.16292851 1229.75734769 1140.16292851 1229.75734769 1136.69298783 1224.17506098 c 128,-1,5
 1133.22304716 1218.59277428 1133.22304716 1218.59277428 1128.98612402 1213.39196364 c 128,-1,6
 1124.74920088 1208.191153 1124.74920088 1208.191153 1119.78928748 1203.44229975 c 0,7,8
 1104.86191925 1189.15013867 1104.86191925 1189.15013867 1086.5125862 1181.57506934 c 128,-1,9
 1068.16325316 1174 1068.16325316 1174 1048 1174 c 0,10,11
 1012.8295443 1174 1012.8295443 1174 965.596920988 1220.05180773 c 0,12,13
 911.476322871 1272.23952734 911.476322871 1272.23952734 883.732067006 1289.81088939 c 0,14,15
 855.450631631 1307.31844462 855.450631631 1307.31844462 822.118972298 1316.15922231 c 128,-1,16
 788.787312966 1325 788.787312966 1325 750 1325 c 0,17,18
 692.656982983 1325 692.656982983 1325 644.528107212 1305.02194619 c 128,-1,19
 596.399231442 1285.04389238 596.399231442 1285.04389238 555.67766953 1244.32233047 c 0,20,21
 519.480095223 1208.12475616 519.480095223 1208.12475616 499.799383725 1166.13315252 c 128,-1,22
 480.118672226 1124.14154887 480.118672226 1124.14154887 475.996216267 1075 c 1,23,-1
 825 1075 l 2,24,25
 871 1075 871 1075 898 1048 c 128,-1,26
 925 1021 925 1021 925 975 c 128,-1,27
 925 929 925 929 898 902 c 128,-1,28
 871 875 871 875 825 875 c 2,29,-1
 475 875 l 1,30,-1
 475 75 l 2,31,32
 475 29 475 29 448 2 c 128,-1,33
 421 -25 421 -25 375 -25 c 128,-1,34
 329 -25 329 -25 302 2 c 128,-1,35
 275 29 275 29 275 75 c 2,36,-1
 275 875 l 1,37,-1
 150 875 l 2,38,39
 104 875 104 875 77 902 c 128,-1,40
 50 929 50 929 50 975 c 128,-1,41
 50 1021 50 1021 77 1048 c 128,-1,42
 104 1075 104 1075 150 1075 c 2,43,-1
 275.579336868 1075 l 1,44,45
 278.40979682 1134.99717383 278.40979682 1134.99717383 294.877712712 1189.72550967 c 128,-1,46
 311.345628604 1244.4538455 311.345628604 1244.4538455 341.243076986 1293.47485497 c 128,-1,47
 371.140525367 1342.49586443 371.140525367 1342.49586443 414.32233047 1385.67766953 c 0,48,49
 448.936664772 1420.29200383 448.936664772 1420.29200383 487.427180159 1446.4085917 c 128,-1,50
 525.917695546 1472.52517958 525.917695546 1472.52517958 567.961680563 1489.97834709 c 128,-1,51
 610.00566558 1507.43151461 610.00566558 1507.43151461 655.603773428 1516.2157573 c 128,-1,52
 701.201881275 1525 701.201881275 1525 750 1525 c 0,53,54
 803.840233145 1525 803.840233145 1525 857.158346451 1512.33107428 c 128,-1,55
 910.476459757 1499.66214856 910.476459757 1499.66214856 962.783334019 1474.55484892 c 0,56,57
 1018.03489251 1448.24458297 1018.03489251 1448.24458297 1060.25668099 1412.96844792 c 128,-1,58
 1102.47846946 1377.69231287 1102.47846946 1377.69231287 1131.02655873 1333.52357099 c 0,59,60
 1140.70424073 1318.40219285 1140.70424073 1318.40219285 1145.85212037 1303.61241612 c 128,-1,61
 1151 1288.82263938 1151 1288.82263938 1151 1274 c 0,0,1
EndSplineSet
EndChar

StartChar: g
Encoding: 103 103 74
Width: 1200
Flags: W
LayerCount: 2
Fore
SplineSet
1150 975 m 0,0,1
 1150 955.559027624 1150 955.559027624 1144.01227461 939.022627935 c 128,-1,2
 1138.02454921 922.486228245 1138.02454921 922.486228245 1126.93596883 910.131517501 c 128,-1,3
 1115.84738845 897.776806757 1115.84738845 897.776806757 1100.0137689 889.409184188 c 128,-1,4
 1084.18014935 881.041561619 1084.18014935 881.041561619 1064.57295907 877.421772644 c 0,5,6
 1051.41473321 874.954605296 1051.41473321 874.954605296 999.926346386 874.762682003 c 1,7,8
 1060 784.563173139 1060 784.563173139 1060 675 c 0,9,10
 1060 501.163714728 1060 501.163714728 919.831512835 387.06113272 c 1,11,12
 1150 249.853417972 1150 249.853417972 1150 0 c 0,13,14
 1150 -210.1631416 1150 -210.1631416 973.445538798 -348.657958471 c 0,15,16
 812.646576852 -475 812.646576852 -475 600 -475 c 128,-1,17
 387.353435899 -475 387.353435899 -475 226.570071747 -348.67021388 c 0,18,19
 50 -210.163151612 50 -210.163151612 50 0 c 0,20,21
 50 46 50 46 77 73 c 128,-1,22
 104 100 104 100 150 100 c 128,-1,23
 196 100 196 100 223 73 c 128,-1,24
 250 46 250 46 250 0 c 0,25,26
 250 -122.00080033 250 -122.00080033 363.373637918 -201.545207578 c 0,27,28
 467.905457902 -275 467.905457902 -275 600 -275 c 0,29,30
 644.298511941 -275 644.298511941 -275 685.221960376 -266.856956868 c 128,-1,31
 726.145408811 -258.713913736 726.145408811 -258.713913736 763.904697579 -242.413642688 c 128,-1,32
 801.663986347 -226.11337164 801.663986347 -226.11337164 836.641296413 -201.534721324 c 0,33,34
 894.37444557 -161.028398931 894.37444557 -161.028398931 922.187222785 -111.235372323 c 128,-1,35
 950 -61.4423457148 950 -61.4423457148 950 0 c 128,-1,36
 950 61.4482416103 950 61.4482416103 922.189072671 111.237026435 c 128,-1,37
 894.378145343 161.025811259 894.378145343 161.025811259 836.626362082 201.545207578 c 0,38,39
 784.189946106 238.392418805 784.189946106 238.392418805 725.288729955 256.696209403 c 128,-1,40
 666.387513804 275 666.387513804 275 600 275 c 0,41,42
 422.324491848 275 422.324491848 275 287.504283848 381.381570376 c 0,43,44
 140 497.888577183 140 497.888577183 140 675 c 0,45,46
 140 763.022118583 140 763.022118583 177.25536579 836.993108448 c 128,-1,47
 214.510731581 910.964098312 214.510731581 910.964098312 287.513864671 968.625993289 c 0,48,49
 422.324487038 1075 422.324487038 1075 600 1075 c 2,50,-1
 1050 1075 l 2,51,52
 1096 1075 1096 1075 1123 1048 c 128,-1,53
 1150 1021 1150 1021 1150 975 c 0,0,1
860 675 m 128,-1,55
 860 719.315333151 860 719.315333151 839.490489789 755.370027299 c 128,-1,56
 818.980979578 791.424721447 818.980979578 791.424721447 775.765613979 821.448028074 c 0,57,58
 736.858849679 848.312222471 736.858849679 848.312222471 693.143424112 861.656111236 c 128,-1,59
 649.427998545 875 649.427998545 875 600 875 c 0,60,61
 501.792414328 875 501.792414328 875 424.234386021 821.448028074 c 0,62,63
 340 762.927296733 340 762.927296733 340 675 c 0,64,65
 340 630.684666849 340 630.684666849 360.509510211 594.629972701 c 128,-1,66
 381.019020422 558.575278553 381.019020422 558.575278553 424.234386021 528.551971926 c 0,67,68
 501.792414328 475 501.792414328 475 600 475 c 0,69,70
 649.42809172 475 649.42809172 475 693.143425967 488.343857878 c 128,-1,71
 736.858760214 501.687715756 736.858760214 501.687715756 775.765613979 528.551971926 c 0,72,73
 818.980771275 558.575133837 818.980771275 558.575133837 839.490385638 594.629993821 c 128,-1,54
 860 630.684853805 860 630.684853805 860 675 c 128,-1,55
EndSplineSet
EndChar

StartChar: h
Encoding: 104 104 75
Width: 1200
Flags: W
LayerCount: 2
Fore
SplineSet
1100 75 m 2,0,1
 1100 29 1100 29 1073 2 c 128,-1,2
 1046 -25 1046 -25 1000 -25 c 128,-1,3
 954 -25 954 -25 927 2 c 128,-1,4
 900 29 900 29 900 75 c 2,5,-1
 900 600 l 2,6,7
 900 713.644660941 900 713.644660941 819.32233047 794.32233047 c 128,-1,8
 738.644660941 875 738.644660941 875 625 875 c 128,-1,9
 511.355339059 875 511.355339059 875 430.67766953 794.32233047 c 128,-1,10
 350 713.644660941 350 713.644660941 350 600 c 2,11,-1
 350 75 l 2,12,13
 350 29 350 29 323 2 c 128,-1,14
 296 -25 296 -25 250 -25 c 128,-1,15
 204 -25 204 -25 177 2 c 128,-1,16
 150 29 150 29 150 75 c 2,17,-1
 150 1425 l 2,18,19
 150 1471 150 1471 177 1498 c 128,-1,20
 204 1525 204 1525 250 1525 c 128,-1,21
 296 1525 296 1525 323 1498 c 128,-1,22
 350 1471 350 1471 350 1425 c 2,23,-1
 350 987.359531096 l 1,24,25
 471.214812789 1075 471.214812789 1075 625 1075 c 0,26,27
 821.355339059 1075 821.355339059 1075 960.67766953 935.67766953 c 0,28,29
 1029.95610987 866.399229185 1029.95610987 866.399229185 1064.97805494 782.028115199 c 128,-1,30
 1100 697.657001213 1100 697.657001213 1100 600 c 2,31,-1
 1100 75 l 2,0,1
EndSplineSet
EndChar

StartChar: i
Encoding: 105 105 76
Width: 1200
Flags: W
LayerCount: 2
Fore
SplineSet
739 1386 m 0,0,1
 739 1328.30773318 739 1328.30773318 697.768309858 1288.92223812 c 0,2,3
 657.021591828 1250 657.021591828 1250 600 1250 c 128,-1,4
 542.978408172 1250 542.978408172 1250 502.231690142 1288.92223812 c 0,5,6
 461 1328.30773318 461 1328.30773318 461 1386 c 0,7,8
 461 1395.37576161 461 1395.37576161 462.172695167 1404.47005754 c 128,-1,9
 463.345390334 1413.56435348 463.345390334 1413.56435348 465.654848878 1422.23200299 c 128,-1,10
 467.964307422 1430.8996525 467.964307422 1430.8996525 471.409613224 1439.18017413 c 128,-1,11
 474.854919025 1447.46069576 474.854919025 1447.46069576 479.382502596 1455.22260924 c 128,-1,12
 483.910086167 1462.98452272 483.910086167 1462.98452272 489.537844932 1470.25273274 c 128,-1,13
 495.165603697 1477.52094276 495.165603697 1477.52094276 501.82233047 1484.17766953 c 0,14,15
 521.842270979 1504.19761004 521.842270979 1504.19761004 546.836300159 1514.59880502 c 128,-1,16
 571.830329339 1525 571.830329339 1525 600 1525 c 0,17,18
 657.355339059 1525 657.355339059 1525 698.17766953 1484.17766953 c 128,-1,19
 739 1443.35533906 739 1443.35533906 739 1386 c 0,0,1
1000 75 m 128,-1,21
 1000 29 1000 29 973 2 c 128,-1,22
 946 -25 946 -25 900 -25 c 2,23,-1
 600 -25 l 2,24,25
 554 -25 554 -25 527 2 c 128,-1,26
 500 29 500 29 500 75 c 2,27,-1
 500 875 l 1,28,-1
 300 875 l 2,29,30
 254 875 254 875 227 902 c 128,-1,31
 200 929 200 929 200 975 c 128,-1,32
 200 1021 200 1021 227 1048 c 128,-1,33
 254 1075 254 1075 300 1075 c 2,34,-1
 601 1075 l 2,35,36
 647 1075 647 1075 673.5 1048 c 128,-1,37
 700 1021 700 1021 700 975 c 2,38,-1
 700 175 l 1,39,-1
 900 175 l 2,40,41
 946 175 946 175 973 148 c 128,-1,20
 1000 121 1000 121 1000 75 c 128,-1,21
EndSplineSet
EndChar

StartChar: j
Encoding: 106 106 77
Width: 1200
Flags: W
LayerCount: 2
Fore
SplineSet
1089 1386 m 0,0,1
 1089 1374.74302505 1089 1374.74302505 1087.30882813 1363.95342562 c 128,-1,2
 1085.61765626 1353.16382619 1085.61765626 1353.16382619 1082.26284536 1343.01362794 c 128,-1,3
 1078.90803447 1332.86342969 1078.90803447 1332.86342969 1073.95544736 1323.42210945 c 128,-1,4
 1069.00286026 1313.98078922 1069.00286026 1313.98078922 1062.42613697 1305.31114535 c 128,-1,5
 1055.84941369 1296.64150148 1055.84941369 1296.64150148 1047.76830986 1288.92223812 c 0,6,7
 1007.02159183 1250 1007.02159183 1250 950 1250 c 128,-1,8
 892.978408172 1250 892.978408172 1250 852.231690142 1288.92223812 c 0,9,10
 811 1328.30773318 811 1328.30773318 811 1386 c 0,11,12
 811 1404.74663221 811 1404.74663221 815.643383283 1422.19774774 c 128,-1,13
 820.286766566 1439.64886327 820.286766566 1439.64886327 829.396319885 1455.25503777 c 128,-1,14
 838.505873204 1470.86121226 838.505873204 1470.86121226 851.82233047 1484.17766953 c 0,15,16
 871.842270979 1504.19761004 871.842270979 1504.19761004 896.836300159 1514.59880502 c 128,-1,17
 921.830329339 1525 921.830329339 1525 950 1525 c 0,18,19
 1007.35533906 1525 1007.35533906 1525 1048.17766953 1484.17766953 c 0,20,21
 1068.19761004 1464.15772902 1068.19761004 1464.15772902 1078.59880502 1439.16369984 c 128,-1,22
 1089 1414.16967066 1089 1414.16967066 1089 1386 c 0,0,1
1050 75 m 2,23,24
 1050 -152.355339059 1050 -152.355339059 888.67766953 -313.67766953 c 128,-1,25
 727.355339059 -475 727.355339059 -475 500 -475 c 0,26,27
 380.523791294 -475 380.523791294 -475 262.609119503 -420.738381122 c 0,28,29
 137.413551608 -363.926946952 137.413551608 -363.926946952 71.4659389687 -269.260212679 c 0,30,31
 49 -236.809411947 49 -236.809411947 49 -208 c 0,32,33
 49 -166.32489684 49 -166.32489684 80.2107125218 -136.442299745 c 0,34,35
 110.961558922 -107 110.961558922 -107 152 -107 c 0,36,37
 161.954955879 -107 161.954955879 -107 171.737128807 -109.459564711 c 128,-1,38
 181.519301736 -111.919129422 181.519301736 -111.919129422 190.705177623 -116.621211606 c 128,-1,39
 199.89105351 -121.323293791 199.89105351 -121.323293791 208.432147887 -127.618001462 c 128,-1,40
 216.973242265 -133.912709134 216.973242265 -133.912709134 225.458835337 -142.105695548 c 0,41,42
 360.251629852 -275 360.251629852 -275 500 -275 c 0,43,44
 644.644660941 -275 644.644660941 -275 747.32233047 -172.32233047 c 128,-1,45
 850 -69.6446609407 850 -69.6446609407 850 75 c 2,46,-1
 850 875 l 1,47,-1
 650 875 l 2,48,49
 604 875 604 875 577 902 c 128,-1,50
 550 929 550 929 550 975 c 128,-1,51
 550 1021 550 1021 577 1048 c 128,-1,52
 604 1075 604 1075 650 1075 c 2,53,-1
 951 1075 l 2,54,55
 997 1075 997 1075 1023.5 1048.5 c 128,-1,56
 1050 1022 1050 1022 1050 976 c 2,57,-1
 1050 75 l 2,23,24
EndSplineSet
EndChar

StartChar: k
Encoding: 107 107 78
Width: 1200
Flags: W
LayerCount: 2
Fore
SplineSet
1151 77 m 0,0,1
 1151 37.1138130009 1151 37.1138130009 1121.7384301 5.90147177797 c 0,2,3
 1091.83080031 -26 1091.83080031 -26 1051 -26 c 0,4,5
 1035.65381262 -26 1035.65381262 -26 1021.08064238 -21.3589543589 c 128,-1,6
 1006.50747213 -16.7179087179 1006.50747213 -16.7179087179 992.939907369 -7.67286554183 c 2,7,-1
 352.876112643 436.37139205 l 2,8,9
 351.852923815 437.062735853 351.852923815 437.062735853 350 438.350718163 c 2,10,-1
 350 75 l 2,11,12
 350 29 350 29 323 2 c 128,-1,13
 296 -25 296 -25 250 -25 c 128,-1,14
 204 -25 204 -25 177 2 c 128,-1,15
 150 29 150 29 150 75 c 2,16,-1
 150 1425 l 2,17,18
 150 1471 150 1471 177 1498 c 128,-1,19
 204 1525 204 1525 250 1525 c 128,-1,20
 296 1525 296 1525 323 1498 c 128,-1,21
 350 1471 350 1471 350 1425 c 2,22,-1
 350 611.649281837 l 2,23,24
 351.852923815 612.937264147 351.852923815 612.937264147 352.876112643 613.62860795 c 2,25,-1
 992.939907369 1057.67286554 l 2,26,27
 1020.43060906 1076 1020.43060906 1076 1051 1076 c 0,28,29
 1091.83080031 1076 1091.83080031 1076 1121.7384301 1044.09852822 c 0,30,31
 1151 1012.886187 1151 1012.886187 1151 973 c 0,32,33
 1151 948.51672101 1151 948.51672101 1139.60548653 927.792347054 c 128,-1,34
 1128.21097306 907.067973098 1128.21097306 907.067973098 1107.25781398 892.464256163 c 2,35,-1
 575.949959059 525 l 1,36,-1
 1107.25781398 157.535743837 l 2,37,38
 1151 127.048765699 1151 127.048765699 1151 77 c 0,0,1
EndSplineSet
EndChar

StartChar: l
Encoding: 108 108 79
Width: 1200
Flags: W
LayerCount: 2
Fore
SplineSet
1151 226 m 0,0,1
 1151 215.972453033 1151 215.972453033 1148.5404321 205.737176837 c 128,-1,2
 1146.0808642 195.501900641 1146.0808642 195.501900641 1141.73868307 185.965682961 c 128,-1,3
 1137.39650194 176.429465282 1137.39650194 176.429465282 1130.98877179 166.41738693 c 0,4,5
 1074.13700241 79.5307205175 1074.13700241 79.5307205175 962.870496234 25.4869889447 c 0,6,7
 927.942585494 8.72159178918 927.942585494 8.72159178918 892.674473638 -2.4898559081 c 128,-1,8
 857.406361782 -13.7013036054 857.406361782 -13.7013036054 821.676444223 -19.3506518027 c 128,-1,9
 785.946526664 -25 785.946526664 -25 750 -25 c 0,10,11
 553.644660941 -25 553.644660941 -25 414.32233047 114.32233047 c 128,-1,12
 275 253.644660941 275 253.644660941 275 450 c 2,13,-1
 275 1425 l 2,14,15
 275 1471 275 1471 302 1498 c 128,-1,16
 329 1525 329 1525 375 1525 c 128,-1,17
 421 1525 421 1525 448 1498 c 128,-1,18
 475 1471 475 1471 475 1425 c 2,19,-1
 475 450 l 2,20,21
 475 336.355339059 475 336.355339059 555.67766953 255.67766953 c 128,-1,22
 636.355339059 175 636.355339059 175 750 175 c 0,23,24
 849.541861337 175 849.541861337 175 927.952211298 244.239548795 c 0,25,26
 933.694828686 249.310515027 933.694828686 249.310515027 945.608049186 259.91203221 c 128,-1,27
 957.521269687 270.513549393 957.521269687 270.513549393 962.382668259 274.770570227 c 128,-1,28
 967.244066832 279.027591061 967.244066832 279.027591061 976.856180259 287.290416994 c 128,-1,29
 986.468293687 295.553242928 986.468293687 295.553242928 991.048566214 298.955685137 c 128,-1,30
 995.628838741 302.358127346 995.628838741 302.358127346 1003.31061325 308.041038238 c 128,-1,31
 1010.99238775 313.723949131 1010.99238775 313.723949131 1015.66230238 316.030588923 c 128,-1,32
 1020.33221702 318.337228715 1020.33221702 318.337228715 1026.45442075 321.199000775 c 128,-1,33
 1032.57662449 324.060772834 1032.57662449 324.060772834 1037.70694938 325.030386417 c 128,-1,34
 1042.83727427 326 1042.83727427 326 1048 326 c 0,35,36
 1089.03844108 326 1089.03844108 326 1119.78928748 296.557700255 c 0,37,38
 1151 266.67510316 1151 266.67510316 1151 226 c 0,0,1
EndSplineSet
EndChar

StartChar: m
Encoding: 109 109 80
Width: 1200
Flags: W
LayerCount: 2
Fore
SplineSet
1150 75 m 2,0,1
 1150 29 1150 29 1123 2 c 128,-1,2
 1096 -25 1096 -25 1050 -25 c 128,-1,3
 1004 -25 1004 -25 977 2 c 128,-1,4
 950 29 950 29 950 75 c 2,5,-1
 950 750 l 2,6,7
 950 801.644660941 950 801.644660941 913.32233047 838.32233047 c 128,-1,8
 876.644660941 875 876.644660941 875 825 875 c 128,-1,9
 773.355339059 875 773.355339059 875 736.67766953 838.32233047 c 128,-1,10
 700 801.644660941 700 801.644660941 700 750 c 2,11,-1
 700 75 l 2,12,13
 700 29 700 29 673 2 c 128,-1,14
 646 -25 646 -25 600 -25 c 128,-1,15
 554 -25 554 -25 527 2 c 128,-1,16
 500 29 500 29 500 75 c 2,17,-1
 500 750 l 2,18,19
 500 801.644660941 500 801.644660941 463.32233047 838.32233047 c 128,-1,20
 426.644660941 875 426.644660941 875 375 875 c 128,-1,21
 323.355339059 875 323.355339059 875 286.67766953 838.32233047 c 128,-1,22
 250 801.644660941 250 801.644660941 250 750 c 2,23,-1
 250 75 l 2,24,25
 250 29 250 29 223 2 c 128,-1,26
 196 -25 196 -25 150 -25 c 128,-1,27
 104 -25 104 -25 77 2 c 128,-1,28
 50 29 50 29 50 75 c 2,29,-1
 50 975 l 2,30,31
 50 1021 50 1021 77 1048 c 128,-1,32
 104 1075 104 1075 150 1075 c 0,33,34
 201.042141083 1075 201.042141083 1075 228.262539196 1039.84442351 c 1,35,36
 297.053934268 1075 297.053934268 1075 375 1075 c 0,37,38
 507.027944171 1075 507.027944171 1075 600 984.307973159 c 1,39,40
 692.972055829 1075 692.972055829 1075 825 1075 c 0,41,42
 959.355339059 1075 959.355339059 1075 1054.67766953 979.67766953 c 0,43,44
 1101.95610337 932.399235689 1101.95610337 932.399235689 1125.97805169 874.528115553 c 128,-1,45
 1150 816.656995417 1150 816.656995417 1150 750 c 2,46,-1
 1150 75 l 2,0,1
EndSplineSet
EndChar

StartChar: n
Encoding: 110 110 81
Width: 1200
Flags: W
LayerCount: 2
Fore
SplineSet
1100 75 m 2,0,1
 1100 29 1100 29 1073 2 c 128,-1,2
 1046 -25 1046 -25 1000 -25 c 128,-1,3
 954 -25 954 -25 927 2 c 128,-1,4
 900 29 900 29 900 75 c 2,5,-1
 900 600 l 2,6,7
 900 713.644660941 900 713.644660941 819.32233047 794.32233047 c 128,-1,8
 738.644660941 875 738.644660941 875 625 875 c 128,-1,9
 511.355339059 875 511.355339059 875 430.67766953 794.32233047 c 128,-1,10
 350 713.644660941 350 713.644660941 350 600 c 2,11,-1
 350 75 l 2,12,13
 350 29 350 29 323 2 c 128,-1,14
 296 -25 296 -25 250 -25 c 128,-1,15
 204 -25 204 -25 177 2 c 128,-1,16
 150 29 150 29 150 75 c 2,17,-1
 150 975 l 2,18,19
 150 1021 150 1021 177 1048 c 128,-1,20
 204 1075 204 1075 250 1075 c 0,21,22
 269.608516973 1075 269.608516973 1075 286.089716063 1068.41871241 c 128,-1,23
 302.570915153 1061.83742481 302.570915153 1061.83742481 314.545718868 1049.8189375 c 128,-1,24
 326.520522583 1037.80045019 326.520522583 1037.80045019 334.565187531 1021.316159 c 128,-1,25
 342.609852478 1004.83186781 342.609852478 1004.83186781 346.28712031 984.64027948 c 1,26,27
 468.540242111 1075 468.540242111 1075 625 1075 c 0,28,29
 821.355339059 1075 821.355339059 1075 960.67766953 935.67766953 c 0,30,31
 1029.95610987 866.399229185 1029.95610987 866.399229185 1064.97805494 782.028115199 c 128,-1,32
 1100 697.657001213 1100 697.657001213 1100 600 c 2,33,-1
 1100 75 l 2,0,1
EndSplineSet
EndChar

StartChar: o
Encoding: 111 111 82
Width: 1200
Flags: W
LayerCount: 2
Fore
SplineSet
1150 525 m 0,0,1
 1150 297.644660941 1150 297.644660941 988.67766953 136.32233047 c 128,-1,2
 827.355339059 -25 827.355339059 -25 600 -25 c 128,-1,3
 372.644660941 -25 372.644660941 -25 211.32233047 136.32233047 c 0,4,5
 157.832384816 189.812276124 157.832384816 189.812276124 121.942859665 251.094735534 c 128,-1,6
 86.0533345144 312.377194943 86.0533345144 312.377194943 68.0266672572 380.98793313 c 128,-1,7
 50 449.598671317 50 449.598671317 50 525 c 0,8,9
 50 752.355339059 50 752.355339059 211.32233047 913.67766953 c 128,-1,10
 372.644660941 1075 372.644660941 1075 600 1075 c 128,-1,11
 827.355339059 1075 827.355339059 1075 988.67766953 913.67766953 c 0,12,13
 1068.9562017 833.399137362 1068.9562017 833.399137362 1109.47810085 735.778160588 c 128,-1,14
 1150 638.157183814 1150 638.157183814 1150 525 c 0,0,1
950 525 m 128,-1,16
 950 669.644660941 950 669.644660941 847.32233047 772.32233047 c 128,-1,17
 744.644660941 875 744.644660941 875 600 875 c 128,-1,18
 455.355339059 875 455.355339059 875 352.67766953 772.32233047 c 128,-1,19
 250 669.644660941 250 669.644660941 250 525 c 0,20,21
 250 488.547178542 250 488.547178542 256.340670191 455.083686201 c 128,-1,22
 262.681340382 421.62019386 262.681340382 421.62019386 275.478512322 390.788346468 c 128,-1,23
 288.275684262 359.956499076 288.275684262 359.956499076 307.533547202 331.760213996 c 128,-1,24
 326.791410143 303.563928916 326.791410143 303.563928916 352.67766953 277.67766953 c 0,25,26
 455.355339059 175 455.355339059 175 600 175 c 128,-1,27
 744.644660941 175 744.644660941 175 847.32233047 277.67766953 c 128,-1,15
 950 380.355339059 950 380.355339059 950 525 c 128,-1,16
EndSplineSet
EndChar

StartChar: p
Encoding: 112 112 83
Width: 1200
Flags: W
LayerCount: 2
Fore
SplineSet
1150 525 m 0,0,1
 1150 416.850409364 1150 416.850409364 1115.39622996 321.690638263 c 128,-1,2
 1080.79245992 226.530867161 1080.79245992 226.530867161 1012.03108076 145.78833861 c 0,3,4
 866.544718243 -25 866.544718243 -25 650 -25 c 0,5,6
 479.730160989 -25 479.730160989 -25 350 84.2194635995 c 1,7,-1
 350 -375 l 2,8,9
 350 -421 350 -421 323 -448 c 128,-1,10
 296 -475 296 -475 250 -475 c 128,-1,11
 204 -475 204 -475 177 -448 c 128,-1,12
 150 -421 150 -421 150 -375 c 2,13,-1
 150 975 l 2,14,15
 150 1021 150 1021 177 1048 c 128,-1,16
 204 1075 204 1075 250 1075 c 0,17,18
 263.537918952 1075 263.537918952 1075 275.806367253 1072.25983212 c 128,-1,19
 288.074815554 1069.51966425 288.074815554 1069.51966425 298.671076186 1064.06053905 c 128,-1,20
 309.267336818 1058.60141385 309.267336818 1058.60141385 317.875378415 1050.71059653 c 128,-1,21
 326.483420012 1042.81977921 326.483420012 1042.81977921 332.897679356 1032.23228041 c 128,-1,22
 339.311938699 1021.6447816 339.311938699 1021.6447816 343.019230624 1008.93406643 c 0,23,24
 347.060951642 994.788042869 347.060951642 994.788042869 348.738187865 964.714807328 c 1,25,26
 479.204495427 1075 479.204495427 1075 650 1075 c 0,27,28
 721.783498138 1075 721.783498138 1075 786.329351319 1055.83194042 c 128,-1,29
 850.8752045 1036.66388085 850.8752045 1036.66388085 907.402913631 998.670648457 c 128,-1,30
 963.930622761 960.677416065 963.930622761 960.677416065 1012.03332565 904.209025716 c 0,31,32
 1150 742.202703564 1150 742.202703564 1150 525 c 0,0,1
950 525 m 0,33,34
 950 594.065407602 950 594.065407602 929.456586159 653.827218385 c 128,-1,35
 908.913172318 713.589029168 908.913172318 713.589029168 867.462272218 765.402654292 c 0,36,37
 823.106927571 820.963559692 823.106927571 820.963559692 769.298473734 847.981779846 c 128,-1,38
 715.490019896 875 715.490019896 875 650 875 c 0,39,40
 606.324576021 875 606.324576021 875 568.063936456 863.092274912 c 128,-1,41
 529.803296891 851.184549823 529.803296891 851.184549823 495.987749785 826.854152137 c 128,-1,42
 462.172202679 802.52375445 462.172202679 802.52375445 432.521720236 765.382623811 c 0,43,44
 391.092110529 713.595611678 391.092110529 713.595611678 370.546055265 653.8246252 c 128,-1,45
 350 594.053638722 350 594.053638722 350 525 c 0,46,47
 350 501.947690464 350 501.947690464 352.278641805 479.976873977 c 128,-1,48
 354.55728361 458.006057491 354.55728361 458.006057491 359.131503537 437.036379493 c 128,-1,49
 363.705723464 416.066701494 363.705723464 416.066701494 370.564386941 396.108945457 c 128,-1,50
 377.423050418 376.151189421 377.423050418 376.151189421 386.603372447 357.108374627 c 128,-1,51
 395.783694476 338.065559833 395.783694476 338.065559833 407.252909888 319.966204322 c 128,-1,52
 418.722125299 301.866848811 418.722125299 301.866848811 432.537727782 284.597345708 c 0,53,54
 520.031407128 175 520.031407128 175 650 175 c 128,-1,55
 779.968609697 175 779.968609697 175 867.478279764 284.617376189 c 0,56,57
 950 387.769526484 950 387.769526484 950 525 c 0,33,34
EndSplineSet
EndChar

StartChar: q
Encoding: 113 113 84
Width: 1200
Flags: W
LayerCount: 2
Fore
SplineSet
1050 -375 m 2,0,1
 1050 -421 1050 -421 1023 -448 c 128,-1,2
 996 -475 996 -475 950 -475 c 128,-1,3
 904 -475 904 -475 877 -448 c 128,-1,4
 850 -421 850 -421 850 -375 c 2,5,-1
 850 84.2194635995 l 1,6,7
 720.269839011 -25 720.269839011 -25 550 -25 c 0,8,9
 333.455282072 -25 333.455282072 -25 187.966674349 145.790974284 c 0,10,11
 50 307.797296436 50 307.797296436 50 525 c 128,-1,12
 50 742.202703194 50 742.202703194 187.968919238 904.21166139 c 0,13,14
 333.455281757 1075 333.455281757 1075 550 1075 c 0,15,16
 720.269839011 1075 720.269839011 1075 850.331293582 965.501621251 c 1,17,18
 851.699869855 990.052325759 851.699869855 990.052325759 858.79595433 1010.08646656 c 128,-1,19
 865.892038806 1030.12060736 865.892038806 1030.12060736 878.234475823 1044.6264312 c 128,-1,20
 890.576912841 1059.13225505 890.576912841 1059.13225505 908.881563201 1067.06612752 c 128,-1,21
 927.186213561 1075 927.186213561 1075 950 1075 c 0,22,23
 996 1075 996 1075 1023 1048 c 128,-1,24
 1050 1021 1050 1021 1050 975 c 2,25,-1
 1050 -375 l 2,0,1
850 525 m 0,26,27
 850 594.065407602 850 594.065407602 829.456586159 653.827218385 c 128,-1,28
 808.913172318 713.589029168 808.913172318 713.589029168 767.462272218 765.402654292 c 0,29,30
 723.106927571 820.963559692 723.106927571 820.963559692 669.298473734 847.981779846 c 128,-1,31
 615.490019896 875 615.490019896 875 550 875 c 128,-1,32
 484.500990797 875 484.500990797 875 430.699126115 847.984414024 c 128,-1,33
 376.897261433 820.968828047 376.897261433 820.968828047 332.521720236 765.382623811 c 0,34,35
 291.092110529 713.595611678 291.092110529 713.595611678 270.546055265 653.8246252 c 128,-1,36
 250 594.053638722 250 594.053638722 250 525 c 0,37,38
 250 497.33786165 250 497.33786165 253.286476779 471.218675119 c 128,-1,39
 256.572953559 445.099488589 256.572953559 445.099488589 263.15072705 420.433955753 c 128,-1,40
 269.728500542 395.768422918 269.728500542 395.768422918 279.637000659 372.476985205 c 128,-1,41
 289.545500776 349.185547492 289.545500776 349.185547492 302.751250954 327.254400756 c 128,-1,42
 315.957001132 305.32325402 315.957001132 305.32325402 332.537727782 284.597345708 c 0,43,44
 420.031407128 175 420.031407128 175 550 175 c 128,-1,45
 679.968609697 175 679.968609697 175 767.478279764 284.617376189 c 0,46,47
 850 387.769526484 850 387.769526484 850 525 c 0,26,27
EndSplineSet
EndChar

StartChar: r
Encoding: 114 114 85
Width: 1200
Flags: W
LayerCount: 2
Fore
SplineSet
1151 808 m 0,0,1
 1151 794.400191075 1151 794.400191075 1147.36100525 781.568488276 c 128,-1,2
 1143.72201049 768.736785477 1143.72201049 768.736785477 1136.76184007 757.382704289 c 128,-1,3
 1129.80166965 746.0286231 1129.80166965 746.0286231 1119.78928748 736.442299745 c 0,4,5
 1104.86191925 722.150138674 1104.86191925 722.150138674 1086.5125862 714.575069337 c 128,-1,6
 1068.16325316 707 1068.16325316 707 1048 707 c 0,7,8
 1009.38682005 707 1009.38682005 707 974.135928793 743.509851659 c 0,9,10
 843.591752743 875 843.591752743 875 700 875 c 0,11,12
 555.355339059 875 555.355339059 875 452.67766953 772.32233047 c 128,-1,13
 350 669.644660941 350 669.644660941 350 525 c 2,14,-1
 350 75 l 2,15,16
 350 29 350 29 323 2 c 128,-1,17
 296 -25 296 -25 250 -25 c 128,-1,18
 204 -25 204 -25 177 2 c 128,-1,19
 150 29 150 29 150 75 c 2,20,-1
 150 975 l 2,21,22
 150 1021 150 1021 177 1048 c 128,-1,23
 204 1075 204 1075 250 1075 c 0,24,25
 274.264457782 1075 274.264457782 1075 293.887469559 1066.18882395 c 128,-1,26
 313.510481336 1057.3776479 313.510481336 1057.3776479 326.955296596 1040.42742056 c 128,-1,27
 340.400111857 1023.47719321 340.400111857 1023.47719321 346.333330151 999.744320035 c 0,28,29
 348.202928401 991.331127911 348.202928401 991.331127911 348.91094588 980.349633916 c 128,-1,30
 349.61896336 969.368139921 349.61896336 969.368139921 349.989811279 949.465968261 c 1,31,32
 498.753571579 1075 498.753571579 1075 700 1075 c 0,33,34
 819.476208706 1075 819.476208706 1075 937.390880497 1020.73838112 c 0,35,36
 1062.58644839 963.926946952 1062.58644839 963.926946952 1128.53406103 869.260212679 c 0,37,38
 1151 836.809411947 1151 836.809411947 1151 808 c 0,0,1
EndSplineSet
EndChar

StartChar: s
Encoding: 115 115 86
Width: 1200
Flags: W
LayerCount: 2
Fore
SplineSet
1081 338 m 0,0,1
 1081 163.799897572 1081 163.799897572 907.82144202 60.5381487144 c 0,2,3
 764.910144778 -25 764.910144778 -25 587 -25 c 0,4,5
 453.976345019 -25 453.976345019 -25 332.30915303 25.9546359609 c 0,6,7
 189.024548015 86.4525803006 189.024548015 86.4525803006 131.854211618 195.399825133 c 0,8,9
 118 221.848774586 118 221.848774586 118 246 c 0,10,11
 118 286.997542909 118 286.997542909 150.106884287 316.428853505 c 0,12,13
 181.275407736 345 181.275407736 345 221 345 c 0,14,15
 267.56436636 345 267.56436636 345 304.003608942 295.995501355 c 0,16,17
 395.442957294 175 395.442957294 175 587 175 c 0,18,19
 776.743866212 175 776.743866212 175 855.239623696 276.314291636 c 0,20,21
 868.620753031 293.580264972 868.620753031 293.580264972 874.810376516 308.958273713 c 128,-1,22
 881 324.336282453 881 324.336282453 881 338 c 0,23,24
 881 386.428243776 881 386.428243776 821.279190551 430.792273653 c 0,25,26
 769.331612137 467.897686806 769.331612137 467.897686806 701.747139981 484.793804845 c 0,27,28
 644.723908148 500 644.723908148 500 572 500 c 0,29,30
 435.711415972 500 435.711415972 500 327.589684399 568.901103454 c 0,31,32
 198 651.267428283 198 651.267428283 198 788 c 128,-1,33
 198 924.917087165 198 924.917087165 330.863270797 1007.27035419 c 0,34,35
 440.923945242 1075 440.923945242 1075 580 1075 c 0,36,37
 623.148779386 1075 623.148779386 1075 666.074617247 1067.36332542 c 128,-1,38
 709.000455109 1059.72665084 709.000455109 1059.72665084 751.393547397 1044.54887706 c 0,39,40
 851.436179327 1009.04987863 851.436179327 1009.04987863 898.887191 946.149700367 c 0,41,42
 906.75164104 935.925915315 906.75164104 935.925915315 912.205549131 925.772645871 c 128,-1,43
 917.659457222 915.619376427 917.659457222 915.619376427 920.829728611 904.351695997 c 128,-1,44
 924 893.084015566 924 893.084015566 924 882 c 0,45,46
 924 841.48684458 924 841.48684458 892.986576189 811.13328085 c 0,47,48
 862.198224016 781 862.198224016 781 821 781 c 0,49,50
 816.314815215 781 816.314815215 781 811.327040928 782.025311928 c 128,-1,51
 806.33926664 783.050623856 806.33926664 783.050623856 801.917713527 784.490604174 c 128,-1,52
 797.496160415 785.930584491 797.496160415 785.930584491 791.415451919 789.060382024 c 128,-1,53
 785.334743424 792.190179557 785.334743424 792.190179557 780.811709871 794.764181187 c 128,-1,54
 776.288676318 797.338182816 776.288676318 797.338182816 768.59338686 802.37550492 c 128,-1,55
 760.898097402 807.412827025 760.898097402 807.412827025 755.751936653 810.923888932 c 128,-1,56
 750.605775904 814.43495084 750.605775904 814.43495084 740.774258729 821.182836481 c 128,-1,57
 730.942741553 827.930722123 730.942741553 827.930722123 724.49527221 832.290881247 c 0,58,59
 661.340298735 875 661.340298735 875 580 875 c 0,60,61
 456.567860701 875 456.567860701 875 408.976048904 810.967380492 c 0,62,63
 398 796.561316305 398 796.561316305 398 788 c 0,64,65
 398 735.557329054 398 735.557329054 503.904238041 709.29307802 c 0,66,67
 542.935165725 700 542.935165725 700 598 700 c 0,68,69
 685.24509926 700 685.24509926 700 764.225393963 678.29291805 c 128,-1,70
 843.205688666 656.5858361 843.205688666 656.5858361 913.182675375 613.241881646 c 0,71,72
 1081 508.893929796 1081 508.893929796 1081 338 c 0,0,1
EndSplineSet
EndChar

StartChar: t
Encoding: 116 116 87
Width: 1200
Flags: W
LayerCount: 2
Fore
SplineSet
1151 226 m 0,0,1
 1151 215.972453033 1151 215.972453033 1148.5404321 205.737176837 c 128,-1,2
 1146.0808642 195.501900641 1146.0808642 195.501900641 1141.73868307 185.965682961 c 128,-1,3
 1137.39650194 176.429465282 1137.39650194 176.429465282 1130.98877179 166.41738693 c 0,4,5
 1074.13700241 79.5307205175 1074.13700241 79.5307205175 962.870496234 25.4869889447 c 0,6,7
 927.942585494 8.72159178918 927.942585494 8.72159178918 892.674473638 -2.4898559081 c 128,-1,8
 857.406361782 -13.7013036054 857.406361782 -13.7013036054 821.676444223 -19.3506518027 c 128,-1,9
 785.946526664 -25 785.946526664 -25 750 -25 c 0,10,11
 553.644660941 -25 553.644660941 -25 414.32233047 114.32233047 c 128,-1,12
 275 253.644660941 275 253.644660941 275 450 c 2,13,-1
 275 875 l 1,14,-1
 150 875 l 2,15,16
 104 875 104 875 77 902 c 128,-1,17
 50 929 50 929 50 975 c 128,-1,18
 50 1021 50 1021 77 1048 c 128,-1,19
 104 1075 104 1075 150 1075 c 2,20,-1
 275 1075 l 1,21,-1
 275 1425 l 2,22,23
 275 1471 275 1471 302 1498 c 128,-1,24
 329 1525 329 1525 375 1525 c 128,-1,25
 421 1525 421 1525 448 1498 c 128,-1,26
 475 1471 475 1471 475 1425 c 2,27,-1
 475 1075 l 1,28,-1
 825 1075 l 2,29,30
 871 1075 871 1075 898 1048 c 128,-1,31
 925 1021 925 1021 925 975 c 128,-1,32
 925 929 925 929 898 902 c 128,-1,33
 871 875 871 875 825 875 c 2,34,-1
 475 875 l 1,35,-1
 475 450 l 2,36,37
 475 336.355339059 475 336.355339059 555.67766953 255.67766953 c 128,-1,38
 636.355339059 175 636.355339059 175 750 175 c 0,39,40
 775.932486244 175 775.932486244 175 799.496743715 178.980267228 c 128,-1,41
 823.061001186 182.960534455 823.061001186 182.960534455 843.984422123 190.748277026 c 128,-1,42
 864.907843059 198.536019596 864.907843059 198.536019596 883.732067006 210.189110611 c 0,43,44
 911.476322871 227.760472659 911.476322871 227.760472659 965.596920988 279.948192272 c 0,45,46
 1012.8295443 326 1012.8295443 326 1048 326 c 0,47,48
 1089.03844108 326 1089.03844108 326 1119.78928748 296.557700255 c 0,49,50
 1151 266.67510316 1151 266.67510316 1151 226 c 0,0,1
EndSplineSet
EndChar

StartChar: u
Encoding: 117 117 88
Width: 1200
Flags: W
LayerCount: 2
Fore
SplineSet
1100 475 m 2,0,1
 1100 267.644660941 1100 267.644660941 953.67766953 121.32233047 c 128,-1,2
 807.355339059 -25 807.355339059 -25 600 -25 c 128,-1,3
 392.644660941 -25 392.644660941 -25 246.32233047 121.32233047 c 0,4,5
 173.532221559 194.112439382 173.532221559 194.112439382 136.766110779 282.98584846 c 128,-1,6
 100 371.859257538 100 371.859257538 100 475 c 2,7,-1
 100 975 l 2,8,9
 100 1021 100 1021 127 1048 c 128,-1,10
 154 1075 154 1075 200 1075 c 128,-1,11
 246 1075 246 1075 273 1048 c 128,-1,12
 300 1021 300 1021 300 975 c 2,13,-1
 300 475 l 2,14,15
 300 433.410703755 300 433.410703755 309.690408275 396.30744975 c 128,-1,16
 319.380816551 359.204195745 319.380816551 359.204195745 338.936846531 326.033329146 c 128,-1,17
 358.492876511 292.862462548 358.492876511 292.862462548 388.17766953 263.17766953 c 0,18,19
 476.355339059 175 476.355339059 175 600 175 c 128,-1,20
 723.644660941 175 723.644660941 175 811.82233047 263.17766953 c 128,-1,21
 900 351.355339059 900 351.355339059 900 475 c 2,22,-1
 900 975 l 2,23,24
 900 1021 900 1021 927 1048 c 128,-1,25
 954 1075 954 1075 1000 1075 c 128,-1,26
 1046 1075 1046 1075 1073 1048 c 128,-1,27
 1100 1021 1100 1021 1100 975 c 2,28,-1
 1100 475 l 2,0,1
EndSplineSet
EndChar

StartChar: v
Encoding: 118 118 89
Width: 1200
Flags: W
LayerCount: 2
Fore
SplineSet
1151 977 m 0,0,1
 1151 953.098306249 1151 953.098306249 1139.3657205 929.829747257 c 2,2,-1
 696.322729843 42.7436688905 l 2,3,4
 660.419520977 -25.1958662969 660.419520977 -25.1958662969 600 -26 c 0,5,6
 569.10533106 -26 569.10533106 -26 544.621249075 -7.79413575653 c 128,-1,7
 520.13716709 10.4117284869 520.13716709 10.4117284869 503.677270157 42.7436688905 c 2,8,-1
 60.639320225 929.819660113 l 2,9,10
 49 953.098300563 49 953.098300563 49 977 c 0,11,12
 49 1019.16863226 49 1019.16863226 81.3187919604 1048.12088339 c 0,13,14
 112.439666312 1076 112.439666312 1076 152 1076 c 0,15,16
 211.450849719 1076 211.450849719 1076 239.360679775 1020.18033989 c 2,17,-1
 600 298.901699437 l 1,18,-1
 960.639320225 1020.18033989 l 2,19,20
 988.549150281 1076 988.549150281 1076 1048 1076 c 0,21,22
 1067.53658982 1076 1067.53658982 1076 1085.55700852 1068.82567686 c 128,-1,23
 1103.57742721 1061.65135372 1103.57742721 1061.65135372 1118.68120804 1048.12088339 c 0,24,25
 1134.28246425 1034.14475804 1134.28246425 1034.14475804 1142.64123213 1015.85933494 c 128,-1,26
 1151 997.57391184 1151 997.57391184 1151 977 c 0,0,1
EndSplineSet
EndChar

StartChar: w
Encoding: 119 119 90
Width: 1200
Flags: W
LayerCount: 2
Fore
SplineSet
1151 978 m 0,0,1
 1151 962.24080932 1151 962.24080932 1145.91808439 945.724583581 c 2,2,-1
 878.968885234 57.8935392054 l 2,3,4
 857.566822007 -15.3240455184 857.566822007 -15.3240455184 794.685333825 -24.0115160681 c 0,5,6
 786.990695836 -24.9367993219 786.990695836 -24.9367993219 780 -25 c 0,7,8
 743.462531682 -25 743.462531682 -25 717.88547314 -2.84334853003 c 128,-1,9
 692.308414597 19.3133029399 692.308414597 19.3133029399 681.03448603 57.8820059329 c 2,10,-1
 600 326.453445346 l 1,11,-1
 518.96551397 57.8820059329 l 2,12,13
 507.688829388 19.3038744689 507.688829388 19.3038744689 482.175841134 -2.84806276557 c 128,-1,14
 456.66285288 -25 456.66285288 -25 420 -25 c 128,-1,15
 383.460420146 -25 383.460420146 -25 357.884495645 -2.84361630641 c 128,-1,16
 332.308571143 19.3127673872 332.308571143 19.3127673872 321.031114766 57.8935392054 c 2,17,-1
 54.081915612 945.724583581 l 2,18,19
 49 962.24080932 49 962.24080932 49 978 c 0,20,21
 49 1023 49 1023 77 1049 c 128,-1,22
 105 1075 105 1075 152 1075 c 0,23,24
 169.156043047 1075 169.156043047 1075 184.224838647 1070.16776276 c 128,-1,25
 199.293634248 1065.33552552 199.293634248 1065.33552552 211.250663186 1056.26262897 c 128,-1,26
 223.207692124 1047.18973241 223.207692124 1047.18973241 232.073179798 1033.97960613 c 128,-1,27
 240.938667473 1020.76947984 240.938667473 1020.76947984 245.940947262 1004.19942804 c 2,28,-1
 420.088746777 422.827228651 l 1,29,-1
 495.888190333 674.005776906 l 1,30,31
 487.62345555 701.444118433 487.62345555 701.444118433 477.738714034 734.104889783 c 128,-1,32
 467.853972519 766.765661133 467.853972519 766.765661133 461.474285298 787.807828315 c 128,-1,33
 455.094598077 808.849995498 455.094598077 808.849995498 447.702912779 833.356770961 c 128,-1,34
 440.311227481 857.863546425 440.311227481 857.863546425 435.729619154 873.319708852 c 128,-1,35
 431.148010827 888.775871278 431.148010827 888.775871278 426.24927881 905.650432933 c 128,-1,36
 421.350546792 922.524994587 421.350546792 922.524994587 418.566914421 932.916934335 c 128,-1,37
 415.783282051 943.308874083 415.783282051 943.308874083 413.377400377 953.073004005 c 128,-1,38
 410.971518702 962.837133928 410.971518702 962.837133928 409.985759351 968.686633074 c 128,-1,39
 409 974.53613222 409 974.53613222 409 978 c 0,40,41
 409 1023 409 1023 437 1049 c 128,-1,42
 465 1075 465 1075 512 1075 c 0,43,44
 546.468420582 1075 546.468420582 1075 571.162306786 1056.30258828 c 128,-1,45
 595.85619299 1037.60517657 595.85619299 1037.60517657 605.940947262 1004.19942804 c 2,46,-1
 780 423.123499458 l 1,47,-1
 954.059052738 1004.19942804 l 2,48,49
 960.73609999 1026.31714706 960.73609999 1026.31714706 974.029882179 1042.2265406 c 128,-1,50
 987.323664368 1058.13593413 987.323664368 1058.13593413 1006.22157946 1066.56796707 c 128,-1,51
 1025.11949456 1075 1025.11949456 1075 1048 1075 c 0,52,53
 1095 1075 1095 1075 1123 1049.5 c 128,-1,54
 1151 1024 1151 1024 1151 978 c 0,0,1
EndSplineSet
EndChar

StartChar: x
Encoding: 120 120 91
Width: 1200
Flags: W
LayerCount: 2
Fore
SplineSet
1151 974 m 0,0,1
 1151 934.644660941 1151 934.644660941 1120.67766953 904.32233047 c 2,2,-1
 741.355339059 525 l 1,3,-1
 1120.67766953 145.67766953 l 2,4,5
 1135.26120752 131.094131544 1135.26120752 131.094131544 1143.13060376 113.302775236 c 128,-1,6
 1151 95.5114189277 1151 95.5114189277 1151 76 c 0,7,8
 1151 34.6446609407 1151 34.6446609407 1120.67766953 4.32233047034 c 128,-1,9
 1090.35533906 -26 1090.35533906 -26 1049 -26 c 0,10,11
 1009.64466094 -26 1009.64466094 -26 979.32233047 4.32233047034 c 2,12,-1
 600 383.644660941 l 1,13,-1
 220.67766953 4.32233047034 l 2,14,15
 190.355339059 -26 190.355339059 -26 151 -26 c 0,16,17
 109.644660941 -26 109.644660941 -26 79.3223304703 4.32233047034 c 128,-1,18
 49 34.6446609407 49 34.6446609407 49 76 c 0,19,20
 49 115.355339059 49 115.355339059 79.3223304703 145.67766953 c 2,21,-1
 458.644660941 525 l 1,22,-1
 79.3223304703 904.32233047 l 2,23,24
 49 934.644660941 49 934.644660941 49 974 c 0,25,26
 49 1015.35533906 49 1015.35533906 79.3223304703 1045.67766953 c 0,27,28
 94.0154727265 1060.37081179 94.0154727265 1060.37081179 112.363599955 1068.18540589 c 128,-1,29
 130.711727183 1076 130.711727183 1076 151 1076 c 0,30,31
 190.593591902 1075.18056945 190.593591902 1075.18056945 220.67766953 1045.67766953 c 2,32,-1
 600 666.355339059 l 1,33,-1
 979.32233047 1045.67766953 l 2,34,35
 993.905868456 1060.26120752 993.905868456 1060.26120752 1011.69722476 1068.13060376 c 128,-1,36
 1029.48858107 1076 1029.48858107 1076 1049 1076 c 0,37,38
 1069.28815107 1076 1069.28815107 1076 1087.63634573 1068.18539934 c 128,-1,39
 1105.98454038 1060.37079868 1105.98454038 1060.37079868 1120.67766953 1045.67766953 c 128,-1,40
 1135.37081179 1030.98452727 1135.37081179 1030.98452727 1143.18540589 1012.63640005 c 128,-1,41
 1151 994.288272817 1151 994.288272817 1151 974 c 0,0,1
EndSplineSet
EndChar

StartChar: y
Encoding: 121 121 92
Width: 1200
Flags: W
LayerCount: 2
Fore
SplineSet
1050 975 m 2,0,-1
 1050 0 l 2,1,2
 1050 -196.355339059 1050 -196.355339059 910.67766953 -335.67766953 c 128,-1,3
 771.355339059 -475 771.355339059 -475 575 -475 c 0,4,5
 450.415366738 -475 450.415366738 -475 338.704848772 -411.76763134 c 0,6,7
 222.475153117 -346.256348334 222.475153117 -346.256348334 163.835024948 -238.571749334 c 0,8,9
 150 -210.901699437 150 -210.901699437 150 -187 c 0,10,11
 150 -146.002457091 150 -146.002457091 182.106884287 -116.571146495 c 0,12,13
 213.275407736 -88 213.275407736 -88 253 -88 c 0,14,15
 299.369522112 -88 299.369522112 -88 335.929102758 -135.905657397 c 0,16,17
 440.483239479 -275 440.483239479 -275 575 -275 c 0,18,19
 688.644660941 -275 688.644660941 -275 769.32233047 -194.32233047 c 128,-1,20
 850 -113.644660941 850 -113.644660941 850 0 c 2,21,-1
 850 62.6404689041 l 1,22,23
 728.785187211 -25 728.785187211 -25 575 -25 c 0,24,25
 378.644660941 -25 378.644660941 -25 239.32233047 114.32233047 c 0,26,27
 170.043890126 183.600770815 170.043890126 183.600770815 135.021945063 267.971884801 c 128,-1,28
 100 352.342998787 100 352.342998787 100 450 c 2,29,-1
 100 975 l 2,30,31
 100 1021 100 1021 127 1048 c 128,-1,32
 154 1075 154 1075 200 1075 c 128,-1,33
 246 1075 246 1075 273 1048 c 128,-1,34
 300 1021 300 1021 300 975 c 2,35,-1
 300 450 l 2,36,37
 300 336.355339059 300 336.355339059 380.67766953 255.67766953 c 128,-1,38
 461.355339059 175 461.355339059 175 575 175 c 128,-1,39
 688.644660941 175 688.644660941 175 769.32233047 255.67766953 c 128,-1,40
 850 336.355339059 850 336.355339059 850 449 c 2,41,-1
 850 975 l 2,42,43
 850 1021 850 1021 877 1048 c 128,-1,44
 904 1075 904 1075 950 1075 c 128,-1,45
 996 1075 996 1075 1023 1048 c 128,-1,46
 1050 1021 1050 1021 1050 975 c 2,0,-1
EndSplineSet
EndChar

StartChar: z
Encoding: 122 122 93
Width: 1200
Flags: W
LayerCount: 2
Fore
SplineSet
1151 974 m 0,0,1
 1151 934.644660941 1151 934.644660941 1110.67766953 894.32233047 c 2,2,-1
 391.355339059 175 l 1,3,-1
 1050 175 l 2,4,5
 1096 175 1096 175 1123 148 c 128,-1,6
 1150 121 1150 121 1150 75 c 0,7,8
 1150 28.6830194455 1150 28.6830194455 1123.16074489 1.84151747318 c 128,-1,9
 1096.32148978 -24.9999844991 1096.32148978 -24.9999844991 1050.02783963 -24.9999844991 c 2,10,-1
 152 -26 l 2,11,12
 104 -26 104 -26 76.5 1.5 c 128,-1,13
 49 29 49 29 49 76 c 0,14,15
 49 115.355339059 49 115.355339059 89.3223304703 155.67766953 c 2,16,-1
 808.644660941 875 l 1,17,-1
 150 875 l 2,18,19
 104 875 104 875 77 902 c 128,-1,20
 50 929 50 929 50 975 c 0,21,22
 50 1021.31698055 50 1021.31698055 76.8392551117 1048.15848253 c 128,-1,23
 103.678510223 1074.9999845 103.678510223 1074.9999845 149.972160374 1074.9999845 c 2,24,-1
 1048 1076 l 2,25,26
 1096 1076 1096 1076 1123.5 1048.5 c 128,-1,27
 1151 1021 1151 1021 1151 974 c 0,0,1
EndSplineSet
EndChar

StartChar: braceleft
Encoding: 123 123 94
Width: 1200
Flags: W
LayerCount: 2
Fore
SplineSet
925 -375 m 128,-1,1
 925 -421 925 -421 898 -448 c 128,-1,2
 871 -475 871 -475 825 -475 c 0,3,4
 690.644660941 -475 690.644660941 -475 595.32233047 -379.67766953 c 128,-1,5
 500 -284.355339059 500 -284.355339059 500 -150 c 2,6,-1
 500 300 l 2,7,8
 500 351.644660941 500 351.644660941 463.32233047 388.32233047 c 128,-1,9
 426.644660941 425 426.644660941 425 375 425 c 0,10,11
 329 425 329 425 302 452 c 128,-1,12
 275 479 275 479 275 525 c 128,-1,13
 275 571 275 571 302 598 c 128,-1,14
 329 625 329 625 375 625 c 0,15,16
 426.644660941 625 426.644660941 625 463.32233047 661.67766953 c 128,-1,17
 500 698.355339059 500 698.355339059 500 750 c 2,18,-1
 500 1200 l 2,19,20
 500 1244.40143356 500 1244.40143356 510.693391172 1285.01204552 c 128,-1,21
 521.386782345 1325.62265748 521.386782345 1325.62265748 542.60953065 1361.90513775 c 128,-1,22
 563.832278955 1398.18761801 563.832278955 1398.18761801 595.32233047 1429.67766953 c 0,23,24
 642.600764311 1476.95610337 642.600764311 1476.95610337 700.471884447 1500.97805169 c 128,-1,25
 758.343004583 1525 758.343004583 1525 825 1525 c 0,26,27
 871 1525 871 1525 898 1498 c 128,-1,28
 925 1471 925 1471 925 1425 c 128,-1,29
 925 1379 925 1379 898 1352 c 128,-1,30
 871 1325 871 1325 825 1325 c 0,31,32
 807.396974502 1325 807.396974502 1325 792.00972983 1321.02680992 c 128,-1,33
 776.622485158 1317.05361985 776.622485158 1317.05361985 762.906535142 1308.94443296 c 128,-1,34
 749.190585126 1300.83524607 749.190585126 1300.83524607 736.67766953 1288.32233047 c 0,35,36
 717.954104678 1269.59876562 717.954104678 1269.59876562 708.977052339 1247.97224099 c 128,-1,37
 700 1226.34571637 700 1226.34571637 700 1200 c 2,38,-1
 700 750 l 2,39,40
 700 617.972055829 700 617.972055829 609.307973159 525 c 1,41,42
 654.73264746 478.433333643 654.73264746 478.433333643 677.36632373 422.082472729 c 128,-1,43
 700 365.731611814 700 365.731611814 700 300 c 2,44,-1
 700 -150 l 2,45,46
 700 -201.644660941 700 -201.644660941 736.67766953 -238.32233047 c 128,-1,47
 773.355339059 -275 773.355339059 -275 825 -275 c 0,48,49
 871 -275 871 -275 898 -302 c 128,-1,0
 925 -329 925 -329 925 -375 c 128,-1,1
EndSplineSet
EndChar

StartChar: bar
Encoding: 124 124 95
Width: 1200
Flags: W
LayerCount: 2
Fore
SplineSet
700 -375 m 2,0,1
 700 -421 700 -421 673 -448 c 128,-1,2
 646 -475 646 -475 600 -475 c 128,-1,3
 554 -475 554 -475 527 -448 c 128,-1,4
 500 -421 500 -421 500 -375 c 2,5,-1
 500 1425 l 2,6,7
 500 1471 500 1471 527 1498 c 128,-1,8
 554 1525 554 1525 600 1525 c 128,-1,9
 646 1525 646 1525 673 1498 c 128,-1,10
 700 1471 700 1471 700 1425 c 2,11,-1
 700 -375 l 2,0,1
EndSplineSet
EndChar

StartChar: braceright
Encoding: 125 125 96
Width: 1200
Flags: W
LayerCount: 2
Fore
SplineSet
925 525 m 128,-1,1
 925 479 925 479 898 452 c 128,-1,2
 871 425 871 425 825 425 c 0,3,4
 773.355339059 425 773.355339059 425 736.67766953 388.32233047 c 128,-1,5
 700 351.644660941 700 351.644660941 700 300 c 2,6,-1
 700 -150 l 2,7,8
 700 -284.355339059 700 -284.355339059 604.67766953 -379.67766953 c 128,-1,9
 509.355339059 -475 509.355339059 -475 375 -475 c 0,10,11
 329 -475 329 -475 302 -448 c 128,-1,12
 275 -421 275 -421 275 -375 c 128,-1,13
 275 -329 275 -329 302 -302 c 128,-1,14
 329 -275 329 -275 375 -275 c 0,15,16
 392.603025498 -275 392.603025498 -275 407.99027017 -271.026809924 c 128,-1,17
 423.377514842 -267.053619848 423.377514842 -267.053619848 437.093464858 -258.944432957 c 128,-1,18
 450.809414874 -250.835246067 450.809414874 -250.835246067 463.32233047 -238.32233047 c 0,19,20
 500 -201.644660941 500 -201.644660941 500 -150 c 2,21,-1
 500 300 l 2,22,23
 500 432.027944171 500 432.027944171 590.692026841 525 c 1,24,25
 545.26735254 571.566666357 545.26735254 571.566666357 522.63367627 627.917527271 c 128,-1,26
 500 684.268388186 500 684.268388186 500 750 c 2,27,-1
 500 1200 l 2,28,29
 500 1251.64466094 500 1251.64466094 463.32233047 1288.32233047 c 128,-1,30
 426.644660941 1325 426.644660941 1325 375 1325 c 0,31,32
 329 1325 329 1325 302 1352 c 128,-1,33
 275 1379 275 1379 275 1425 c 128,-1,34
 275 1471 275 1471 302 1498 c 128,-1,35
 329 1525 329 1525 375 1525 c 0,36,37
 509.355339059 1525 509.355339059 1525 604.67766953 1429.67766953 c 128,-1,38
 700 1334.35533906 700 1334.35533906 700 1200 c 2,39,-1
 700 750 l 2,40,41
 700 698.355339059 700 698.355339059 736.67766953 661.67766953 c 128,-1,42
 773.355339059 625 773.355339059 625 825 625 c 0,43,44
 871 625 871 625 898 598 c 128,-1,0
 925 571 925 571 925 525 c 128,-1,1
EndSplineSet
EndChar

StartChar: asciitilde
Encoding: 126 126 97
Width: 1200
Flags: W
LayerCount: 2
Fore
SplineSet
1001 528 m 0,0,1
 1001 497.075400876 1001 497.075400876 979.504613347 461.249756454 c 0,2,3
 914.327988353 350 914.327988353 350 750 350 c 0,4,5
 656.063341927 350 656.063341927 350 557.651801128 430.665197376 c 0,6,7
 529.717659806 453.562034525 529.717659806 453.562034525 504.63831814 470.376454842 c 128,-1,8
 479.558976473 487.190875158 479.558976473 487.190875158 466.732918264 493.595437579 c 128,-1,9
 453.906860054 500 453.906860054 500 450 500 c 0,10,11
 412.731528668 500 412.731528668 500 392.005367018 485.669249868 c 1,12,13
 367.271743093 425 367.271743093 425 302 425 c 0,14,15
 255 425 255 425 227 450.5 c 128,-1,16
 199 476 199 476 199 522 c 0,17,18
 199 532.88510894 199 532.88510894 201.652656882 544.2939539 c 128,-1,19
 204.305313765 555.70279886 204.305313765 555.70279886 208.97852599 566.523480838 c 128,-1,20
 213.651738215 577.344162816 213.651738215 577.344162816 220.495386653 588.750243546 c 0,21,22
 253.110764723 644.421319907 253.110764723 644.421319907 311.508647443 672.210659953 c 128,-1,23
 369.906530162 700 369.906530162 700 450 700 c 0,24,25
 543.936658073 700 543.936658073 700 642.348198872 619.334802624 c 0,26,27
 670.282340194 596.437965475 670.282340194 596.437965475 695.36168186 579.623545158 c 128,-1,28
 720.441023527 562.809124842 720.441023527 562.809124842 733.267081736 556.404562421 c 128,-1,29
 746.093139946 550 746.093139946 550 750 550 c 0,30,31
 775.684137934 550 775.684137934 550 791.343849086 556.791171436 c 128,-1,32
 807.003560237 563.582342872 807.003560237 563.582342872 815.826837448 576.557750535 c 0,33,34
 831.414964097 599.481466195 831.414964097 599.481466195 852.306485707 612.240733097 c 128,-1,35
 873.198007317 625 873.198007317 625 898 625 c 0,36,37
 945 625 945 625 973 599.5 c 128,-1,38
 1001 574 1001 574 1001 528 c 0,0,1
EndSplineSet
EndChar

